<?xml version="1.0" encoding="UTF-8" standalone="no"?>
<!-- Created with Inkscape (http://www.inkscape.org/) -->

<svg
   xmlns:dc="http://purl.org/dc/elements/1.1/"
   xmlns:cc="http://creativecommons.org/ns#"
   xmlns:rdf="http://www.w3.org/1999/02/22-rdf-syntax-ns#"
   xmlns:svg="http://www.w3.org/2000/svg"
   xmlns="http://www.w3.org/2000/svg"
   xmlns:sodipodi="http://sodipodi.sourceforge.net/DTD/sodipodi-0.dtd"
   xmlns:inkscape="http://www.inkscape.org/namespaces/inkscape"
   width="210mm"
   height="297mm"
   viewBox="0 0 210 297"
   version="1.1"
   id="svg883"
   inkscape:version="0.92.4 (5da689c313, 2019-01-14)"
   sodipodi:docname="aganbey-logo-black.svg">
  <defs
     id="defs877" />
  <sodipodi:namedview
     id="base"
     pagecolor="#ffffff"
     bordercolor="#666666"
     borderopacity="1.0"
     inkscape:pageopacity="0.0"
     inkscape:pageshadow="2"
     inkscape:zoom="0.49497475"
     inkscape:cx="350"
     inkscape:cy="560"
     inkscape:document-units="mm"
     inkscape:current-layer="layer1"
     showgrid="false"
     inkscape:window-width="1366"
     inkscape:window-height="705"
     inkscape:window-x="-8"
     inkscape:window-y="-8"
     inkscape:window-maximized="1" />
  <metadata
     id="metadata880">
    <rdf:RDF>
      <cc:Work
         rdf:about="">
        <dc:format>image/svg+xml</dc:format>
        <dc:type
           rdf:resource="http://purl.org/dc/dcmitype/StillImage" />
        <dc:title></dc:title>
      </cc:Work>
    </rdf:RDF>
  </metadata>
  <g
     inkscape:label="Layer 1"
     inkscape:groupmode="layer"
     id="layer1">
    <g
       style="fill:#000000;stroke:none;stroke-width:4.1478548"
       transform="matrix(0.00885538,0,0,-0.00816861,-18.058384,239.09553)"
       id="g36">
      <path
         inkscape:connector-curvature="0"
         d="m 13360,21794 c -525,-63 -968,-280 -1374,-674 -585,-568 -986,-1405 -1092,-2280 -21,-180 -29,-552 -15,-765 34,-521 133,-872 326,-1160 283,-423 594,-649 836,-606 66,11 91,25 83,46 -4,9 -31,14 -88,17 -71,3 -92,8 -157,40 -273,136 -581,648 -683,1133 -99,475 -111,938 -35,1320 24,118 116,434 194,664 176,518 397,953 635,1246 86,107 345,365 450,449 270,215 544,355 810,412 127,28 361,25 500,-5 336,-72 582,-202 806,-425 273,-274 429,-615 505,-1107 20,-123 23,-186 23,-434 1,-307 -8,-425 -50,-675 -74,-437 -255,-978 -470,-1410 -202,-403 -394,-645 -644,-812 -107,-71 -335,-180 -475,-228 -153,-52 -277,-84 -600,-155 -143,-31 -266,-62 -272,-67 -7,-6 -13,-21 -13,-33 0,-31 15,-41 80,-53 213,-42 473,-12 777,89 305,102 546,241 723,418 570,571 1026,1540 1137,2416 22,175 25,617 5,775 -72,569 -253,952 -626,1325 -280,279 -571,448 -896,520 -73,16 -325,28 -400,19 z"
         id="path2"
         style="stroke-width:4.1478548" />
      <path
         inkscape:connector-curvature="0"
         d="m 20005,20394 c -16,-2 -79,-9 -140,-15 -268,-27 -584,-90 -942,-190 -818,-228 -1350,-471 -1813,-827 -510,-393 -888,-828 -1119,-1290 -86,-172 -131,-283 -211,-529 -88,-269 -143,-476 -174,-663 -28,-165 -32,-215 -46,-500 -11,-209 -29,-353 -56,-448 -13,-48 -31,-69 -217,-256 -204,-205 -285,-276 -433,-379 l -82,-57 -258,-50 c -414,-81 -693,-139 -1629,-340 -896,-192 -1303,-275 -1311,-267 -2,2 22,22 53,44 331,233 586,629 741,1153 70,235 209,870 196,891 -32,52 -80,-98 -199,-621 -131,-576 -339,-978 -661,-1279 -65,-61 -224,-187 -270,-214 -19,-11 -420,-74 -644,-102 -231,-28 -489,-51 -693,-61 l -137,-7 19,44 c 33,73 68,209 81,309 33,253 -46,551 -216,817 -106,167 -293,382 -479,554 -92,85 -111,108 -115,137 -6,40 -27,54 -32,21 -3,-19 -16,-10 -111,70 -60,50 -112,91 -116,91 -28,0 -8,-28 96,-132 l 118,-118 -24,-68 c -99,-285 -393,-480 -826,-547 -448,-69 -1130,29 -1613,231 -510,214 -1046,667 -1286,1089 -103,181 -163,359 -203,600 -14,85 -18,166 -18,360 0,219 3,263 22,361 53,260 145,439 302,586 157,148 408,243 742,279 127,14 393,6 539,-16 529,-79 1126,-349 1669,-755 221,-165 331,-259 476,-404 159,-160 269,-308 351,-471 143,-289 161,-555 57,-856 -41,-120 -40,-150 7,-169 27,-11 34,-10 69,13 53,36 154,164 195,250 53,109 69,191 63,322 -12,286 -188,594 -538,944 -352,351 -827,680 -1386,960 -760,380 -1402,504 -1889,365 -561,-160 -914,-710 -914,-1424 0,-481 156,-914 475,-1315 83,-104 286,-306 405,-402 201,-163 496,-345 698,-433 268,-116 682,-219 1072,-266 200,-25 582,-25 735,-1 311,49 501,132 656,286 71,70 94,101 127,171 40,85 72,192 72,243 0,15 4,27 9,27 16,0 310,-310 398,-420 203,-252 306,-476 334,-724 20,-179 -12,-374 -86,-531 l -35,-73 -518,-5 c -456,-4 -549,-7 -787,-30 -148,-14 -342,-32 -430,-39 -200,-16 -751,-16 -1265,0 -1755,56 -2107,96 -3933,452 -312,60 -576,110 -587,110 -50,0 -10,-19 103,-48 67,-18 253,-66 412,-108 1339,-349 2023,-453 3395,-514 1026,-46 1552,-52 1905,-21 l 100,8 51,-39 c 200,-151 461,-249 708,-266 222,-15 390,14 561,98 113,55 200,122 268,208 l 47,58 192,12 c 251,15 476,37 718,69 107,14 226,27 263,29 38,2 73,6 78,9 5,3 138,28 296,55 379,64 655,120 1443,290 972,210 1271,271 1290,265 23,-7 199,27 305,60 46,14 178,43 292,64 2210,415 3816,447 5308,105 195,-45 502,-131 689,-194 140,-46 166,-51 166,-30 0,16 -339,142 -600,221 -776,238 -1571,348 -2504,349 -216,0 -335,4 -325,10 40,24 425,172 516,199 175,52 443,100 743,133 149,17 793,16 995,0 888,-74 1585,-231 2338,-526 605,-237 1109,-500 1718,-897 263,-171 474,-297 907,-539 199,-112 360,-205 358,-207 -2,-2 -26,5 -55,16 -162,65 -608,183 -904,240 -508,99 -801,130 -1703,181 -589,33 -837,51 -1104,80 -280,31 -359,38 -835,70 -830,56 -1184,105 -1565,216 -227,66 -379,128 -810,331 -472,223 -698,308 -942,358 -205,41 -538,54 -538,20 0,-8 31,-14 98,-19 210,-14 435,-68 663,-157 74,-29 309,-140 523,-246 540,-269 679,-328 951,-402 384,-106 746,-158 1520,-221 204,-17 483,-41 620,-55 343,-34 684,-60 1185,-90 1184,-70 1649,-126 2180,-261 323,-81 565,-164 876,-300 706,-307 696,-303 719,-284 8,7 15,18 15,25 0,12 -129,112 -205,159 -16,10 -90,62 -163,114 -178,126 -409,274 -737,472 -148,89 -387,242 -530,338 -632,427 -813,546 -1010,664 -882,528 -1591,805 -2555,998 -524,105 -953,150 -1425,150 -385,0 -671,-27 -1010,-95 -432,-86 -797,-224 -1170,-441 l -91,-52 -149,-11 c -529,-41 -1106,-112 -1689,-210 -132,-23 -241,-39 -242,-38 -2,2 36,31 84,65 129,91 302,252 435,405 119,135 119,135 170,142 124,16 287,70 439,145 133,67 557,314 648,378 126,90 349,308 476,466 127,158 226,300 664,951 189,281 389,572 444,649 362,498 685,818 1101,1091 253,167 469,280 1040,547 l 320,150 130,-10 c 141,-10 168,-5 163,31 -3,19 -15,25 -83,39 -222,48 -360,61 -680,63 -170,2 -323,1 -340,-1 z m 310,-183 c -657,-223 -1202,-563 -1685,-1051 -298,-300 -478,-542 -770,-1035 -156,-262 -630,-996 -729,-1129 -162,-215 -236,-285 -536,-500 -416,-299 -800,-538 -899,-562 -25,-6 -8,17 115,152 338,374 408,469 702,947 49,79 120,186 158,238 78,106 84,117 74,127 -11,11 -222,-213 -347,-370 -63,-79 -204,-262 -313,-408 -109,-146 -227,-301 -263,-345 -100,-122 -215,-255 -218,-252 -2,2 6,36 16,77 29,112 46,211 80,464 46,344 98,572 200,876 221,663 551,1165 1030,1567 848,712 2017,1159 3270,1252 58,5 146,9 195,9 l 90,1 z M 9710,14209 c -312,-279 -791,-336 -1208,-143 -70,32 -217,123 -210,130 4,3 419,41 518,47 30,2 255,4 500,5 l 445,1 z"
         id="path4"
         style="stroke-width:4.1478548" />
      <path
         inkscape:connector-curvature="0"
         d="m 12403,17109 c -130,-22 -258,-93 -355,-198 -155,-167 -122,-354 86,-476 56,-33 75,-24 26,13 -96,72 -140,140 -140,217 0,135 175,271 375,291 82,9 153,-9 209,-52 51,-39 122,-141 166,-240 17,-38 37,-72 43,-76 24,-15 56,-7 76,18 18,22 21,41 21,114 0,124 -20,178 -93,257 -69,74 -151,118 -247,133 -74,11 -94,11 -167,-1 z"
         id="path6"
         style="stroke-width:4.1478548" />
      <path
         inkscape:connector-curvature="0"
         d="m 8819,16827 c -158,-54 -271,-195 -314,-391 -52,-234 57,-416 247,-416 39,0 149,27 161,39 5,5 -29,7 -76,4 -109,-7 -149,1 -192,38 -51,45 -68,101 -63,202 4,70 10,96 41,160 40,85 108,161 172,192 67,33 176,27 304,-18 98,-34 106,-35 123,-20 31,28 22,57 -34,109 -69,65 -111,90 -183,109 -78,20 -107,19 -186,-8 z"
         id="path8"
         style="stroke-width:4.1478548" />
      <path
         inkscape:connector-curvature="0"
         d="m 7197,13275 c -74,-27 -112,-69 -132,-146 -49,-185 171,-296 631,-315 275,-12 542,24 673,90 111,57 169,140 159,229 -16,142 -93,170 -334,121 -128,-27 -156,-29 -349,-29 -201,1 -216,2 -348,33 -149,35 -238,40 -300,17 z"
         id="path10"
         style="stroke-width:4.1478548" />
      <path
         inkscape:connector-curvature="0"
         d="m 4054,12576 c -34,-15 -95,-82 -117,-130 -9,-17 -290,-692 -625,-1501 -336,-808 -638,-1533 -672,-1610 -142,-318 -185,-450 -178,-551 5,-74 29,-107 89,-125 54,-17 103,3 167,68 68,70 108,154 338,710 l 179,433 h 790 790 l 134,-328 c 192,-468 262,-601 379,-725 93,-97 181,-138 298,-139 83,0 126,18 154,65 38,61 14,174 -46,213 -60,40 -132,123 -186,214 -137,232 -190,359 -753,1825 -306,798 -569,1473 -584,1500 -28,50 -80,95 -110,95 -9,-1 -30,-7 -47,-14 z m 325,-1506 289,-775 -308,-3 c -170,-1 -450,-1 -624,0 l -315,3 327,793 c 238,579 329,789 334,775 5,-10 138,-367 297,-793 z"
         id="path12"
         style="stroke-width:4.1478548" />
      <path
         inkscape:connector-curvature="0"
         d="m 7615,12578 c -409,-46 -796,-230 -1080,-514 -242,-242 -408,-541 -499,-896 -164,-640 -86,-1264 215,-1718 91,-137 301,-344 444,-440 277,-185 633,-311 1015,-360 146,-19 397,-24 504,-11 458,58 731,334 822,833 12,68 15,184 14,635 0,379 -4,562 -12,585 -17,51 -46,87 -88,108 -38,19 -61,20 -598,20 -482,0 -566,-2 -613,-16 -103,-30 -150,-87 -148,-181 1,-84 33,-142 95,-173 36,-19 62,-20 512,-20 h 474 l -5,-457 c -4,-373 -8,-471 -21,-526 -53,-226 -201,-336 -506,-378 -131,-17 -418,-15 -530,5 -478,84 -875,384 -1086,822 -185,385 -213,886 -73,1314 150,458 513,838 937,979 120,41 195,52 377,58 370,12 591,-59 799,-257 116,-110 152,-135 220,-150 99,-22 230,50 258,142 26,86 -48,208 -189,315 -283,213 -802,331 -1238,281 z"
         id="path14"
         style="stroke-width:4.1478548" />
      <path
         inkscape:connector-curvature="0"
         d="m 10954,12580 c -32,-13 -91,-75 -113,-118 -11,-21 -294,-699 -629,-1507 -336,-809 -622,-1497 -637,-1530 -141,-312 -207,-493 -220,-596 -16,-129 77,-212 181,-163 48,23 124,110 166,190 20,38 116,260 213,494 97,234 186,446 197,473 l 21,47 789,-2 790,-3 142,-345 c 156,-379 192,-454 272,-578 118,-181 239,-262 394,-264 117,-1 174,43 174,137 1,72 -26,119 -93,163 -73,49 -143,152 -264,392 -82,161 -166,373 -658,1654 -521,1357 -567,1473 -604,1513 -42,45 -82,60 -121,43 z m 314,-1493 c 161,-430 292,-786 292,-790 0,-4 -279,-7 -621,-7 -587,0 -621,1 -615,18 30,81 642,1562 646,1562 3,0 137,-352 298,-783 z"
         id="path16"
         style="stroke-width:4.1478548" />
      <path
         inkscape:connector-curvature="0"
         d="m 15419,12560 c -47,-14 -78,-41 -100,-87 l -22,-46 2,-1456 c 1,-867 -1,-1452 -7,-1446 -5,6 -424,654 -932,1440 -508,787 -938,1451 -956,1476 -40,55 -96,94 -157,110 -39,9 -51,8 -90,-9 -29,-13 -55,-34 -71,-59 -58,-88 -56,-23 -54,-1935 l 3,-1753 22,-40 c 30,-57 72,-79 150,-77 73,1 126,23 157,65 21,28 21,33 26,1464 l 5,1435 969,-1481 c 532,-815 978,-1487 990,-1493 11,-7 53,-12 92,-12 62,-1 77,3 120,29 56,35 98,105 114,194 14,74 14,3493 0,3542 -32,114 -146,174 -261,139 z"
         id="path18"
         style="stroke-width:4.1478548" />
      <path
         inkscape:connector-curvature="0"
         d="m 16260,12549 c -67,-13 -146,-56 -180,-97 -64,-77 -60,34 -60,-1867 0,-1939 -5,-1805 71,-1877 27,-26 53,-40 91,-48 39,-8 281,-11 888,-8 822,3 837,4 943,26 459,97 753,336 870,708 49,154 61,243 61,454 0,208 -9,270 -61,435 -88,278 -286,505 -546,624 -45,21 -90,41 -100,44 -15,6 -7,17 48,68 119,112 216,284 261,461 9,36 18,130 21,218 5,137 3,166 -16,240 -34,136 -72,203 -170,300 -67,67 -106,96 -176,132 -217,111 -498,168 -930,188 -256,12 -953,11 -1015,-1 z m 1270,-350 c 380,-39 599,-194 654,-461 42,-202 3,-382 -106,-491 -59,-59 -168,-112 -258,-127 -40,-6 -325,-10 -737,-10 h -673 v 556 557 l 508,-7 c 279,-4 554,-12 612,-17 z m 185,-1513 c 476,-79 756,-288 861,-643 36,-120 45,-333 20,-447 -54,-242 -227,-405 -512,-483 l -99,-28 -782,-3 -783,-3 v 816 817 l 598,-5 c 495,-3 614,-7 697,-21 z"
         id="path20"
         style="stroke-width:4.1478548" />
      <path
         inkscape:connector-curvature="0"
         d="m 25362,12545 c -19,-8 -52,-29 -74,-46 -24,-19 -235,-301 -540,-721 -275,-379 -504,-688 -509,-686 -4,2 -269,318 -589,703 -319,385 -594,708 -610,719 -61,37 -147,13 -204,-58 -27,-33 -31,-45 -31,-101 0,-51 5,-70 24,-97 14,-18 285,-360 602,-759 l 578,-727 4,-948 c 5,-994 6,-1026 50,-1113 31,-62 73,-83 156,-79 59,4 66,7 101,45 78,83 74,27 80,1138 l 5,990 534,745 c 293,410 545,770 560,800 36,78 35,131 -4,170 -37,37 -87,46 -133,25 z"
         id="path22"
         style="stroke-width:4.1478548" />
      <path
         inkscape:connector-curvature="0"
         d="m 20710,12531 c -1141,-6 -1217,-7 -1255,-24 -56,-25 -110,-81 -137,-141 l -23,-51 -3,-1694 c -2,-1506 -1,-1701 13,-1755 29,-113 92,-176 202,-202 76,-18 2640,-21 2725,-3 113,23 177,89 178,180 0,80 -88,148 -220,169 -42,6 -502,10 -1287,10 h -1223 v 765 765 h 771 771 l 103,96 c 60,56 106,106 110,121 9,36 -22,75 -71,90 -28,8 -263,12 -866,12 l -828,1 v 680 680 l 1293,2 1292,3 48,24 c 60,29 87,70 87,133 0,61 -35,98 -117,122 -77,23 -109,24 -1563,17 z"
         id="path24"
         style="stroke-width:4.1478548" />
      <path
         inkscape:connector-curvature="0"
         d="m 14623,8126 c -230,-107 -540,-720 -873,-1726 -54,-162 -122,-376 -151,-475 -30,-99 -61,-185 -69,-192 -8,-7 -63,-39 -121,-73 -373,-214 -874,-367 -1445,-440 -169,-22 -520,-47 -529,-38 -3,3 78,194 181,425 l 187,419 94,109 c 483,564 677,1002 517,1172 l -34,35 -29,-19 c -84,-53 -298,-399 -558,-900 l -104,-202 -102,-97 c -469,-447 -1114,-733 -1870,-829 -174,-22 -502,-38 -611,-30 l -94,7 163,246 c 778,1180 1231,2093 1203,2424 -12,144 -98,199 -254,163 -249,-57 -515,-377 -769,-925 -193,-418 -392,-986 -546,-1560 -51,-189 -268,-854 -277,-846 -1,2 27,183 63,402 43,261 64,412 60,436 -10,58 -47,88 -109,88 -64,0 -114,-14 -191,-52 -146,-72 -607,-262 -930,-383 -522,-196 -958,-321 -1340,-387 -177,-30 -506,-33 -604,-5 -183,52 -271,144 -271,283 0,82 19,132 80,207 103,127 117,251 35,315 -55,44 -111,23 -211,-76 -132,-130 -452,-320 -759,-452 -160,-69 -439,-162 -616,-205 -480,-117 -864,-124 -1076,-20 -190,94 -199,240 -26,455 66,82 138,147 193,175 96,48 140,110 120,169 -28,86 -121,107 -232,53 -74,-36 -202,-148 -255,-222 -60,-84 -139,-246 -163,-335 -79,-292 79,-510 430,-592 l 96,-23 27,-55 c 14,-30 48,-82 76,-114 28,-33 50,-60 48,-61 -1,-1 -69,3 -152,8 -256,18 -445,-12 -453,-71 -7,-49 64,-87 208,-113 111,-20 453,-18 549,4 93,21 158,52 167,80 25,75 -40,192 -155,279 l -33,25 128,7 c 344,18 670,85 989,203 175,64 480,218 627,316 l 128,84 v -101 c 0,-164 37,-263 130,-357 254,-255 853,-233 1810,68 359,113 869,308 1269,487 106,48 195,85 197,83 2,-2 -21,-176 -51,-388 -142,-1002 -215,-1705 -215,-2059 0,-221 12,-262 74,-246 85,21 177,224 216,476 54,343 236,1124 402,1724 l 41,149 66,-7 c 446,-42 760,-32 1131,34 431,77 915,262 1240,474 46,30 86,54 87,52 2,-1 -36,-98 -84,-214 l -87,-212 h -173 c -95,0 -173,-2 -173,-5 0,-3 40,-85 88,-183 l 88,-177 -20,-55 c -30,-82 -29,-241 2,-335 71,-213 208,-348 371,-362 138,-13 226,69 205,191 -18,107 -77,235 -191,409 -81,123 -93,152 -93,227 0,101 -9,96 212,104 592,22 1211,139 1775,337 63,23 116,39 119,37 2,-2 -3,-58 -11,-123 -19,-153 -19,-369 0,-459 17,-81 55,-151 87,-160 50,-15 219,-18 318,-7 138,16 352,61 531,111 375,106 935,314 1394,517 l 110,49 v -130 c 0,-143 10,-195 56,-288 105,-210 407,-313 814,-278 565,48 1264,258 2180,655 l 30,13 1,-111 c 1,-91 5,-123 24,-171 56,-146 186,-211 373,-186 42,6 96,18 119,26 22,8 43,12 46,9 11,-10 -99,-435 -279,-1085 l -110,-394 -120,-114 c -211,-201 -365,-418 -455,-641 -102,-250 -130,-495 -71,-613 19,-38 27,-43 59,-46 33,-3 44,3 86,42 51,48 82,103 185,331 35,77 140,299 232,494 l 169,353 179,169 c 659,624 1439,1192 2322,1692 131,74 269,147 277,147 2,0 3,-44 3,-98 1,-85 4,-105 29,-159 153,-335 805,-345 1913,-32 569,160 1400,486 1587,622 51,37 86,81 86,109 0,9 -14,28 -31,42 -60,50 -180,29 -310,-56 -84,-54 -396,-210 -584,-291 -729,-314 -1618,-535 -2065,-514 -180,9 -284,41 -358,111 -56,52 -76,101 -76,186 0,103 23,163 95,252 80,97 114,168 114,235 0,64 -19,87 -70,85 -203,-8 -1088,-592 -2470,-1631 -230,-174 -422,-317 -426,-319 -3,-1 18,75 48,170 137,438 287,987 318,1165 19,109 8,159 -38,181 -51,25 -161,-17 -302,-113 -57,-39 -78,-48 -124,-52 -94,-7 -139,34 -148,133 -8,89 3,105 87,138 216,85 333,233 256,323 -21,24 -31,28 -73,26 -55,-1 -105,-19 -368,-133 -1111,-479 -2001,-730 -2505,-707 -314,15 -480,122 -480,310 0,71 14,106 92,226 69,107 98,174 98,229 0,98 -58,96 -275,-12 -153,-77 -398,-181 -840,-358 -606,-243 -956,-360 -1204,-403 -110,-20 -263,-20 -300,0 -109,56 -78,348 80,733 35,87 45,101 114,164 417,385 934,1465 1005,2099 18,159 -11,281 -74,320 -41,25 -80,24 -143,-5 z m -4518,-336 c 24,-26 17,-96 -22,-210 -58,-176 -312,-657 -574,-1092 -207,-343 -499,-801 -506,-795 -6,7 131,378 264,712 314,792 571,1274 731,1376 54,34 82,36 107,9 z m 4499,-26 c 8,-21 -10,-139 -40,-256 -88,-349 -293,-831 -464,-1093 -67,-102 -204,-255 -229,-255 -12,0 5,48 137,386 291,746 518,1234 576,1234 8,0 17,-7 20,-16 z M 11281,4481 c 76,-58 101,-98 73,-118 -10,-7 -21,-13 -25,-13 -20,0 -69,55 -97,108 -48,90 -44,92 49,23 z"
         id="path26"
         style="stroke-width:4.1478548" />
      <path
         inkscape:connector-curvature="0"
         d="m 6691,6789 c -208,-60 -489,-83 -924,-77 l -328,5 -30,-59 c -60,-119 -48,-191 38,-225 135,-52 956,26 1291,122 51,15 52,16 52,53 0,90 -14,202 -24,201 -6,-1 -40,-10 -75,-20 z"
         id="path28"
         style="stroke-width:4.1478548" />
      <path
         inkscape:connector-curvature="0"
         d="m 23641,6759 c -201,-49 -559,-74 -963,-65 l -297,6 -25,-43 c -42,-71 -50,-103 -36,-138 25,-59 49,-64 310,-63 237,1 438,16 734,55 174,23 358,57 369,68 9,9 -2,202 -12,200 -3,-1 -40,-10 -80,-20 z"
         id="path30"
         style="stroke-width:4.1478548" />
      <path
         inkscape:connector-curvature="0"
         d="m 17595,6753 c -190,-50 -550,-76 -969,-72 l -320,4 -29,-42 c -40,-56 -48,-132 -19,-161 39,-39 91,-45 342,-39 300,8 668,46 948,98 l 112,21 -1,57 c 0,31 -4,77 -7,102 l -7,45 z"
         id="path32"
         style="stroke-width:4.1478548" />
      <path
         inkscape:connector-curvature="0"
         d="m 19857,6323 c -138,-40 -269,-55 -526,-60 l -243,-5 -19,-42 c -28,-62 -25,-110 9,-136 26,-21 34,-22 157,-17 183,9 511,62 658,107 l 63,20 -4,67 c -2,38 -7,73 -11,78 -4,7 -33,3 -84,-12 z"
         id="path34"
         style="stroke-width:4.1478548" />
    </g>
  </g>
</svg>
