<?xml version="1.0" encoding="UTF-8" standalone="no"?>
<!-- Created with Inkscape (http://www.inkscape.org/) -->

<svg
   xmlns:dc="http://purl.org/dc/elements/1.1/"
   xmlns:cc="http://creativecommons.org/ns#"
   xmlns:rdf="http://www.w3.org/1999/02/22-rdf-syntax-ns#"
   xmlns:svg="http://www.w3.org/2000/svg"
   xmlns="http://www.w3.org/2000/svg"
   xmlns:sodipodi="http://sodipodi.sourceforge.net/DTD/sodipodi-0.dtd"
   xmlns:inkscape="http://www.inkscape.org/namespaces/inkscape"
   width="44.185398mm"
   height="42.37088mm"
   viewBox="0 0 44.185398 42.370881"
   version="1.1"
   id="svg2341"
   inkscape:version="0.92.4 (5da689c313, 2019-01-14)"
   sodipodi:docname="instagram.svg">
  <defs
     id="defs2335" />
  <sodipodi:namedview
     id="base"
     pagecolor="#ffffff"
     bordercolor="#666666"
     borderopacity="1.0"
     inkscape:pageopacity="0.0"
     inkscape:pageshadow="2"
     inkscape:zoom="1.4"
     inkscape:cx="90.285653"
     inkscape:cy="88.142229"
     inkscape:document-units="mm"
     inkscape:current-layer="layer1"
     showgrid="false"
     inkscape:window-width="1366"
     inkscape:window-height="705"
     inkscape:window-x="-8"
     inkscape:window-y="-8"
     inkscape:window-maximized="1"
     fit-margin-top="0"
     fit-margin-left="0"
     fit-margin-right="0"
     fit-margin-bottom="0" />
  <metadata
     id="metadata2338">
    <rdf:RDF>
      <cc:Work
         rdf:about="">
        <dc:format>image/svg+xml</dc:format>
        <dc:type
           rdf:resource="http://purl.org/dc/dcmitype/StillImage" />
        <dc:title></dc:title>
      </cc:Work>
    </rdf:RDF>
  </metadata>
  <g
     inkscape:label="Layer 1"
     inkscape:groupmode="layer"
     id="layer1"
     transform="translate(-23.736921,-129.78342)">
    <path
       inkscape:connector-curvature="0"
       style="fill:#ffffff;stroke-width:0.26458329"
       d="m 45.829544,133.60079 c 5.899049,0 6.597734,0.0259 8.92732,0.12352 2.154021,0.094 3.32382,0.43958 4.10239,0.72954 1.031151,0.38458 1.767188,0.84347 2.540241,1.58481 0.773052,0.74122 1.251883,1.44706 1.652565,2.4359 0.302562,0.74652 0.662461,1.86838 0.760781,3.93388 0.106284,2.23401 0.128743,2.90403 0.128743,8.56086 0,5.65684 -0.02246,6.32685 -0.128743,8.56092 -0.09832,2.06555 -0.458208,3.18725 -0.760781,3.93383 -0.400728,0.98883 -0.879513,1.69462 -1.652565,2.43595 -0.773053,0.74133 -1.50909,1.20054 -2.540241,1.58475 -0.77857,0.29011 -1.948369,0.63551 -4.10239,0.72965 -2.329243,0.10175 -3.027924,0.12352 -8.92732,0.12352 -5.899395,0 -6.598086,-0.0259 -8.927319,-0.12352 -2.154027,-0.0949 -3.323819,-0.43959 -4.102303,-0.72965 -1.031239,-0.38458 -1.767282,-0.84342 -2.540333,-1.58475 -0.773063,-0.74133 -1.251884,-1.44712 -1.652571,-2.43595 -0.302562,-0.74658 -0.662462,-1.86828 -0.760775,-3.93378 -0.106284,-2.23412 -0.128743,-2.90413 -0.128743,-8.56097 0,-5.65683 0.02247,-6.32685 0.128743,-8.56081 0.09832,-2.06555 0.458208,-3.18741 0.760775,-3.93393 0.400727,-0.98884 0.879508,-1.69468 1.652571,-2.4359 0.773051,-0.74134 1.509094,-1.20049 2.540333,-1.58481 0.778484,-0.29011 1.948276,-0.63555 4.102205,-0.72954 2.329683,-0.10176 3.028368,-0.12352 8.927417,-0.12352 m 0,-3.81732 c -6.000073,0 -6.752348,0.0259 -9.108775,0.12715 -2.351603,0.10229 -3.957516,0.46035 -5.36286,0.98475 -1.452794,0.54156 -2.684855,1.26587 -3.913052,2.44357 -1.228203,1.17776 -1.983633,2.35931 -2.54822,3.75244 -0.546169,1.34763 -0.919596,2.88764 -1.026941,5.14267 -0.107506,2.2596 -0.132775,2.98115 -0.132775,8.73479 0,5.75373 0.02502,6.47523 0.132775,8.73483 0.107355,2.25504 0.480721,3.79504 1.026941,5.14272 0.564612,1.39303 1.320022,2.57463 2.54822,3.75238 1.228202,1.17781 2.460263,1.90216 3.913052,2.44363 1.405349,0.52404 3.011267,0.88178 5.36286,0.98475 2.356437,0.10324 3.108707,0.12715 9.108775,0.12715 6.000084,0 6.75243,-0.0259 9.108776,-0.12715 2.351603,-0.10229 3.957515,-0.4614 5.362859,-0.98475 1.452799,-0.54156 2.684855,-1.26582 3.913063,-2.44363 1.228192,-1.17775 1.983623,-2.35925 2.54822,-3.75238 0.546163,-1.34768 0.919595,-2.88768 1.02693,-5.14272 0.107507,-2.2596 0.132928,-2.9811 0.132928,-8.73483 0,-5.75364 -0.02502,-6.47519 -0.133031,-8.73479 -0.107354,-2.25503 -0.480719,-3.79504 -1.026935,-5.14272 -0.564612,-1.39308 -1.320011,-2.57463 -2.548209,-3.75239 -1.228202,-1.17775 -2.460263,-1.90216 -3.913062,-2.44357 -1.405339,-0.52413 -3.011257,-0.88183 -5.362865,-0.9848 -2.35634,-0.10325 -3.108687,-0.12715 -9.108771,-0.12715 z m 0.04441,10.34066 c -6.270184,0 -11.353224,4.87435 -11.353224,10.88716 0,6.01271 5.08304,10.88706 11.353224,10.88706 6.270178,0 11.353213,-4.87435 11.353213,-10.88706 0,-6.01281 -5.083035,-10.88716 -11.353213,-10.88716 z m 0,17.95421 c -4.070097,0 -7.369663,-3.1641 -7.369663,-7.06705 0,-3.90305 3.299566,-7.06715 7.369663,-7.06715 4.070097,0 7.369653,3.1641 7.369653,7.06715 0,3.90295 -3.299556,7.06705 -7.369653,7.06705 z m 14.333989,-18.45868 c 0,1.39299 -1.177476,2.52211 -2.63004,2.52211 -1.452579,0 -2.630131,-1.12912 -2.630131,-2.52211 0,-1.39292 1.177552,-2.52205 2.630131,-2.52205 1.452564,0 2.63004,1.12913 2.63004,2.52205 z"
       id="path353" />
  </g>
</svg>
