<?xml version="1.0" encoding="UTF-8" standalone="no"?>
<svg
   xmlns:dc="http://purl.org/dc/elements/1.1/"
   xmlns:cc="http://creativecommons.org/ns#"
   xmlns:rdf="http://www.w3.org/1999/02/22-rdf-syntax-ns#"
   xmlns:svg="http://www.w3.org/2000/svg"
   xmlns="http://www.w3.org/2000/svg"
   xmlns:sodipodi="http://sodipodi.sourceforge.net/DTD/sodipodi-0.dtd"
   xmlns:inkscape="http://www.inkscape.org/namespaces/inkscape"
   id="svg"
   version="1.1"
   width="302.19568"
   height="133.52348"
   viewBox="0 0 302.19567 133.52348"
   sodipodi:docname="about-us.svg"
   inkscape:version="0.92.4 (5da689c313, 2019-01-14)">
  <metadata
     id="metadata13">
    <rdf:RDF>
      <cc:Work
         rdf:about="">
        <dc:format>image/svg+xml</dc:format>
        <dc:type
           rdf:resource="http://purl.org/dc/dcmitype/StillImage" />
        <dc:title></dc:title>
      </cc:Work>
    </rdf:RDF>
  </metadata>
  <defs
     id="defs11" />
  <sodipodi:namedview
     pagecolor="#ffffff"
     bordercolor="#666666"
     borderopacity="1"
     objecttolerance="10"
     gridtolerance="10"
     guidetolerance="10"
     inkscape:pageopacity="0"
     inkscape:pageshadow="2"
     inkscape:window-width="1366"
     inkscape:window-height="705"
     id="namedview9"
     showgrid="false"
     fit-margin-top="0"
     fit-margin-left="0"
     fit-margin-right="0"
     fit-margin-bottom="0"
     inkscape:zoom="2.0081833"
     inkscape:cx="131.34621"
     inkscape:cy="75.156966"
     inkscape:window-x="-8"
     inkscape:window-y="-8"
     inkscape:window-maximized="1"
     inkscape:current-layer="g876" />
  <g
     id="svgg"
     transform="translate(-55.050356,44.902388)">
    <path
       id="path1"
       d="m 0,56.417 v 56.416 H 200 400 V 56.417 0 H 200 0 V 56.417 M 91.112,17.132 c 1.499,0.808 1.438,0.093 1.502,17.573 l 0.056,15.289 1.136,-1.122 c 2.272,-2.244 3.554,-3.13 6.027,-4.166 1.052,-0.441 1.868,-0.706 2.173,-0.706 0.182,0 0.462,-0.069 0.621,-0.154 1.238,-0.66 6.102,-0.598 9.706,0.124 0.968,0.193 3.934,1.279 4.167,1.525 0.046,0.049 0.383,0.235 0.75,0.414 1.733,0.847 4.42,3.037 6.024,4.909 0.595,0.696 1.215,1.415 1.378,1.599 0.162,0.183 0.513,0.67 0.78,1.083 0.266,0.413 0.541,0.775 0.61,0.806 0.068,0.03 0.125,0.166 0.125,0.302 0,0.136 0.187,0.493 0.416,0.794 0.229,0.3 0.417,0.6 0.417,0.665 0,0.065 0.225,0.572 0.5,1.126 0.275,0.554 0.5,1.138 0.5,1.296 0,0.159 0.053,0.341 0.117,0.406 0.192,0.192 0.711,1.988 0.714,2.47 0.001,0.247 0.066,0.488 0.144,0.536 0.197,0.122 0.423,2.671 0.423,4.766 0,2.094 -0.226,4.644 -0.423,4.765 -0.078,0.048 -0.141,0.289 -0.141,0.536 0.001,0.439 -0.397,1.831 -0.687,2.405 -0.081,0.159 -0.147,0.373 -0.147,0.476 0,0.208 -0.993,2.353 -1.15,2.484 -0.055,0.046 -0.243,0.346 -0.418,0.667 -0.983,1.805 -3.801,5.021 -5.591,6.381 -0.508,0.386 -0.962,0.743 -1.008,0.793 -0.739,0.809 -5.802,3.159 -6.806,3.159 -0.21,0 -0.542,0.086 -0.736,0.19 -1.334,0.714 -10.132,0.702 -10.849,-0.014 -0.096,-0.097 -0.368,-0.176 -0.604,-0.176 -1.569,0 -5.141,-1.965 -7.118,-3.915 l -1.031,-1.017 -0.073,1.341 c -0.175,3.21 -0.88,4.091 -3.275,4.091 -1.42,0 -2.149,-0.329 -2.744,-1.241 l -0.43,-0.659 V 52.785 18.637 l 0.458,-0.638 c 0.856,-1.192 3.084,-1.623 4.487,-0.867 m -39.078,3.802 c 0.869,0.45 2.466,2.924 2.466,3.82 0,0.135 0.075,0.246 0.167,0.246 0.091,0 0.166,0.091 0.166,0.202 0,0.111 0.3,0.824 0.667,1.583 0.367,0.76 0.967,2.003 1.333,2.763 0.367,0.76 0.667,1.472 0.667,1.583 0,0.111 0.075,0.202 0.167,0.202 0.091,0 0.166,0.107 0.166,0.237 0,0.13 0.11,0.449 0.245,0.708 0.249,0.482 1.656,3.469 2.342,4.972 0.209,0.458 0.755,1.621 1.214,2.583 1.437,3.018 2.249,4.761 3.453,7.417 0.207,0.458 0.603,1.321 0.879,1.917 0.276,0.595 0.779,1.683 1.118,2.416 1.005,2.176 1.347,2.906 2.261,4.834 0.478,1.008 1.168,2.47 1.532,3.25 0.364,0.779 0.841,1.78 1.06,2.223 0.218,0.444 0.396,0.913 0.396,1.042 0,0.129 0.075,0.235 0.167,0.235 0.092,0 0.169,0.131 0.172,0.291 0.003,0.161 0.115,0.438 0.25,0.616 0.135,0.177 0.245,0.459 0.245,0.625 0,0.165 0.075,0.301 0.166,0.301 0.092,0 0.167,0.077 0.167,0.17 0,0.094 0.307,0.825 0.683,1.625 0.376,0.8 0.856,1.83 1.067,2.288 0.212,0.459 0.692,1.474 1.067,2.257 0.376,0.782 0.683,1.545 0.683,1.694 0,0.149 0.056,0.297 0.125,0.327 0.069,0.031 0.248,0.318 0.399,0.639 2.018,4.294 2.476,5.313 2.476,5.505 0,0.089 0.075,0.162 0.167,0.162 0.091,0 0.166,0.178 0.166,0.396 0,0.218 0.113,0.49 0.25,0.604 0.138,0.114 0.25,0.296 0.25,0.405 0,0.109 0.158,0.532 0.351,0.938 1.794,3.787 1.859,3.96 1.737,4.609 -0.143,0.761 -0.761,1.71 -1.115,1.712 -0.153,10e-4 -0.309,0.094 -0.346,0.206 -0.245,0.734 -3.949,0.142 -4.252,-0.68 -0.055,-0.15 -0.144,-0.311 -0.197,-0.357 -0.168,-0.145 -1.178,-2.261 -1.178,-2.468 0,-0.109 -0.075,-0.199 -0.166,-0.199 -0.092,0 -0.167,-0.091 -0.167,-0.203 0,-0.112 -0.368,-0.956 -0.818,-1.875 -0.45,-0.92 -0.862,-1.784 -0.916,-1.922 -0.053,-0.137 -0.164,-0.362 -0.246,-0.5 -0.082,-0.137 -0.336,-0.662 -0.564,-1.166 -0.407,-0.898 -0.986,-2.112 -3.193,-6.692 -0.603,-1.252 -1.096,-2.35 -1.096,-2.441 0,-0.347 -0.965,-0.367 -17.043,-0.367 -17.842,0 -17.124,-0.035 -17.124,0.825 0,0.151 -0.062,0.346 -0.138,0.433 -0.076,0.087 -0.392,0.758 -0.703,1.492 -0.311,0.733 -0.624,1.358 -0.695,1.389 -0.072,0.03 -0.131,0.193 -0.131,0.361 0,0.168 -0.106,0.518 -0.235,0.778 -0.292,0.586 -1.077,2.329 -1.3,2.888 -0.314,0.786 -0.587,1.418 -1.043,2.417 -0.252,0.55 -0.519,1.15 -0.595,1.333 -0.367,0.891 -0.738,1.75 -1.114,2.584 -0.227,0.504 -0.507,1.141 -0.623,1.416 -1.09,2.599 -1.825,3.25 -3.667,3.25 -2.347,0 -3.82,-1.811 -2.951,-3.627 0.076,-0.159 0.264,-0.539 0.417,-0.845 C 21.875,84.056 22,83.699 22,83.568 c 0,-0.132 0.071,-0.369 0.159,-0.529 0.087,-0.159 0.282,-0.589 0.433,-0.956 0.487,-1.179 0.545,-1.315 1.064,-2.47 0.281,-0.625 0.511,-1.244 0.511,-1.375 0,-0.131 0.075,-0.238 0.166,-0.238 0.092,0 0.167,-0.144 0.167,-0.32 0,-0.176 0.106,-0.532 0.235,-0.791 0.561,-1.125 1.098,-2.321 1.098,-2.443 0,-0.073 0.195,-0.56 0.433,-1.081 0.238,-0.522 0.542,-1.211 0.675,-1.532 0.133,-0.321 0.313,-0.713 0.4,-0.872 0.088,-0.16 0.159,-0.361 0.159,-0.449 0,-0.158 1.187,-2.835 1.501,-3.385 0.091,-0.159 0.166,-0.366 0.166,-0.459 0,-0.093 0.187,-0.558 0.416,-1.033 C 29.812,65.16 30,64.715 30,64.647 c 0,-0.068 0.23,-0.635 0.511,-1.26 0.28,-0.626 0.57,-1.287 0.644,-1.47 0.309,-0.77 1.178,-2.75 1.531,-3.49 C 32.859,58.066 33,57.709 33,57.635 c 0,-0.075 0.188,-0.525 0.417,-1 0.229,-0.475 0.416,-0.92 0.416,-0.988 0,-0.068 0.225,-0.61 0.5,-1.204 0.275,-0.594 0.5,-1.162 0.5,-1.262 C 34.833,53.082 34.908,53 35,53 c 0.092,0 0.167,-0.173 0.167,-0.383 0,-0.211 0.064,-0.455 0.143,-0.542 0.078,-0.087 0.386,-0.758 0.683,-1.492 0.298,-0.733 0.608,-1.404 0.691,-1.491 0.082,-0.087 0.149,-0.254 0.149,-0.371 0,-0.116 0.196,-0.645 0.434,-1.175 0.239,-0.529 0.495,-1.113 0.569,-1.296 0.074,-0.183 0.373,-0.858 0.664,-1.5 0.291,-0.642 0.605,-1.354 0.699,-1.583 0.093,-0.229 0.264,-0.642 0.379,-0.917 0.115,-0.275 0.302,-0.725 0.416,-1 0.361,-0.869 0.62,-1.487 0.805,-1.917 0.098,-0.229 0.296,-0.698 0.44,-1.041 0.143,-0.344 0.368,-0.869 0.499,-1.167 0.131,-0.298 0.399,-0.917 0.595,-1.375 0.197,-0.458 0.47,-1.095 0.608,-1.416 0.571,-1.33 0.689,-1.607 0.887,-2.084 0.493,-1.188 0.652,-1.555 1.084,-2.5 0.251,-0.55 0.519,-1.15 0.595,-1.333 0.075,-0.184 0.264,-0.634 0.418,-1 0.155,-0.367 0.39,-0.929 0.523,-1.25 0.133,-0.321 0.304,-0.734 0.38,-0.917 0.452,-1.084 1.612,-3.371 1.818,-3.583 0.918,-0.945 2.37,-1.259 3.388,-0.733 m 238.216,0.081 c 0.899,0.235 1.295,0.525 1.725,1.263 0.25,0.429 0.285,2.458 0.38,22.472 0.069,14.252 0.169,22.47 0.286,23.333 0.214,1.581 0.565,3.179 0.737,3.35 0.067,0.067 0.124,0.354 0.127,0.636 0.003,0.283 0.116,0.66 0.25,0.838 0.135,0.178 0.245,0.445 0.245,0.594 0,0.243 0.305,0.959 1.134,2.665 0.791,1.628 5.108,4.728 8.116,5.829 1.649,0.603 1.815,0.641 4.75,1.084 2.518,0.379 7.292,0.229 8.206,-0.258 0.159,-0.085 0.501,-0.154 0.76,-0.154 0.259,0 0.616,-0.11 0.794,-0.245 0.178,-0.135 0.456,-0.247 0.617,-0.25 0.162,-0.003 0.424,-0.074 0.584,-0.159 0.159,-0.084 0.589,-0.293 0.956,-0.464 1.769,-0.825 4.122,-2.795 5.332,-4.466 0.266,-0.366 0.526,-0.704 0.577,-0.75 0.052,-0.046 0.241,-0.364 0.422,-0.708 0.18,-0.344 0.386,-0.625 0.457,-0.625 0.07,0 0.128,-0.093 0.128,-0.206 0,-0.113 0.179,-0.582 0.397,-1.042 0.513,-1.079 0.853,-1.984 1.096,-2.919 0.107,-0.412 0.3,-1.125 0.43,-1.583 0.427,-1.511 0.445,-2.323 0.553,-24.417 l 0.108,-21.916 0.368,-0.686 c 0.384,-0.715 0.914,-1.055 2.17,-1.388 1.016,-0.27 3.212,0.378 3.212,0.947 0,0.116 0.068,0.21 0.153,0.21 0.765,0 0.779,45.403 0.014,46.832 -0.092,0.172 -0.167,0.567 -0.167,0.877 0,0.311 -0.104,0.897 -0.231,1.303 -0.127,0.406 -0.323,1.075 -0.436,1.488 -0.48,1.753 -1.871,5.003 -2.199,5.139 -0.074,0.03 -0.134,0.167 -0.134,0.303 0,0.136 -0.188,0.493 -0.417,0.793 -0.229,0.301 -0.417,0.615 -0.417,0.699 0,0.084 -0.168,0.34 -0.375,0.569 -0.206,0.229 -0.646,0.754 -0.978,1.167 -1.376,1.711 -4.734,4.663 -5.304,4.663 -0.097,0 -0.176,0.058 -0.176,0.129 0,0.071 -0.244,0.25 -0.542,0.397 -0.824,0.409 -2.5,1.184 -2.875,1.33 -0.183,0.071 -0.623,0.245 -0.978,0.387 -0.355,0.141 -0.847,0.257 -1.092,0.257 -0.245,0 -0.524,0.078 -0.619,0.173 -0.486,0.486 -5.25,0.883 -8.977,0.747 -2.667,-0.097 -3.656,-0.229 -5.106,-0.68 -0.425,-0.132 -0.923,-0.24 -1.106,-0.24 -0.183,0 -0.548,-0.112 -0.811,-0.249 -0.263,-0.137 -0.604,-0.249 -0.759,-0.25 -0.155,0 -0.328,-0.076 -0.385,-0.167 -0.057,-0.092 -0.243,-0.167 -0.413,-0.167 -0.335,0 -1.385,-0.504 -1.476,-0.708 -0.03,-0.069 -0.163,-0.125 -0.294,-0.125 -0.335,0 -2.647,-1.457 -3.792,-2.389 -2.79,-2.273 -5.425,-5.62 -6.78,-8.611 -0.187,-0.413 -0.397,-0.863 -0.467,-1 -0.07,-0.138 -0.265,-0.7 -0.434,-1.25 -0.169,-0.55 -0.366,-1.15 -0.437,-1.334 -0.348,-0.897 -0.739,-2.876 -1.038,-5.25 -0.374,-2.979 -0.28,-43.761 0.104,-44.532 0.36,-0.724 0.894,-1.108 1.936,-1.394 0.812,-0.222 0.829,-0.221 2.091,0.108 m -57.091,5.527 c 0.678,0.153 1.084,0.372 1.545,0.831 l 0.626,0.624 0.043,7.793 0.044,7.793 3.666,0.101 c 5.911,0.162 6.513,0.464 6.491,3.245 -0.021,2.517 -0.558,2.776 -5.991,2.896 L 235.417,49.917 235.37,61 c -0.03,7.297 0.017,11.653 0.139,12.75 0.101,0.917 0.225,2.099 0.274,2.628 0.05,0.528 0.157,1.001 0.237,1.051 0.081,0.05 0.147,0.234 0.147,0.409 0,0.174 0.123,0.601 0.273,0.948 0.15,0.347 0.354,0.818 0.453,1.047 0.2,0.463 1.115,1.719 1.317,1.807 0.071,0.031 0.222,0.144 0.335,0.252 0.415,0.396 1.119,0.775 1.439,0.775 0.181,0 0.376,0.075 0.433,0.166 0.056,0.092 0.731,0.167 1.5,0.167 0.768,0 1.443,-0.075 1.5,-0.167 0.056,-0.091 0.392,-0.166 0.746,-0.166 0.354,0 0.856,-0.105 1.115,-0.234 1.156,-0.571 3.227,-0.83 3.472,-0.433 0.057,0.092 0.23,0.169 0.385,0.172 1.348,0.027 2.097,2.95 1.074,4.19 -0.61,0.74 -0.839,0.921 -1.626,1.282 -0.999,0.46 -1.271,0.555 -2,0.701 -0.366,0.073 -0.966,0.21 -1.333,0.305 -2.511,0.645 -6.767,0.566 -7.472,-0.139 -0.098,-0.098 -0.309,-0.178 -0.468,-0.178 -0.588,0 -3.067,-1.604 -3.695,-2.39 -0.231,-0.29 -0.616,-0.751 -0.856,-1.026 -0.418,-0.48 -2.126,-3.808 -2.309,-4.5 -0.049,-0.184 -0.245,-0.745 -0.436,-1.248 -0.191,-0.503 -0.347,-1.117 -0.347,-1.364 0,-0.248 -0.086,-0.661 -0.19,-0.919 -0.368,-0.911 -0.51,-4.757 -0.584,-15.844 l -0.075,-11.209 h -1.501 c -2.677,0 -3.885,-0.967 -3.853,-3.083 0.033,-2.125 0.983,-2.835 4.057,-3.028 l 1.272,-0.079 0.086,-6.363 c 0.048,-3.5 0.083,-6.663 0.079,-7.03 -0.025,-2.069 0.751,-3.58 1.842,-3.586 0.247,-0.001 0.562,-0.075 0.7,-0.164 0.329,-0.213 0.563,-0.207 1.659,0.042 M 50.667,31.026 c 0,0.226 -0.11,0.556 -0.245,0.734 -0.135,0.178 -0.247,0.455 -0.25,0.615 -0.003,0.16 -0.08,0.292 -0.172,0.292 -0.092,0 -0.167,0.144 -0.167,0.319 0,0.176 -0.105,0.533 -0.234,0.792 -0.129,0.26 -0.327,0.697 -0.44,0.972 -0.113,0.275 -0.3,0.725 -0.415,1 -0.115,0.275 -0.287,0.688 -0.383,0.917 -0.095,0.229 -0.221,0.585 -0.278,0.791 -0.058,0.207 -0.175,0.375 -0.261,0.375 -0.085,0 -0.155,0.151 -0.155,0.336 0,0.185 -0.072,0.466 -0.159,0.625 -0.087,0.159 -0.281,0.589 -0.431,0.956 -0.149,0.367 -0.34,0.797 -0.424,0.956 -0.084,0.159 -0.153,0.394 -0.153,0.521 0,0.128 -0.113,0.326 -0.25,0.44 -0.138,0.114 -0.25,0.376 -0.25,0.583 0,0.207 -0.113,0.469 -0.25,0.583 -0.138,0.114 -0.25,0.386 -0.25,0.604 0,0.218 -0.075,0.396 -0.167,0.396 -0.091,0 -0.166,0.144 -0.166,0.32 0,0.176 -0.106,0.532 -0.235,0.792 -0.129,0.259 -0.327,0.697 -0.44,0.972 -0.316,0.769 -0.693,1.635 -0.85,1.956 -0.078,0.159 -0.142,0.393 -0.142,0.521 0,0.128 -0.113,0.325 -0.25,0.439 -0.138,0.114 -0.25,0.345 -0.25,0.512 0,0.167 -0.187,0.657 -0.417,1.088 -0.229,0.431 -0.416,0.918 -0.416,1.082 0,0.164 -0.07,0.341 -0.154,0.394 -0.085,0.052 -0.203,0.319 -0.263,0.593 C 41.689,52.776 41.571,53 41.487,53 c -0.085,0 -0.154,0.139 -0.154,0.309 0,0.169 -0.187,0.661 -0.416,1.092 -0.229,0.431 -0.417,0.92 -0.417,1.087 0,0.168 -0.113,0.398 -0.25,0.512 C 40.112,56.114 40,56.386 40,56.604 40,56.822 39.925,57 39.833,57 c -0.091,0 -0.166,0.144 -0.166,0.32 0,0.176 -0.108,0.532 -0.24,0.791 -0.513,1.011 -1.094,2.409 -1.094,2.634 0,0.129 -0.069,0.278 -0.154,0.33 -0.084,0.053 -0.203,0.32 -0.263,0.594 -0.06,0.274 -0.178,0.498 -0.263,0.498 -0.084,0 -0.153,0.183 -0.153,0.406 0,0.224 -0.075,0.454 -0.167,0.51 -0.091,0.057 -0.166,0.249 -0.166,0.427 0,0.317 0.263,0.324 13.958,0.354 16.549,0.036 15.321,0.077 14.91,-0.497 -0.112,-0.156 -0.247,-0.396 -0.299,-0.534 -0.053,-0.137 -0.277,-0.605 -0.499,-1.04 -0.222,-0.435 -0.404,-0.904 -0.404,-1.042 0,-0.138 -0.075,-0.251 -0.166,-0.251 -0.092,0 -0.167,-0.12 -0.167,-0.266 0,-0.146 -0.104,-0.465 -0.23,-0.708 C 64.143,59.282 63.852,58.671 63.624,58.167 62.605,55.916 62.286,55.234 62.147,55 62.065,54.862 61.955,54.637 61.903,54.5 61.851,54.362 61.739,54.12 61.655,53.961 61.57,53.801 61.5,53.567 61.5,53.439 61.5,53.312 61.387,53.114 61.25,53 61.112,52.886 61,52.652 61,52.48 c 0,-0.173 -0.075,-0.313 -0.167,-0.313 -0.091,0 -0.166,-0.107 -0.166,-0.237 0,-0.13 -0.108,-0.449 -0.239,-0.708 -0.132,-0.26 -0.423,-0.885 -0.646,-1.389 -0.224,-0.504 -0.797,-1.741 -1.274,-2.75 -0.824,-1.744 -1.075,-2.301 -1.466,-3.25 -0.226,-0.548 -1.486,-3.21 -1.983,-4.189 -0.216,-0.425 -0.392,-0.894 -0.392,-1.042 0,-0.148 -0.075,-0.269 -0.167,-0.269 -0.092,0 -0.168,-0.093 -0.17,-0.208 C 54.328,38.01 54.104,37.467 53.833,36.917 53.562,36.367 53.339,35.823 53.337,35.708 53.335,35.594 53.258,35.5 53.167,35.5 53.075,35.5 53,35.38 53,35.234 c 0,-0.146 -0.123,-0.502 -0.274,-0.792 -0.499,-0.958 -0.559,-1.102 -0.559,-1.336 0,-0.128 -0.113,-0.325 -0.25,-0.439 -0.138,-0.114 -0.25,-0.349 -0.25,-0.521 0,-0.172 -0.075,-0.313 -0.167,-0.313 -0.092,0 -0.167,-0.138 -0.167,-0.307 0,-0.169 -0.15,-0.443 -0.333,-0.609 -0.325,-0.294 -0.333,-0.291 -0.333,0.109 m 106.916,12.486 c 1.009,0.099 1.964,0.249 2.123,0.334 0.159,0.085 0.497,0.156 0.75,0.159 0.464,0.006 2.125,0.52 2.325,0.72 0.059,0.06 0.274,0.108 0.476,0.108 0.203,0 0.462,0.113 0.576,0.25 0.114,0.138 0.3,0.25 0.412,0.25 1.277,0 6.255,3.894 8.31,6.5 0.469,0.596 0.897,1.121 0.949,1.167 0.189,0.164 1.163,1.842 1.163,2.003 0,0.09 0.075,0.164 0.166,0.164 0.092,0 0.167,0.093 0.167,0.208 0,0.115 0.236,0.696 0.525,1.292 0.289,0.595 0.579,1.233 0.644,1.416 0.446,1.252 0.666,2.061 0.665,2.449 0,0.247 0.065,0.489 0.146,0.539 0.62,0.383 0.544,7.498 -0.111,10.346 -0.441,1.915 -2.521,6.75 -2.903,6.75 -0.073,0 -0.133,0.085 -0.133,0.189 0,0.571 -3.638,4.571 -5.65,6.211 -1.722,1.403 -4.642,2.955 -6.766,3.596 -0.367,0.11 -0.93,0.284 -1.25,0.385 -2.315,0.733 -7.033,0.777 -9.75,0.092 -0.367,-0.093 -0.892,-0.205 -1.167,-0.249 -0.275,-0.044 -0.65,-0.145 -0.833,-0.224 -0.184,-0.08 -0.634,-0.266 -1,-0.415 -0.367,-0.149 -1.043,-0.454 -1.503,-0.678 -0.46,-0.224 -0.896,-0.407 -0.969,-0.407 -0.074,0 -0.38,-0.188 -0.68,-0.417 -0.301,-0.229 -0.6,-0.417 -0.665,-0.417 -0.932,0 -7.433,-6.551 -7.433,-7.491 0,-0.096 -0.057,-0.175 -0.126,-0.175 -0.07,0 -0.452,-0.657 -0.849,-1.459 -0.398,-0.802 -0.792,-1.589 -0.875,-1.749 -0.532,-1.017 -1.218,-3.547 -1.528,-5.626 -0.322,-2.171 -0.158,-8.022 0.233,-8.263 0.08,-0.049 0.145,-0.264 0.145,-0.477 0,-0.43 0.416,-1.889 0.77,-2.702 0.127,-0.288 0.23,-0.607 0.23,-0.708 0,-0.101 0.075,-0.183 0.166,-0.183 0.092,0 0.167,-0.183 0.167,-0.407 0,-0.224 0.07,-0.45 0.156,-0.503 0.086,-0.053 0.362,-0.519 0.615,-1.034 0.462,-0.945 1.828,-2.925 2.089,-3.028 0.077,-0.031 0.14,-0.135 0.14,-0.232 0,-0.469 3.642,-3.862 4.97,-4.629 0.238,-0.138 0.562,-0.363 0.721,-0.5 0.284,-0.246 2.075,-1.176 3.059,-1.589 1.847,-0.774 2.791,-1.078 3.353,-1.078 0.279,0 0.564,-0.056 0.631,-0.125 0.392,-0.396 4.787,-0.613 7.349,-0.363 M 360.5,43.579 c 3.388,0.558 5.445,1.646 7.702,4.074 2.385,2.564 2.362,4.134 -0.082,5.496 -0.669,0.373 -2.62,0.51 -2.62,0.184 0,-0.091 -0.111,-0.166 -0.247,-0.166 -0.136,0 -0.605,-0.348 -1.042,-0.773 -1.016,-0.987 -3.075,-2.348 -3.857,-2.548 -2.907,-0.743 -4.929,-0.342 -6.083,1.207 -1.462,1.961 -0.505,4.952 1.902,5.95 0.271,0.112 0.494,0.262 0.494,0.332 0,0.071 0.187,0.176 0.416,0.233 0.23,0.058 0.417,0.179 0.417,0.269 0,0.089 0.093,0.163 0.206,0.163 0.113,0 0.619,0.198 1.125,0.439 0.505,0.242 1.144,0.534 1.419,0.65 0.275,0.116 0.95,0.414 1.5,0.662 0.55,0.248 1.15,0.512 1.333,0.585 0.366,0.147 3.183,1.444 3.584,1.649 1.951,1.001 3.276,2.033 4.75,3.7 1.015,1.148 2.115,3.182 2.468,4.565 0.241,0.945 0.343,6.589 0.122,6.809 -0.095,0.096 -0.174,0.382 -0.174,0.635 0,0.254 -0.123,0.745 -0.273,1.092 -0.15,0.347 -0.348,0.818 -0.44,1.047 -0.267,0.668 -0.696,1.577 -0.787,1.667 -0.046,0.046 -0.345,0.477 -0.666,0.958 -0.321,0.481 -0.64,0.875 -0.709,0.875 -0.068,0 -0.125,0.098 -0.125,0.217 0,0.249 -0.947,1.18 -1.916,1.883 -0.367,0.266 -0.854,0.652 -1.082,0.859 -0.228,0.206 -0.509,0.375 -0.625,0.375 -0.115,0 -0.21,0.056 -0.211,0.125 -0.002,0.191 -0.985,0.708 -1.346,0.708 -0.176,0 -0.32,0.069 -0.32,0.153 0,0.085 -0.224,0.203 -0.498,0.263 -0.274,0.06 -0.541,0.179 -0.593,0.263 -0.052,0.085 -0.301,0.154 -0.552,0.154 -0.251,0 -0.53,0.073 -0.619,0.162 -0.772,0.773 -7.457,0.78 -8.896,0.01 -0.176,-0.095 -0.476,-0.172 -0.666,-0.172 -0.191,0 -0.477,-0.071 -0.636,-0.158 -0.159,-0.087 -0.59,-0.283 -0.956,-0.435 -1.147,-0.475 -1.832,-0.819 -1.889,-0.948 -0.031,-0.069 -0.158,-0.125 -0.284,-0.125 -1.259,0 -5.406,-4.296 -6.627,-6.865 -2.037,-4.287 3.214,-6.654 5.834,-2.629 1.574,2.416 2.905,3.751 4.585,4.596 0.484,0.244 1.08,0.545 1.323,0.67 0.243,0.125 0.697,0.228 1.008,0.228 0.312,0 0.646,0.08 0.744,0.177 0.502,0.503 4.563,-0.022 6.222,-0.803 3.385,-1.593 5.9,-6.103 5.028,-9.013 -0.107,-0.358 -0.194,-0.808 -0.194,-1.001 0,-0.959 -2.465,-4.36 -3.159,-4.36 -0.083,0 -0.251,-0.094 -0.374,-0.209 -0.213,-0.198 -0.995,-0.66 -1.717,-1.013 -0.184,-0.09 -0.446,-0.225 -0.584,-0.301 -0.317,-0.175 -1.289,-0.639 -3.5,-1.669 -0.962,-0.449 -1.88,-0.89 -2.039,-0.979 -0.159,-0.089 -0.397,-0.163 -0.528,-0.163 -0.132,0 -0.489,-0.125 -0.794,-0.278 -1.011,-0.506 -1.132,-0.555 -1.384,-0.555 -0.273,0 -1.971,-0.99 -2.06,-1.202 -0.031,-0.072 -0.166,-0.131 -0.3,-0.131 -0.326,0 -2.728,-2.414 -2.728,-2.742 0,-0.142 -0.056,-0.259 -0.125,-0.259 -0.182,-0.002 -0.708,-0.977 -0.708,-1.313 0,-0.157 -0.094,-0.38 -0.209,-0.495 -0.148,-0.149 -0.208,-0.944 -0.208,-2.775 0,-1.831 0.06,-2.626 0.208,-2.775 0.115,-0.114 0.209,-0.374 0.209,-0.578 0,-0.4 0.504,-1.394 0.708,-1.396 0.069,0 0.125,-0.108 0.125,-0.24 0,-0.876 4.866,-4.594 6.012,-4.594 0.179,0 0.456,-0.069 0.615,-0.153 0.875,-0.464 3.416,-0.591 5.373,-0.268 m -142.091,0.415 c 0.279,0.155 0.676,0.531 0.883,0.835 l 0.375,0.554 v 20.814 c 0,19.48 -0.019,20.844 -0.29,21.267 -1.453,2.271 -5.877,1.675 -5.877,-0.792 0,-0.267 -0.075,-0.532 -0.167,-0.589 -0.091,-0.056 -0.166,-0.442 -0.166,-0.857 0,-0.895 -0.02,-0.891 -1.273,0.237 -1.262,1.136 -1.349,1.204 -1.54,1.204 -0.088,0 -0.185,0.063 -0.215,0.141 -0.093,0.237 -2.67,1.525 -3.05,1.525 -0.196,0 -0.432,0.077 -0.526,0.171 -0.742,0.742 -6.739,0.775 -9.146,0.051 -0.459,-0.138 -1.096,-0.328 -1.417,-0.422 -2.079,-0.61 -4.757,-2.256 -6.5,-3.995 -3.526,-3.518 -4.748,-5.196 -5.497,-7.555 -0.117,-0.366 -0.291,-0.854 -0.387,-1.083 -0.096,-0.229 -0.234,-0.867 -0.305,-1.417 -0.072,-0.55 -0.21,-1.6 -0.308,-2.333 -0.293,-2.192 -0.154,-26.212 0.154,-26.763 0.519,-0.926 1.353,-1.32 2.797,-1.32 1.401,0 2.713,0.438 2.713,0.906 0,0.128 0.073,0.258 0.163,0.288 0.418,0.142 0.504,2.312 0.517,13.12 0.016,12.77 0.147,15.544 0.805,17.102 0.078,0.184 0.271,0.671 0.429,1.084 0.311,0.809 0.751,1.699 0.907,1.833 0.257,0.221 1.012,1.332 1.012,1.489 0,0.098 0.078,0.178 0.174,0.178 0.096,0 0.377,0.191 0.625,0.426 0.248,0.234 0.657,0.55 0.909,0.702 0.252,0.152 0.459,0.336 0.459,0.408 0,0.072 0.092,0.13 0.206,0.13 0.113,0 0.582,0.178 1.041,0.394 2.792,1.315 9.538,1.721 10.62,0.639 0.11,-0.11 0.324,-0.199 0.476,-0.199 0.869,0 3.839,-2.03 4.823,-3.296 1.405,-1.808 1.238,0.3 1.348,-17.034 0.098,-15.538 0.12,-16.148 0.617,-17.125 0.543,-1.068 3.229,-1.487 4.611,-0.718 m -111.927,5.413 c -0.041,0.041 -0.737,0.157 -1.547,0.257 -1.491,0.186 -2.707,0.469 -3.768,0.879 -0.919,0.355 -2.9,1.355 -3.084,1.556 -0.091,0.101 -0.429,0.356 -0.75,0.567 -1.251,0.825 -3.833,3.627 -3.833,4.16 0,0.096 -0.075,0.174 -0.167,0.174 -0.091,0 -0.166,0.103 -0.166,0.23 0,0.126 -0.113,0.323 -0.25,0.437 -0.411,0.341 -0.372,17.312 0.041,18.057 0.161,0.289 0.348,0.551 0.417,0.582 0.069,0.03 0.125,0.129 0.125,0.219 0,0.386 2.912,3.642 3.257,3.642 0.063,0 0.473,0.262 0.91,0.583 0.437,0.321 0.882,0.583 0.99,0.583 0.108,0 0.531,0.188 0.942,0.417 0.41,0.229 0.898,0.417 1.085,0.417 0.186,0 0.502,0.09 0.702,0.201 0.842,0.465 8.276,0.87 8.673,0.473 0.096,-0.096 0.366,-0.174 0.599,-0.174 0.942,0.002 4.217,-1.419 5.224,-2.266 0.262,-0.221 0.546,-0.401 0.63,-0.401 0.509,0 3.911,-3.825 4.335,-4.875 0.102,-0.252 0.253,-0.458 0.336,-0.458 0.083,0 0.15,-0.115 0.15,-0.256 0,-0.14 0.179,-0.609 0.396,-1.042 0.218,-0.432 0.449,-1.029 0.513,-1.325 0.064,-0.297 0.186,-0.583 0.271,-0.635 0.084,-0.053 0.154,-0.376 0.154,-0.719 0,-0.343 0.079,-0.703 0.176,-0.8 0.403,-0.403 0.023,-7.713 -0.462,-8.89 -0.095,-0.229 -0.305,-0.829 -0.467,-1.333 -0.161,-0.504 -0.358,-0.988 -0.437,-1.075 -0.079,-0.087 -0.144,-0.294 -0.144,-0.459 0,-0.165 -0.058,-0.3 -0.128,-0.3 -0.071,0 -0.274,-0.281 -0.451,-0.625 -0.516,-1.002 -1.435,-2.215 -2.233,-2.946 -0.407,-0.373 -0.822,-0.758 -0.922,-0.855 -0.1,-0.096 -0.426,-0.319 -0.724,-0.494 -0.298,-0.175 -0.542,-0.368 -0.542,-0.429 0,-0.062 -0.131,-0.156 -0.291,-0.21 -0.284,-0.095 -0.874,-0.439 -1.042,-0.607 -0.129,-0.129 -1.837,-0.931 -2.583,-1.213 -1.668,-0.63 -5.65,-1.332 -5.935,-1.047 M 153,49.614 c -0.963,0.119 -1.922,0.293 -2.133,0.385 -0.21,0.092 -0.523,0.168 -0.695,0.168 -0.171,0 -0.524,0.105 -0.783,0.233 -0.26,0.128 -0.81,0.399 -1.222,0.602 -1.491,0.734 -1.928,1.001 -2.584,1.575 -0.366,0.321 -0.719,0.585 -0.783,0.586 -0.156,0.005 -1.194,1.073 -1.945,2.004 -0.333,0.412 -0.646,0.787 -0.697,0.833 -0.218,0.198 -1.111,1.639 -1.393,2.25 -0.17,0.367 -0.449,0.962 -0.62,1.323 -0.172,0.361 -0.312,0.797 -0.312,0.969 0,0.172 -0.082,0.468 -0.184,0.657 -0.306,0.572 -0.52,2.106 -0.6,4.301 -0.071,1.952 0.017,2.812 0.468,4.583 0.093,0.367 0.209,0.855 0.258,1.084 0.146,0.684 1.387,3.377 1.6,3.472 0.069,0.03 0.125,0.125 0.125,0.21 0,0.782 3.504,4.571 5.25,5.677 2.886,1.827 4.725,2.357 8.167,2.354 3.701,-0.004 6.287,-0.741 9.367,-2.67 0.477,-0.299 0.945,-0.543 1.041,-0.543 0.096,0 0.175,-0.064 0.175,-0.141 0,-0.077 0.375,-0.396 0.833,-0.708 0.458,-0.313 0.833,-0.624 0.833,-0.693 0.001,-0.069 0.094,-0.127 0.209,-0.13 0.244,-0.006 0.597,-0.467 1.226,-1.597 0.736,-1.325 0.913,-1.736 1.315,-3.065 0.153,-0.504 0.352,-1.141 0.443,-1.416 0.752,-2.281 0.727,-10.229 -0.034,-10.992 -0.087,-0.087 -0.158,-0.317 -0.158,-0.51 0,-0.55 -1.549,-3.473 -2.443,-4.608 C 166.825,54.665 165.235,53 165.042,53 c -0.069,-10e-4 -0.388,-0.227 -0.709,-0.503 -0.577,-0.496 -1.042,-0.775 -2.5,-1.497 -1.675,-0.829 -1.816,-0.872 -4.083,-1.241 -2.16,-0.352 -2.903,-0.375 -4.75,-0.145"
       style="fill:none;fill-rule:evenodd;stroke:none"
       inkscape:connector-curvature="0" />
    <g
       id="g852">
      <g
         id="g860">
        <path
           style="fill:#848484;fill-rule:evenodd;stroke:none"
           inkscape:connector-curvature="0"
           id="path4"
           d="m 86.248,52.833 c 0,18.288 0.02,25.769 0.044,16.625 0.023,-9.143 0.023,-24.106 0,-33.25 -0.024,-9.143 -0.044,-1.662 -0.044,16.625 M 286.081,42.25 c 0,10.358 0.02,14.571 0.044,9.362 0.024,-5.209 0.024,-13.684 0,-18.833 -0.024,-5.149 -0.044,-0.887 -0.044,9.471 m 43.5,0.917 c 0,10.862 0.02,15.306 0.044,9.875 0.024,-5.432 0.024,-14.319 0,-19.75 -0.024,-5.432 -0.044,-0.988 -0.044,9.875 M 92.406,30.75 c -0.001,2.292 0.023,3.252 0.052,2.135 0.029,-1.118 0.029,-2.993 0,-4.167 -0.029,-1.174 -0.052,-0.26 -0.052,2.032 m 142.837,5.5 c 0,4.033 0.022,5.659 0.049,3.614 0.026,-2.046 0.026,-5.346 -0.001,-7.334 -0.026,-1.987 -0.048,-0.313 -0.048,3.72 m -80.788,7.37 c 0.295,0.037 0.82,0.038 1.166,0.002 0.346,-0.036 0.104,-0.067 -0.538,-0.067 -0.641,-10e-4 -0.924,0.028 -0.628,0.065 m 203.589,0 c 0.253,0.038 0.628,0.037 0.833,-0.003 0.205,-0.039 -0.002,-0.071 -0.46,-0.069 -0.459,10e-4 -0.626,0.033 -0.373,0.072 M 189.079,57.917 c 0,6.325 0.021,8.888 0.046,5.696 0.025,-3.192 0.025,-8.367 0,-11.5 -0.025,-3.133 -0.046,-0.521 -0.046,5.804 m 30.502,8.416 c 0,10.863 0.02,15.307 0.044,9.875 0.024,-5.431 0.024,-14.318 0,-19.75 -0.024,-5.431 -0.044,-0.987 -0.044,9.875 M 106.875,49.282 c 0.16,0.041 0.423,0.041 0.583,0 0.161,-0.042 0.029,-0.077 -0.291,-0.077 -0.321,0 -0.452,0.035 -0.292,0.077 m 32.283,0.843 -0.575,0.625 0.625,-0.574 c 0.582,-0.535 0.702,-0.676 0.575,-0.676 -0.028,0 -0.309,0.281 -0.625,0.625 m 96.087,11.042 c 0,6.187 0.021,8.718 0.047,5.625 0.025,-3.094 0.025,-8.157 0,-11.25 -0.026,-3.094 -0.047,-0.563 -0.047,5.625 M 95.824,53.625 95.25,54.25 95.875,53.676 C 96.457,53.141 96.577,53 96.449,53 c -0.027,0 -0.309,0.281 -0.625,0.625 m 190.226,9.208 c 0,0.504 0.031,0.711 0.069,0.459 0.039,-0.252 0.039,-0.665 0,-0.917 -0.038,-0.252 -0.069,-0.046 -0.069,0.458 M 177.209,64.25 c 0.002,0.367 0.036,0.497 0.076,0.29 0.039,-0.208 0.038,-0.508 -0.004,-0.667 -0.042,-0.159 -0.074,0.01 -0.072,0.377 m 158.339,0.333 c 10e-4,0.459 0.033,0.626 0.072,0.373 0.038,-0.253 0.037,-0.628 -0.003,-0.833 -0.039,-0.205 -0.071,0.002 -0.069,0.46 m -202.843,0.25 c 0,0.321 0.035,0.452 0.077,0.292 0.041,-0.16 0.041,-0.423 0,-0.583 -0.042,-0.161 -0.077,-0.03 -0.077,0.291 m -9.482,1.5 c 0,0.688 0.029,0.969 0.065,0.625 0.036,-0.343 0.036,-0.906 0,-1.25 -0.036,-0.343 -0.065,-0.062 -0.065,0.625 m 5.997,0.334 c 0,0.595 0.03,0.839 0.067,0.541 0.037,-0.298 0.037,-0.785 0,-1.083 -0.037,-0.298 -0.067,-0.054 -0.067,0.542 m -85.916,2.958 c 4.614,0.025 12.114,0.025 16.667,0 4.553,-0.025 0.779,-0.045 -8.388,-0.045 -9.166,0 -12.892,0.02 -8.279,0.045 m 139.738,1.292 c 0.002,0.366 0.036,0.497 0.076,0.289 0.04,-0.207 0.038,-0.507 -0.003,-0.666 -0.042,-0.16 -0.075,0.01 -0.073,0.377 m -39.292,7.416 c 0.358,0.367 0.688,0.667 0.734,0.667 0.046,0 -0.209,-0.3 -0.567,-0.667 -0.358,-0.366 -0.689,-0.666 -0.735,-0.666 -0.045,0 0.21,0.3 0.568,0.666 m 180.156,0.542 -0.489,0.542 0.541,-0.49 c 0.505,-0.456 0.619,-0.594 0.49,-0.594 -0.029,0 -0.273,0.244 -0.542,0.542 m -110.8,5.237 c 0.104,0.076 0.23,0.288 0.28,0.471 0.073,0.263 0.086,0.248 0.061,-0.07 -0.016,-0.222 -0.143,-0.434 -0.28,-0.471 -0.166,-0.045 -0.186,-0.021 -0.061,0.07 m -108.064,4.836 c 0.16,0.042 0.423,0.042 0.583,0 0.16,-0.042 0.029,-0.076 -0.292,-0.076 -0.32,0 -0.452,0.034 -0.291,0.076 m 48.419,0.006 c 0.3,0.037 0.75,0.036 1,-0.002 0.251,-0.038 0.006,-0.068 -0.544,-0.067 -0.55,10e-4 -0.755,0.032 -0.456,0.069 m 2.747,-0.006 c 0.161,0.042 0.423,0.042 0.584,0 0.16,-0.042 0.029,-0.076 -0.292,-0.076 -0.321,0 -0.452,0.034 -0.292,0.076 m 157.667,0.167 c 0.16,0.042 0.423,0.042 0.583,0 0.161,-0.042 0.029,-0.076 -0.291,-0.076 -0.321,0 -0.452,0.034 -0.292,0.076" />
        <g
           id="g876">
          <g
             id="g892">
            <g
               inkscape:transform-center-y="124.06428"
               inkscape:transform-center-x="-82.259414"
               style="fill:#000000;stroke:#000000;stroke-width:230.6343689;stroke-miterlimit:4;stroke-dasharray:none;stroke-opacity:1"
               transform="matrix(0.00817803,-9.6348974e-5,-1.4621025e-4,-0.00740447,99.152661,118.66616)"
               id="g1451">
              <path
                 inkscape:connector-curvature="0"
                 d="m 13360,21794 c -525,-63 -968,-280 -1374,-674 -585,-568 -986,-1405 -1092,-2280 -21,-180 -29,-552 -15,-765 34,-521 133,-872 326,-1160 283,-423 594,-649 836,-606 66,11 91,25 83,46 -4,9 -31,14 -88,17 -71,3 -92,8 -157,40 -273,136 -581,648 -683,1133 -99,475 -111,938 -35,1320 24,118 116,434 194,664 176,518 397,953 635,1246 86,107 345,365 450,449 270,215 544,355 810,412 127,28 361,25 500,-5 336,-72 582,-202 806,-425 273,-274 429,-615 505,-1107 20,-123 23,-186 23,-434 1,-307 -8,-425 -50,-675 -74,-437 -255,-978 -470,-1410 -202,-403 -394,-645 -644,-812 -107,-71 -335,-180 -475,-228 -153,-52 -277,-84 -600,-155 -143,-31 -266,-62 -272,-67 -7,-6 -13,-21 -13,-33 0,-31 15,-41 80,-53 213,-42 473,-12 777,89 305,102 546,241 723,418 570,571 1026,1540 1137,2416 22,175 25,617 5,775 -72,569 -253,952 -626,1325 -280,279 -571,448 -896,520 -73,16 -325,28 -400,19 z"
                 id="path2-5"
                 style="stroke:#000000;stroke-width:230.6343689;stroke-miterlimit:4;stroke-dasharray:none;stroke-opacity:1" />
              <path
                 inkscape:connector-curvature="0"
                 d="m 20005,20394 c -16,-2 -79,-9 -140,-15 -268,-27 -584,-90 -942,-190 -818,-228 -1350,-471 -1813,-827 -510,-393 -888,-828 -1119,-1290 -86,-172 -131,-283 -211,-529 -88,-269 -143,-476 -174,-663 -28,-165 -32,-215 -46,-500 -11,-209 -29,-353 -56,-448 -13,-48 -31,-69 -217,-256 -204,-205 -285,-276 -433,-379 l -82,-57 -258,-50 c -414,-81 -693,-139 -1629,-340 -896,-192 -1303,-275 -1311,-267 -2,2 22,22 53,44 331,233 586,629 741,1153 70,235 209,870 196,891 -32,52 -80,-98 -199,-621 -131,-576 -339,-978 -661,-1279 -65,-61 -224,-187 -270,-214 -19,-11 -420,-74 -644,-102 -231,-28 -489,-51 -693,-61 l -137,-7 19,44 c 33,73 68,209 81,309 33,253 -46,551 -216,817 -106,167 -293,382 -479,554 -92,85 -111,108 -115,137 -6,40 -27,54 -32,21 -3,-19 -16,-10 -111,70 -60,50 -112,91 -116,91 -28,0 -8,-28 96,-132 l 118,-118 -24,-68 c -99,-285 -393,-480 -826,-547 -448,-69 -1130,29 -1613,231 -510,214 -1046,667 -1286,1089 -103,181 -163,359 -203,600 -14,85 -18,166 -18,360 0,219 3,263 22,361 53,260 145,439 302,586 157,148 408,243 742,279 127,14 393,6 539,-16 529,-79 1126,-349 1669,-755 221,-165 331,-259 476,-404 159,-160 269,-308 351,-471 143,-289 161,-555 57,-856 -41,-120 -40,-150 7,-169 27,-11 34,-10 69,13 53,36 154,164 195,250 53,109 69,191 63,322 -12,286 -188,594 -538,944 -352,351 -827,680 -1386,960 -760,380 -1402,504 -1889,365 -561,-160 -914,-710 -914,-1424 0,-481 156,-914 475,-1315 83,-104 286,-306 405,-402 201,-163 496,-345 698,-433 268,-116 682,-219 1072,-266 200,-25 582,-25 735,-1 311,49 501,132 656,286 71,70 94,101 127,171 40,85 72,192 72,243 0,15 4,27 9,27 16,0 310,-310 398,-420 203,-252 306,-476 334,-724 20,-179 -12,-374 -86,-531 l -35,-73 -518,-5 c -456,-4 -549,-7 -787,-30 -148,-14 -342,-32 -430,-39 -200,-16 -751,-16 -1265,0 -1755,56 -2107,96 -3933,452 -312,60 -576,110 -587,110 -50,0 -10,-19 103,-48 67,-18 253,-66 412,-108 1339,-349 2023,-453 3395,-514 1026,-46 1552,-52 1905,-21 l 100,8 51,-39 c 200,-151 461,-249 708,-266 222,-15 390,14 561,98 113,55 200,122 268,208 l 47,58 192,12 c 251,15 476,37 718,69 107,14 226,27 263,29 38,2 73,6 78,9 5,3 138,28 296,55 379,64 655,120 1443,290 972,210 1271,271 1290,265 23,-7 199,27 305,60 46,14 178,43 292,64 2210,415 3816,447 5308,105 195,-45 502,-131 689,-194 140,-46 166,-51 166,-30 0,16 -339,142 -600,221 -776,238 -1571,348 -2504,349 -216,0 -335,4 -325,10 40,24 425,172 516,199 175,52 443,100 743,133 149,17 793,16 995,0 888,-74 1585,-231 2338,-526 605,-237 1109,-500 1718,-897 263,-171 474,-297 907,-539 199,-112 360,-205 358,-207 -2,-2 -26,5 -55,16 -162,65 -608,183 -904,240 -508,99 -801,130 -1703,181 -589,33 -837,51 -1104,80 -280,31 -359,38 -835,70 -830,56 -1184,105 -1565,216 -227,66 -379,128 -810,331 -472,223 -698,308 -942,358 -205,41 -538,54 -538,20 0,-8 31,-14 98,-19 210,-14 435,-68 663,-157 74,-29 309,-140 523,-246 540,-269 679,-328 951,-402 384,-106 746,-158 1520,-221 204,-17 483,-41 620,-55 343,-34 684,-60 1185,-90 1184,-70 1649,-126 2180,-261 323,-81 565,-164 876,-300 706,-307 696,-303 719,-284 8,7 15,18 15,25 0,12 -129,112 -205,159 -16,10 -90,62 -163,114 -178,126 -409,274 -737,472 -148,89 -387,242 -530,338 -632,427 -813,546 -1010,664 -882,528 -1591,805 -2555,998 -524,105 -953,150 -1425,150 -385,0 -671,-27 -1010,-95 -432,-86 -797,-224 -1170,-441 l -91,-52 -149,-11 c -529,-41 -1106,-112 -1689,-210 -132,-23 -241,-39 -242,-38 -2,2 36,31 84,65 129,91 302,252 435,405 119,135 119,135 170,142 124,16 287,70 439,145 133,67 557,314 648,378 126,90 349,308 476,466 127,158 226,300 664,951 189,281 389,572 444,649 362,498 685,818 1101,1091 253,167 469,280 1040,547 l 320,150 130,-10 c 141,-10 168,-5 163,31 -3,19 -15,25 -83,39 -222,48 -360,61 -680,63 -170,2 -323,1 -340,-1 z m 310,-183 c -657,-223 -1202,-563 -1685,-1051 -298,-300 -478,-542 -770,-1035 -156,-262 -630,-996 -729,-1129 -162,-215 -236,-285 -536,-500 -416,-299 -800,-538 -899,-562 -25,-6 -8,17 115,152 338,374 408,469 702,947 49,79 120,186 158,238 78,106 84,117 74,127 -11,11 -222,-213 -347,-370 -63,-79 -204,-262 -313,-408 -109,-146 -227,-301 -263,-345 -100,-122 -215,-255 -218,-252 -2,2 6,36 16,77 29,112 46,211 80,464 46,344 98,572 200,876 221,663 551,1165 1030,1567 848,712 2017,1159 3270,1252 58,5 146,9 195,9 l 90,1 z M 9710,14209 c -312,-279 -791,-336 -1208,-143 -70,32 -217,123 -210,130 4,3 419,41 518,47 30,2 255,4 500,5 l 445,1 z"
                 id="path4-6"
                 style="stroke:#000000;stroke-width:230.6343689;stroke-miterlimit:4;stroke-dasharray:none;stroke-opacity:1" />
              <path
                 inkscape:connector-curvature="0"
                 d="m 12403,17109 c -130,-22 -258,-93 -355,-198 -155,-167 -122,-354 86,-476 56,-33 75,-24 26,13 -96,72 -140,140 -140,217 0,135 175,271 375,291 82,9 153,-9 209,-52 51,-39 122,-141 166,-240 17,-38 37,-72 43,-76 24,-15 56,-7 76,18 18,22 21,41 21,114 0,124 -20,178 -93,257 -69,74 -151,118 -247,133 -74,11 -94,11 -167,-1 z"
                 id="path6"
                 style="stroke:#000000;stroke-width:230.6343689;stroke-miterlimit:4;stroke-dasharray:none;stroke-opacity:1" />
              <path
                 inkscape:connector-curvature="0"
                 d="m 8819,16827 c -158,-54 -271,-195 -314,-391 -52,-234 57,-416 247,-416 39,0 149,27 161,39 5,5 -29,7 -76,4 -109,-7 -149,1 -192,38 -51,45 -68,101 -63,202 4,70 10,96 41,160 40,85 108,161 172,192 67,33 176,27 304,-18 98,-34 106,-35 123,-20 31,28 22,57 -34,109 -69,65 -111,90 -183,109 -78,20 -107,19 -186,-8 z"
                 id="path8"
                 style="stroke:#000000;stroke-width:230.6343689;stroke-miterlimit:4;stroke-dasharray:none;stroke-opacity:1" />
            </g>
            <g
               id="g20"
               transform="matrix(0.03918296,0,0,-0.0352364,46.609959,103.27558)"
               style="fill:#000000;stroke:none">
              <path
                 id="path4-3"
                 d="m 845.14489,2507.9355 c -275,-38 -525,-258 -602,-530 -43,-153 -36,-334 21,-486 43,-114 168,-271 278,-347 124,-86 240,-121 401,-121 228.00001,0 403.00001,82 551.00001,258 193,227 233,545 104,811 -78,161 -199,280 -360,355 -121,57 -261.00001,78 -393.00001,60 z m 293.00001,-148 c 188,-69 347,-257 391,-462 68,-317 -133,-657 -432,-734 -77,-20 -231.00001,-21 -302.00001,-2 -272,73 -470,358 -448,646 11,140 47,235 130,345 80,106 194,185 319,220 79,22 265.00001,15 342.00001,-13 z"
                 inkscape:connector-curvature="0" />
              <path
                 id="path6-6"
                 d="m 4219.6114,2384.8906 c -76,-13 -126,-38 -201,-99 -77,-64 -82,-70 -118,-135 -24,-45 -27,-60 -27,-150 0,-92 2,-104 30,-154 57,-103 108,-130 375,-200 224,-59 250,-70 311,-131 49,-50 69,-102 69,-185 0,-99 -90,-223 -198,-273 -50,-24 -69,-27 -157,-27 -131,0 -171,19 -281,132 -67,69 -86,83 -112,83 -35,0 -62,-22 -62,-51 0,-47 97,-154 197,-217.00002 85,-54 156,-75 258,-76 193,-1 360,100.00002 445,270.00002 33,66 35,74 35,174 0,92 -3,112 -27,162 -29,63 -93,130 -152,160 -22,11 -126,44 -231,73 -212,59 -254,74 -303,112 -93,70 -95,232 -5,325 54,55 121,81 228,86 110,5 155,-6 233,-58 88,-59 142,-53 142,16 0,61 -106,128 -253,158 -83,17 -115,18 -196,5 z"
                 inkscape:connector-curvature="0" />
              <path
                 id="path8-5"
                 d="m 5018.6114,2258.8906 c -36,-13 -40,-34 -40,-204 v -166 l -45,-5 c -54,-7 -75,-22 -75,-55 0,-45 17,-62 69,-69 l 49,-6 4,-297 c 4,-267 6,-302 25,-353 28,-79 65,-133.00002 115,-165.00002 38,-26 50,-28 137,-28 136,0 201,35 185,99.00002 -9,38 -49,49 -109,31 -92,-27 -146,-13 -183,47 -33,53 -42,145 -42,416 v 252 h 79 c 124,0 161,23 144,89 -8,31 -40,41 -139,41 h -84 v 174 c 0,127 -3,176 -13,184 -16,14 -58,22 -77,15 z"
                 inkscape:connector-curvature="0" />
              <path
                 id="path10"
                 d="m 3071.1449,2004.9355 c -53,-15 -71,-27 -109,-71 l -27,-30 -7,42 c -8,51 -24,64 -72,60 -28,-2 -41,-9 -50,-28 -16,-31 -19,-874 -3,-914 15,-41 99,-49 114,-11 3,8 6,149 6,313 1,163 6,318 11,344 13,57 76,133 134,159 59,27 128,25 173,-6 43,-29 59,-31 90,-9 30,21 30,73 -1,102 -52,49 -175,72 -259,49 z"
                 inkscape:connector-curvature="0" />
              <path
                 id="path12"
                 d="m 5878.6114,1884.8906 c -167,-22 -329,-163 -382,-332 -22,-70 -26,-194 -9,-270 36,-156 170,-303.00002 327,-358.00002 49,-17 77,-20 164,-17 95,3 112,7 175,38 48,22 92,55.00002 137,100.00002 233,233 197,595 -77,772 -94,61 -208,84 -335,67 z m 233,-153 c 73,-35 149,-118 177,-194 38,-100 23,-282 -31,-368 -23,-38 -103,-93 -174,-120 -78,-30 -194,-26 -266,9 -121,58 -200,182 -207,324 -7,131 39,235 140,316 91,73 250,88 361,33 z"
                 inkscape:connector-curvature="0" />
              <path
                 id="path14"
                 d="m 6865.6114,1885.8906 c -56,-14 -90,-35 -126,-75 l -31,-36 v 39 c 0,47 -24,72 -68,72 -64,0 -62,16 -62,-489 0,-431.00002 1,-459.00002 18,-474.00002 23,-21 61,-22 90,-1 22,15 22,16 22,340.00002 0,250 3,332 13,357 52,122 206,185 298,121 70,-48 138,-4 108,69 -24,57 -170,100 -262,77 z"
                 inkscape:connector-curvature="0" />
              <path
                 id="path16"
                 d="m 1829.1449,1991.9355 c -14,-13 -16,-55 -16,-304 0,-380 4,-400 112,-522 85,-96 158,-131 285,-136 89,-4 97,-3 157,27 34,17 71,40 81,51 l 19,21 11,-43 c 11,-47 41,-66 87,-55 47,12 49,31 46,504 -3,488 -1,473 -69,473 -69,0 -69,1 -69,-390 v -346 l -37,-38 c -49,-50 -100,-75 -172,-82 -115,-12 -219,31 -271,112 -42,66 -50,139 -50,442 0,301 0,302 -65,302 -18,0 -41,-7 -49,-16 z"
                 inkscape:connector-curvature="0" />
              <path
                 id="path18"
                 d="m 7234.6114,1872.8906 c -16,-11 -17,-40 -14,-367 3,-336 4,-357 24,-400 52,-111.00002 163,-180.00002 305,-188.00002 113,-6 149,1 205,44 l 46,36 -4,-129 c -5,-149 -23,-200 -91,-258 -52,-45 -112,-64 -230,-74 -103,-9 -127,-19 -127,-58 0,-55 14,-63 104,-63 220,0 381,92 448,257 23,58 23,58 26,619.00002 3,624 6,594 -63,594 -64,0 -65,-5 -65,-370 0,-294 -2,-329 -19,-365 -38,-84 -112,-121 -222,-112 -70,6 -131,30 -162,65 -42,46 -46,82 -47,417 0,358 -1,365 -64,365 -18,0 -40,-6 -50,-13 z"
                 inkscape:connector-curvature="0" />
            </g>
          </g>
        </g>
      </g>
    </g>
  </g>
</svg>
