<?xml version="1.0" encoding="UTF-8" standalone="no"?>
<svg
   xmlns:dc="http://purl.org/dc/elements/1.1/"
   xmlns:cc="http://creativecommons.org/ns#"
   xmlns:rdf="http://www.w3.org/1999/02/22-rdf-syntax-ns#"
   xmlns:svg="http://www.w3.org/2000/svg"
   xmlns="http://www.w3.org/2000/svg"
   xmlns:sodipodi="http://sodipodi.sourceforge.net/DTD/sodipodi-0.dtd"
   xmlns:inkscape="http://www.inkscape.org/namespaces/inkscape"
   id="svg"
   version="1.1"
   width="532.02551"
   height="258.10559"
   viewBox="0 0 532.02551 258.10559"
   sodipodi:docname="contact.svg"
   inkscape:version="0.92.4 (5da689c313, 2019-01-14)">
  <metadata
     id="metadata13">
    <rdf:RDF>
      <cc:Work
         rdf:about="">
        <dc:format>image/svg+xml</dc:format>
        <dc:type
           rdf:resource="http://purl.org/dc/dcmitype/StillImage" />
        <dc:title></dc:title>
      </cc:Work>
    </rdf:RDF>
  </metadata>
  <defs
     id="defs11" />
  <sodipodi:namedview
     pagecolor="#ffffff"
     bordercolor="#666666"
     borderopacity="1"
     objecttolerance="10"
     gridtolerance="10"
     guidetolerance="10"
     inkscape:pageopacity="0"
     inkscape:pageshadow="2"
     inkscape:window-width="1366"
     inkscape:window-height="705"
     id="namedview9"
     showgrid="false"
     fit-margin-top="0"
     fit-margin-left="0"
     fit-margin-right="0"
     fit-margin-bottom="0"
     inkscape:zoom="0.71000002"
     inkscape:cx="256.50413"
     inkscape:cy="94.009163"
     inkscape:window-x="-8"
     inkscape:window-y="-8"
     inkscape:window-maximized="1"
     inkscape:current-layer="svgg" />
  <g
     id="svgg"
     transform="translate(107.29505,102.05561)">
    <g
       id="g843"
       transform="matrix(1.2124303,0,0,1.2552074,-74.506645,3.7121233)">
      <g
         style="fill:#000000;stroke:none"
         id="g1162"
         transform="matrix(0.05808696,0,0,-0.05758069,-39.886315,143.51904)">
        <path
           id="path24-05"
           d="M 1165,2114 C 1012,2081 846,1975 743,1847 614,1686 569,1571 562,1375 c -7,-200 25,-324 124,-476 52,-79 189,-212 266,-257 153,-90 362,-124 546,-86 83,16 213,72 250,106 30,29 30,81 0,102 -32,23 -46,21 -142,-25 -157,-73 -306,-86 -456,-40 -164,51 -330,204 -401,368 -53,124 -65,307 -29,449 51,199 219,384 410,450 146,51 309,41 478,-28 81,-34 116,-32 134,7 26,58 -31,109 -177,155 -93,30 -297,37 -400,14 z"
           inkscape:connector-curvature="0" />
        <path
           id="path26-3"
           d="m 4117,1972 c -15,-16 -17,-45 -17,-200 v -182 h -45 c -73,0 -108,-53 -69,-108 12,-18 25,-22 65,-22 h 49 v -287 c 0,-315 8,-380 55,-474 62,-124 158,-173 292,-148 122,23 168,60 141,117 -17,34 -52,42 -113,24 -28,-8 -71,-12 -99,-9 -41,4 -55,10 -77,36 -49,59 -52,83 -56,424 l -4,317 h 98 c 114,0 143,12 143,61 0,55 -27,69 -140,69 h -100 v 184 c 0,154 -3,187 -16,200 -22,22 -87,21 -107,-2 z"
           inkscape:connector-curvature="0" />
        <path
           id="path28-5"
           d="m 6816,1974 c -13,-13 -16,-46 -16,-200 v -184 h -45 c -52,0 -85,-25 -85,-65 0,-40 33,-65 85,-65 h 45 v -292 c 0,-322 7,-372 59,-476 59,-117 157,-165 288,-141 122,23 168,60 141,117 -17,34 -52,42 -108,25 -89,-26 -159,-11 -194,41 -39,60 -46,128 -46,433 v 293 h 100 c 87,0 103,3 120,20 11,11 20,31 20,45 0,14 -9,34 -20,45 -17,17 -33,20 -120,20 h -100 v 184 c 0,208 -2,216 -70,216 -22,0 -45,-7 -54,-16 z"
           inkscape:connector-curvature="0" />
        <path
           id="path30-7"
           d="m 2243,1580 c -96,-25 -154,-60 -233,-139 -206,-208 -201,-529 11,-742 118,-119 266,-170 429,-148 183,25 359,180 420,368 20,62 22,86 18,186 -4,110 -6,117 -46,198 -32,65 -57,99 -112,150 -81,77 -146,113 -239,133 -89,18 -161,17 -248,-6 z m 274,-141 c 71,-27 160,-110 198,-186 29,-55 30,-64 30,-183 -1,-203 -39,-271 -192,-347 -74,-36 -81,-38 -177,-38 -91,0 -106,3 -154,28 -197,104 -276,345 -177,544 88,179 281,253 472,182 z"
           inkscape:connector-curvature="0" />
        <path
           id="path32-6"
           d="m 3085,1592 c -46,-10 -45,2 -45,-518 0,-434 2,-494 16,-508 19,-20 74,-21 100,-2 18,14 19,33 24,395 l 5,380 39,40 c 55,56 124,84 211,84 138,0 232,-51 279,-152 20,-43 21,-64 24,-366 1,-176 4,-330 7,-342 8,-33 33,-53 69,-53 66,0 66,-1 66,366 0,357 -4,388 -56,483 -73,135 -242,214 -418,198 -74,-7 -119,-25 -180,-72 -44,-33 -46,-34 -46,-12 -1,54 -43,90 -95,79 z"
           inkscape:connector-curvature="0" />
        <path
           id="path34-5"
           d="m 5026,1585 c -32,-8 -85,-29 -117,-46 -74,-40 -185,-155 -221,-231 -161,-332 31,-707 387,-757 139,-20 273,19 365,105 l 50,47 v -60 c 0,-45 4,-64 18,-76 23,-21 71,-22 98,-3 18,14 19,32 22,493 2,539 4,526 -65,531 -57,4 -73,-15 -73,-87 v -58 l -52,52 c -69,68 -140,95 -263,101 -59,2 -110,-1 -149,-11 z m 261,-147 c 68,-25 133,-76 172,-134 l 31,-47 V 1075 894 l -28,-45 c -37,-58 -93,-106 -162,-138 -48,-23 -68,-26 -155,-26 -89,0 -106,3 -157,28 -125,62 -208,186 -216,326 -8,132 39,266 113,326 122,99 264,125 402,73 z"
           inkscape:connector-curvature="0" />
        <path
           id="path36-1"
           d="m 6190,1593 c -194,-32 -372,-197 -414,-383 -44,-193 7,-372 145,-511 197,-199 484,-205 687,-16 36,34 42,75 16,101 -26,27 -73,19 -138,-23 -107,-70 -149,-84 -235,-79 -332,19 -474,474 -218,693 121,104 262,117 427,39 72,-33 80,-35 106,-22 23,10 30,21 32,49 3,30 -2,41 -29,63 -88,74 -246,111 -379,89 z"
           inkscape:connector-curvature="0" />
      </g>
      <g
         id="g1451-2-5"
         transform="matrix(0.01212174,-7.3479024e-4,-7.3373954e-4,-0.01107116,48.443109,177.34477)"
         style="fill:#000000;stroke:#000000;stroke-width:234.974823;stroke-miterlimit:4;stroke-dasharray:none;stroke-opacity:1"
         inkscape:transform-center-x="-132.47398"
         inkscape:transform-center-y="178.87274">
        <path
           style="stroke:#000000;stroke-width:234.974823;stroke-miterlimit:4;stroke-dasharray:none;stroke-opacity:1"
           id="path2-5-9-7"
           d="m 13360,21794 c -525,-63 -968,-280 -1374,-674 -585,-568 -986,-1405 -1092,-2280 -21,-180 -29,-552 -15,-765 34,-521 133,-872 326,-1160 283,-423 594,-649 836,-606 66,11 91,25 83,46 -4,9 -31,14 -88,17 -71,3 -92,8 -157,40 -273,136 -581,648 -683,1133 -99,475 -111,938 -35,1320 24,118 116,434 194,664 176,518 397,953 635,1246 86,107 345,365 450,449 270,215 544,355 810,412 127,28 361,25 500,-5 336,-72 582,-202 806,-425 273,-274 429,-615 505,-1107 20,-123 23,-186 23,-434 1,-307 -8,-425 -50,-675 -74,-437 -255,-978 -470,-1410 -202,-403 -394,-645 -644,-812 -107,-71 -335,-180 -475,-228 -153,-52 -277,-84 -600,-155 -143,-31 -266,-62 -272,-67 -7,-6 -13,-21 -13,-33 0,-31 15,-41 80,-53 213,-42 473,-12 777,89 305,102 546,241 723,418 570,571 1026,1540 1137,2416 22,175 25,617 5,775 -72,569 -253,952 -626,1325 -280,279 -571,448 -896,520 -73,16 -325,28 -400,19 z"
           inkscape:connector-curvature="0" />
        <path
           style="stroke:#000000;stroke-width:234.974823;stroke-miterlimit:4;stroke-dasharray:none;stroke-opacity:1"
           id="path4-6-4-6"
           d="m 20005,20394 c -16,-2 -79,-9 -140,-15 -268,-27 -584,-90 -942,-190 -818,-228 -1350,-471 -1813,-827 -510,-393 -888,-828 -1119,-1290 -86,-172 -131,-283 -211,-529 -88,-269 -143,-476 -174,-663 -28,-165 -32,-215 -46,-500 -11,-209 -29,-353 -56,-448 -13,-48 -31,-69 -217,-256 -204,-205 -285,-276 -433,-379 l -82,-57 -258,-50 c -414,-81 -693,-139 -1629,-340 -896,-192 -1303,-275 -1311,-267 -2,2 22,22 53,44 331,233 586,629 741,1153 70,235 209,870 196,891 -32,52 -80,-98 -199,-621 -131,-576 -339,-978 -661,-1279 -65,-61 -224,-187 -270,-214 -19,-11 -420,-74 -644,-102 -231,-28 -489,-51 -693,-61 l -137,-7 19,44 c 33,73 68,209 81,309 33,253 -46,551 -216,817 -106,167 -293,382 -479,554 -92,85 -111,108 -115,137 -6,40 -27,54 -32,21 -3,-19 -16,-10 -111,70 -60,50 -112,91 -116,91 -28,0 -8,-28 96,-132 l 118,-118 -24,-68 c -99,-285 -393,-480 -826,-547 -448,-69 -1130,29 -1613,231 -510,214 -1046,667 -1286,1089 -103,181 -163,359 -203,600 -14,85 -18,166 -18,360 0,219 3,263 22,361 53,260 145,439 302,586 157,148 408,243 742,279 127,14 393,6 539,-16 529,-79 1126,-349 1669,-755 221,-165 331,-259 476,-404 159,-160 269,-308 351,-471 143,-289 161,-555 57,-856 -41,-120 -40,-150 7,-169 27,-11 34,-10 69,13 53,36 154,164 195,250 53,109 69,191 63,322 -12,286 -188,594 -538,944 -352,351 -827,680 -1386,960 -760,380 -1402,504 -1889,365 -561,-160 -914,-710 -914,-1424 0,-481 156,-914 475,-1315 83,-104 286,-306 405,-402 201,-163 496,-345 698,-433 268,-116 682,-219 1072,-266 200,-25 582,-25 735,-1 311,49 501,132 656,286 71,70 94,101 127,171 40,85 72,192 72,243 0,15 4,27 9,27 16,0 310,-310 398,-420 203,-252 306,-476 334,-724 20,-179 -12,-374 -86,-531 l -35,-73 -518,-5 c -456,-4 -549,-7 -787,-30 -148,-14 -342,-32 -430,-39 -200,-16 -751,-16 -1265,0 -1755,56 -2107,96 -3933,452 -312,60 -576,110 -587,110 -50,0 -10,-19 103,-48 67,-18 253,-66 412,-108 1339,-349 2023,-453 3395,-514 1026,-46 1552,-52 1905,-21 l 100,8 51,-39 c 200,-151 461,-249 708,-266 222,-15 390,14 561,98 113,55 200,122 268,208 l 47,58 192,12 c 251,15 476,37 718,69 107,14 226,27 263,29 38,2 73,6 78,9 5,3 138,28 296,55 379,64 655,120 1443,290 972,210 1271,271 1290,265 23,-7 199,27 305,60 46,14 178,43 292,64 2210,415 3816,447 5308,105 195,-45 502,-131 689,-194 140,-46 166,-51 166,-30 0,16 -339,142 -600,221 -776,238 -1571,348 -2504,349 -216,0 -335,4 -325,10 40,24 425,172 516,199 175,52 443,100 743,133 149,17 793,16 995,0 888,-74 1585,-231 2338,-526 605,-237 1109,-500 1718,-897 263,-171 474,-297 907,-539 199,-112 360,-205 358,-207 -2,-2 -26,5 -55,16 -162,65 -608,183 -904,240 -508,99 -801,130 -1703,181 -589,33 -837,51 -1104,80 -280,31 -359,38 -835,70 -830,56 -1184,105 -1565,216 -227,66 -379,128 -810,331 -472,223 -698,308 -942,358 -205,41 -538,54 -538,20 0,-8 31,-14 98,-19 210,-14 435,-68 663,-157 74,-29 309,-140 523,-246 540,-269 679,-328 951,-402 384,-106 746,-158 1520,-221 204,-17 483,-41 620,-55 343,-34 684,-60 1185,-90 1184,-70 1649,-126 2180,-261 323,-81 565,-164 876,-300 706,-307 696,-303 719,-284 8,7 15,18 15,25 0,12 -129,112 -205,159 -16,10 -90,62 -163,114 -178,126 -409,274 -737,472 -148,89 -387,242 -530,338 -632,427 -813,546 -1010,664 -882,528 -1591,805 -2555,998 -524,105 -953,150 -1425,150 -385,0 -671,-27 -1010,-95 -432,-86 -797,-224 -1170,-441 l -91,-52 -149,-11 c -529,-41 -1106,-112 -1689,-210 -132,-23 -241,-39 -242,-38 -2,2 36,31 84,65 129,91 302,252 435,405 119,135 119,135 170,142 124,16 287,70 439,145 133,67 557,314 648,378 126,90 349,308 476,466 127,158 226,300 664,951 189,281 389,572 444,649 362,498 685,818 1101,1091 253,167 469,280 1040,547 l 320,150 130,-10 c 141,-10 168,-5 163,31 -3,19 -15,25 -83,39 -222,48 -360,61 -680,63 -170,2 -323,1 -340,-1 z m 310,-183 c -657,-223 -1202,-563 -1685,-1051 -298,-300 -478,-542 -770,-1035 -156,-262 -630,-996 -729,-1129 -162,-215 -236,-285 -536,-500 -416,-299 -800,-538 -899,-562 -25,-6 -8,17 115,152 338,374 408,469 702,947 49,79 120,186 158,238 78,106 84,117 74,127 -11,11 -222,-213 -347,-370 -63,-79 -204,-262 -313,-408 -109,-146 -227,-301 -263,-345 -100,-122 -215,-255 -218,-252 -2,2 6,36 16,77 29,112 46,211 80,464 46,344 98,572 200,876 221,663 551,1165 1030,1567 848,712 2017,1159 3270,1252 58,5 146,9 195,9 l 90,1 z M 9710,14209 c -312,-279 -791,-336 -1208,-143 -70,32 -217,123 -210,130 4,3 419,41 518,47 30,2 255,4 500,5 l 445,1 z"
           inkscape:connector-curvature="0" />
        <path
           style="stroke:#000000;stroke-width:234.974823;stroke-miterlimit:4;stroke-dasharray:none;stroke-opacity:1"
           id="path6-0-2-1"
           d="m 12403,17109 c -130,-22 -258,-93 -355,-198 -155,-167 -122,-354 86,-476 56,-33 75,-24 26,13 -96,72 -140,140 -140,217 0,135 175,271 375,291 82,9 153,-9 209,-52 51,-39 122,-141 166,-240 17,-38 37,-72 43,-76 24,-15 56,-7 76,18 18,22 21,41 21,114 0,124 -20,178 -93,257 -69,74 -151,118 -247,133 -74,11 -94,11 -167,-1 z"
           inkscape:connector-curvature="0" />
        <path
           style="stroke:#000000;stroke-width:234.974823;stroke-miterlimit:4;stroke-dasharray:none;stroke-opacity:1"
           id="path8-0-7-7"
           d="m 8819,16827 c -158,-54 -271,-195 -314,-391 -52,-234 57,-416 247,-416 39,0 149,27 161,39 5,5 -29,7 -76,4 -109,-7 -149,1 -192,38 -51,45 -68,101 -63,202 4,70 10,96 41,160 40,85 108,161 172,192 67,33 176,27 304,-18 98,-34 106,-35 123,-20 31,28 22,57 -34,109 -69,65 -111,90 -183,109 -78,20 -107,19 -186,-8 z"
           inkscape:connector-curvature="0" />
      </g>
    </g>
  </g>
</svg>
