<?xml version="1.0" encoding="UTF-8" standalone="no"?>
<!-- Created with Inkscape (http://www.inkscape.org/) -->

<svg
   xmlns:dc="http://purl.org/dc/elements/1.1/"
   xmlns:cc="http://creativecommons.org/ns#"
   xmlns:rdf="http://www.w3.org/1999/02/22-rdf-syntax-ns#"
   xmlns:svg="http://www.w3.org/2000/svg"
   xmlns="http://www.w3.org/2000/svg"
   xmlns:sodipodi="http://sodipodi.sourceforge.net/DTD/sodipodi-0.dtd"
   xmlns:inkscape="http://www.inkscape.org/namespaces/inkscape"
   width="109.4072mm"
   height="68.289192mm"
   viewBox="0 0 109.4072 68.289192"
   version="1.1"
   id="svg874"
   inkscape:version="0.92.4 (5da689c313, 2019-01-14)"
   sodipodi:docname="galeri.svg">
  <defs
     id="defs868" />
  <sodipodi:namedview
     id="base"
     pagecolor="#ffffff"
     bordercolor="#666666"
     borderopacity="1.0"
     inkscape:pageopacity="0.0"
     inkscape:pageshadow="2"
     inkscape:zoom="1.4"
     inkscape:cx="178.53949"
     inkscape:cy="124.10056"
     inkscape:document-units="mm"
     inkscape:current-layer="layer1"
     showgrid="false"
     fit-margin-top="0"
     fit-margin-left="0"
     fit-margin-right="0"
     fit-margin-bottom="0"
     inkscape:window-width="1366"
     inkscape:window-height="705"
     inkscape:window-x="-8"
     inkscape:window-y="-8"
     inkscape:window-maximized="1" />
  <metadata
     id="metadata871">
    <rdf:RDF>
      <cc:Work
         rdf:about="">
        <dc:format>image/svg+xml</dc:format>
        <dc:type
           rdf:resource="http://purl.org/dc/dcmitype/StillImage" />
        <dc:title></dc:title>
      </cc:Work>
    </rdf:RDF>
  </metadata>
  <g
     inkscape:label="Layer 1"
     inkscape:groupmode="layer"
     id="layer1"
     transform="translate(-42.058303,-190.28397)">
    <g
       transform="matrix(0.02394292,0,0,-0.02405091,44.023606,314.4781)"
       style="fill:#000000;stroke:none"
       id="g1096">
      <g
         transform="matrix(0.75483431,0,0,0.6895396,191.91762,889.52766)"
         id="g989">
        <path
           inkscape:connector-curvature="0"
           d="m 2745,4093 c -11,-3 -23,-10 -27,-17 -4,-6 -8,-303 -8,-661 0,-357 4,-655 8,-661 14,-22 52,-26 77,-10 l 25,16 v 655 654 l -22,15 c -12,9 -25,15 -28,15 -3,-1 -14,-4 -25,-6 z"
           id="path4-38" />
        <path
           inkscape:connector-curvature="0"
           d="m 1071,4019 c -236,-31 -448,-218 -523,-459 -18,-60 -23,-97 -22,-190 0,-101 4,-125 30,-200 37,-106 89,-185 177,-272 75,-73 192,-138 285,-157 68,-14 206,-14 274,0 80,16 209,82 254,129 21,23 51,53 67,67 l 27,26 v 224 c 0,289 21,265 -226,261 -200,-3 -204,-4 -204,-60 0,-17 7,-31 19,-38 11,-5 81,-10 155,-10 h 136 v -179 -180 l -42,-33 c -60,-47 -84,-61 -153,-88 -82,-32 -242,-33 -327,-2 -80,29 -158,83 -221,153 -94,103 -137,220 -137,372 0,323 285,577 592,529 51,-7 100,-25 163,-56 93,-47 126,-55 142,-33 35,45 13,79 -85,130 -114,60 -251,84 -381,66 z"
           id="path6-2" />
        <path
           inkscape:connector-curvature="0"
           d="m 4464,3956 c -49,-21 -58,-66 -23,-110 22,-28 64,-35 99,-16 24,13 36,66 20,95 -10,18 -51,47 -63,45 -1,-1 -16,-7 -33,-14 z"
           id="path8-9" />
        <path
           inkscape:connector-curvature="0"
           d="m 2050,3576 c -67,-19 -108,-43 -163,-95 -102,-96 -147,-195 -147,-329 0,-225 169,-407 390,-420 120,-7 244,39 293,110 16,23 16,22 17,-27 1,-65 10,-79 55,-79 21,0 40,6 46,15 5,8 9,188 9,411 0,431 0,428 -55,428 -38,0 -55,-26 -55,-81 v -49 l -35,39 c -50,56 -121,83 -225,87 -51,2 -103,-2 -130,-10 z m 204,-110 c 64,-19 121,-61 157,-112 29,-42 29,-43 29,-191 0,-146 -1,-150 -28,-194 -56,-87 -158,-135 -275,-127 -85,6 -135,28 -194,90 -81,83 -109,199 -79,318 9,36 28,82 41,102 27,41 96,92 153,113 49,18 137,18 196,1 z"
           id="path10-21" />
        <path
           inkscape:connector-curvature="0"
           d="m 3240,3576 c -72,-21 -121,-50 -178,-107 -152,-152 -168,-402 -35,-576 45,-58 137,-121 215,-144 138,-42 299,-10 392,79 80,77 108,150 65,172 -32,18 -66,3 -95,-39 -49,-75 -140,-121 -237,-121 -85,0 -147,23 -206,76 -64,58 -102,134 -108,219 l -6,64 352,3 c 387,3 376,1 367,64 -15,104 -112,226 -221,280 -67,33 -84,37 -167,40 -57,2 -110,-2 -138,-10 z m 266,-123 c 40,-21 102,-82 124,-122 l 11,-21 h -281 c -154,0 -280,3 -280,8 1,12 63,78 101,106 60,44 105,56 199,53 62,-3 96,-9 126,-24 z"
           id="path12-4" />
        <path
           inkscape:connector-curvature="0"
           d="m 3896,3574 c -14,-13 -16,-65 -16,-412 0,-218 4,-402 8,-408 12,-18 48,-25 76,-15 l 26,11 v 272 c 0,281 4,319 41,373 52,75 170,110 229,66 52,-38 103,-21 103,34 0,35 -27,61 -81,79 -91,31 -193,15 -248,-40 -35,-36 -44,-34 -44,7 0,45 -61,66 -94,33 z"
           id="path14-18" />
        <path
           inkscape:connector-curvature="0"
           d="m 4456,3574 c -14,-13 -16,-65 -16,-412 0,-223 4,-403 9,-411 6,-9 25,-15 46,-15 21,0 40,6 46,15 5,8 9,188 9,411 0,431 0,428 -55,428 -13,0 -31,-7 -39,-16 z"
           id="path16-4" />
      </g>
      <path
         inkscape:connector-curvature="0"
         d="m 2172.4135,4693.4608 c -61.8539,-8.3503 -113.7475,-34.2274 -160.9504,-80.3699 -68.0135,-66.5191 -113.8167,-163.5677 -124.7301,-264.3612 -2.1498,-20.7328 -2.4146,-63.5057 -0.373,-87.958 4.965,-59.8097 17.2919,-99.9436 40.599,-132.6376 34.1771,-48.0203 71.2993,-73.3387 99.7855,-67.8852 7.7703,1.4032 10.6957,3.0658 9.713,5.4626 -0.4885,1.0252 -3.6847,1.5433 -10.4183,1.7675 -8.3861,0.1953 -10.874,0.7251 -18.6047,4.2664 -32.4724,15.0542 -69.763,73.251 -82.6888,128.7799 -12.5533,54.3861 -14.8157,107.576 -6.5429,151.6418 2.6173,13.613 12.8993,50.1277 21.686,76.7281 19.828,59.9083 45.1193,110.3724 72.6766,144.5519 9.9556,12.4793 40.0557,42.6798 52.2959,52.5562 31.4771,25.2822 63.5632,41.952 94.8568,49.0654 14.9393,3.4862 42.5654,3.6354 59.0272,0.481 39.7917,-7.5655 69.0661,-21.9877 95.9136,-47.1452 32.7245,-30.9165 51.7612,-69.7801 61.6307,-126.1679 2.5855,-14.0949 3.0548,-21.3295 3.5079,-49.8339 0.6789,-35.2834 -0.1681,-48.8647 -4.6686,-77.6874 -7.9364,-50.3836 -28.3126,-112.9464 -52.9011,-163.0533 -23.107,-46.7465 -45.3278,-74.9661 -74.5318,-94.689 -12.5002,-8.3864 -39.2133,-21.3955 -55.6507,-27.208 -17.9646,-6.3006 -32.5425,-10.2398 -70.5385,-19.0828 -16.8226,-3.865 -31.2844,-7.6875 -31.9835,-8.2752 -0.8153,-0.7043 -1.496,-2.4411 -1.4742,-3.8207 0.054,-3.5631 1.8455,-4.6805 9.5398,-5.9228 25.2185,-4.3767 55.8529,-0.3797 91.5515,11.8708 35.8147,12.3681 64.0075,28.8535 84.5766,49.5709 66.2374,66.8319 118.2916,179.1689 129.7932,280.0871 2.2771,20.1605 1.8236,70.9691 -0.8258,89.0863 -9.5379,65.247 -31.6022,108.8851 -76.3112,150.9691 -33.5598,31.4753 -68.2171,50.2851 -106.7104,57.8741 -8.6459,1.6844 -38.413,2.5315 -47.2493,1.339 z"
         id="path2-5-9-7-3-6"
         style="fill:#000000;stroke:#000000;stroke-width:27.37281418;stroke-miterlimit:4;stroke-dasharray:none;stroke-opacity:1" />
      <path
         inkscape:connector-curvature="0"
         d="m 2959.3221,4546.5854 c -1.885,-0.264 -9.3085,-1.2015 -16.4977,-2.0198 -31.5844,-3.6697 -68.7687,-11.5778 -110.843,-23.8275 -96.1371,-27.933 -158.4884,-56.9862 -212.4888,-98.8822 -59.4805,-46.2473 -103.3035,-97.0423 -129.7258,-150.631 -9.8368,-19.9507 -14.9457,-32.8034 -23.9392,-61.2473 -9.8957,-31.1037 -16.0095,-55.0117 -19.3269,-76.5699 -3.0037,-19.0241 -3.3844,-24.7795 -4.5163,-57.5658 -0.9165,-24.0445 -2.7781,-40.6338 -5.7915,-51.6096 -1.4467,-5.5439 -3.533,-7.9958 -25.1461,-29.8822 -23.7048,-23.993 -33.1362,-32.3243 -50.4174,-44.4754 l -9.5748,-6.7247 -30.3619,-6.2916 c -48.7191,-10.1847 -81.5451,-17.4401 -191.6599,-42.5189 -105.4097,-23.9604 -153.2988,-34.3602 -154.2576,-33.457 -0.2396,0.226 2.5565,2.5748 6.1754,5.1687 38.6443,27.4792 68.0202,73.5331 85.3584,134.0869 7.8332,27.1582 23.0801,100.4363 21.5072,102.8223 -3.872,5.9091 -9.2638,-11.4324 -22.3546,-71.7954 -14.4104,-66.4802 -38.2275,-113.1245 -75.6853,-148.3997 -7.5609,-7.1487 -26.0984,-21.9669 -31.4788,-25.1674 -2.2225,-1.3037 -49.4401,-9.3918 -75.829,-13.0832 -27.2152,-3.7059 -57.6265,-6.8947 -81.6876,-8.4751 l -16.1582,-1.0939 2.1623,5.0973 c 3.7619,8.4605 7.6446,24.1656 8.9964,35.6866 3.433,29.1481 -6.4364,63.2326 -26.9884,93.4467 -12.817,18.9707 -35.2826,43.2865 -57.5515,62.6631 -11.0146,9.5753 -13.2993,12.1782 -13.8245,15.5035 -0.7813,4.5847 -3.2856,6.1488 -3.8155,2.3461 -0.3191,-2.1906 -1.8703,-1.1834 -13.2299,7.8106 -7.1735,5.6198 -13.3864,10.2226 -13.8585,10.2145 -3.305,-0.054 -0.8932,-3.2349 11.5726,-14.9692 l 14.1439,-13.3129 -2.7086,-7.8665 c -11.165,-32.9662 -45.5114,-55.9999 -96.4986,-64.6151 -52.7541,-8.8764 -133.4339,0.9466 -190.8145,23.1432 -60.5895,23.5192 -124.6845,74.4534 -153.7842,122.4493 -12.4884,20.5863 -19.8957,40.9186 -25.0575,68.5334 -1.8078,9.7399 -2.428,19.0412 -2.7824,41.339 -0.4,25.171 -0.1264,30.2349 1.9373,41.5388 5.7809,29.9953 16.3132,50.7634 34.5763,67.9901 18.2613,17.3424 47.7149,28.7919 87.0732,33.6352 14.965,1.8769 46.3772,1.5189 63.6508,-0.7007 62.5855,-7.9633 133.5464,-37.7344 198.3818,-83.2521 26.3875,-18.4979 39.5432,-29.0695 56.9233,-45.4283 19.0601,-18.0539 32.3145,-34.8322 42.2913,-53.3943 17.4072,-32.9146 20.0178,-63.4496 8.2919,-98.2647 -4.6202,-13.8788 -4.4474,-17.3252 1.1351,-19.4101 3.2071,-1.2069 4.0315,-1.0767 8.1207,1.6401 6.1901,4.2501 17.878,19.175 22.5603,29.1463 6.0568,12.6402 7.7955,22.0989 6.848,37.1422 -1.939,32.8468 -23.276,67.8752 -65.2282,107.3636 -42.1899,39.5995 -98.8582,76.4099 -165.3521,107.4114 -90.4017,42.0705 -166.4075,54.9665 -223.6372,37.9622 -65.9261,-19.5746 -106.588,-83.5351 -105.2836,-165.6001 0.8788,-55.2839 20.0835,-104.7218 58.4697,-150.1383 9.987,-11.7777 34.3174,-34.5664 48.5391,-45.3487 24.0231,-18.3098 59.1763,-38.605 83.1804,-48.2934 31.8457,-12.7658 80.9008,-23.7298 127.0208,-28.3082 23.653,-2.451 68.7428,-1.6446 86.7585,1.4375 36.6198,6.2889 58.8949,16.2295 76.9093,34.2572 8.2526,8.1957 10.9108,11.8076 14.6781,19.9228 4.5661,9.8537 8.1478,22.2191 8.0547,28.0813 -0.027,1.7241 0.4229,3.1119 1.013,3.1218 1.8886,0.036 37.1575,-34.975 47.7457,-47.4326 24.4217,-28.5352 36.9888,-54.0633 40.7469,-82.5081 2.6877,-20.5312 -0.7331,-43.0116 -9.1811,-61.2129 l -3.9979,-8.4642 -61.1336,-1.6689 c -53.8172,-1.4231 -64.7891,-1.9638 -92.8397,-5.11 -17.4437,-1.9221 -40.3099,-4.4003 -50.6843,-5.3912 -23.5781,-2.2611 -88.616,-3.4247 -149.3158,-2.6716 -207.256,2.7295 -248.8778,6.5837 -465.0624,43.6436 -36.93689,6.2374 -68.1898,11.4269 -69.4882,11.4034 -5.90181,-0.1058 -1.14565,-2.2051 12.24542,-5.2998 7.94132,-1.9267 29.98378,-7.0511 48.82828,-11.5427 158.6881,-37.2841 239.6149,-47.7933 401.672,-51.9061 121.1893,-3.12 183.2873,-2.6987 224.8974,1.6102 l 11.7891,1.1301 6.0911,-4.374 c 23.883,-16.9338 54.8696,-27.6455 84.0555,-29.0776 26.2316,-1.2558 46.0087,2.432 66.0394,12.4485 13.2376,6.5602 23.3843,14.4448 31.2537,24.4722 l 5.4417,6.7662 22.641,1.7847 c 29.5998,2.254 56.1177,5.2583 84.624,9.447 12.6042,1.8353 26.6268,3.5811 30.9906,3.8885 4.4816,0.3101 8.6057,0.8444 9.1904,1.1997 0.5849,0.3553 16.2378,3.5097 34.8382,6.9462 44.6188,8.1568 77.0945,15.1762 169.7964,36.3792 114.3476,26.1899 149.529,33.8331 151.7827,33.1831 2.7276,-0.7558 23.4399,3.5242 35.8914,7.5402 5.404,1.7069 20.9318,5.3188 34.3496,7.9732 260.1019,52.3663 449.6096,59.4364 626.3446,23.2797 23.0992,-4.7601 59.4934,-13.9964 81.6813,-20.8422 16.6091,-4.9916 19.6872,-5.5114 19.6488,-3.0975 -0.027,1.839 -40.2737,15.6048 -71.2255,24.1331 -92.0309,25.7162 -186.0707,36.6802 -296.2003,34.8241 -25.4958,-0.4565 -39.5495,-0.2477 -38.3801,0.4629 4.6777,2.8434 49.8512,20.6668 60.5432,23.9623 20.5613,6.3467 52.1073,12.4295 87.4579,16.856 17.5563,2.2684 93.5735,3.5142 117.4461,2.102 104.9513,-6.6297 187.5094,-23.2028 276.9297,-55.518 71.8448,-25.9621 131.8157,-55.1265 204.425,-99.4699 31.3559,-19.0981 56.4918,-33.1343 108.0436,-60.0348 23.6938,-12.4522 42.8675,-22.8014 42.6352,-23.0356 -0.2321,-0.2341 -3.0781,0.5199 -6.5213,1.7232 -19.2406,7.1289 -72.1003,19.7492 -107.1432,25.6746 -60.1433,10.3059 -94.7845,13.2505 -201.3464,17.2069 -69.5837,2.5486 -98.8895,4.0937 -130.4581,6.863 -33.1068,2.9717 -42.4444,3.6091 -98.6881,6.2816 -98.0725,4.6833 -139.9468,9.5681 -185.1215,21.5212 -26.9147,7.1062 -44.9694,13.9114 -96.214,36.333 -56.1205,24.634 -82.9519,33.9254 -111.8442,39.1575 -24.2723,4.2791 -63.6021,5.0702 -63.5401,1.1626 0.014,-0.9203 3.6847,-1.5442 11.6023,-1.9772 24.8132,-1.1654 51.4701,-6.8965 78.5449,-16.6445 8.7876,-3.177 36.729,-15.4384 62.1824,-27.17 64.2311,-29.7774 80.7458,-36.2652 112.9868,-44.1959 45.5197,-11.3718 88.3438,-16.5839 179.8189,-22.1902 24.1104,-1.5225 57.0864,-3.6924 73.283,-5.0115 40.5485,-3.1833 80.8464,-5.4517 140.0373,-7.8412 139.8829,-5.5448 194.872,-10.9993 257.7959,-25.3943 38.2737,-8.6279 66.9901,-17.6562 103.9479,-32.6308 83.8943,-33.7943 82.7066,-33.3549 85.3868,-31.1227 0.9315,0.8209 1.7376,2.1002 1.7249,2.9049 -0.021,1.3797 -15.4313,12.6004 -24.4879,17.8415 -1.9069,1.1156 -10.7365,6.9362 -19.4482,12.7586 -21.2407,14.1067 -48.7775,30.6291 -87.8551,52.6936 -17.6319,9.9171 -46.1222,26.9973 -63.1767,37.729 -75.3789,47.7427 -96.9609,61.0375 -120.4296,74.184 -105.0727,58.8234 -189.2664,89.1631 -303.406,109.3101 -62.0428,10.9613 -112.7625,15.2277 -168.4756,14.2305 -45.444,-0.8128 -79.153,-4.5205 -119.043,-13.0525 -50.8346,-10.7967 -93.6657,-27.4285 -137.2968,-53.1583 l -10.6463,-6.1687 -17.5673,-1.5785 c -62.3662,-5.8296 -130.3435,-15.2097 -198.9795,-27.7043 -15.5388,-2.9221 -28.3755,-4.9915 -28.4954,-4.8785 -0.2394,0.2251 4.1927,3.639 9.7964,7.6477 15.0603,10.7317 35.1865,29.602 50.6058,47.4679 13.7996,15.7684 13.7996,15.7684 19.8067,16.6807 14.6073,2.1002 33.7486,8.6513 51.553,17.5928 15.5764,7.9814 65.1725,37.2661 75.7969,44.8144 14.7082,10.6105 40.6319,36.1377 55.3338,54.566 14.702,18.4282 26.1281,34.9579 76.6387,110.7069 21.7954,32.6958 44.871,66.5652 51.2223,75.5311 41.8194,58.0034 79.3605,95.4647 127.9648,127.7212 29.558,19.7292 54.8474,33.1732 121.7583,65.0671 l 37.4975,17.9165 15.363,-0.8752 c 16.6614,-0.8516 19.8392,-0.2197 19.1833,3.9075 -0.3886,2.1771 -1.8162,2.8416 -9.8684,4.3072 -26.2917,5.0485 -42.6044,6.2509 -80.3797,5.8052 -20.0698,-0.1293 -38.1274,-0.5678 -40.1304,-0.8336 z m 36.9256,-20.3784 c -77.1425,-27.019 -140.8511,-67.2487 -196.971,-124.3579 -34.6267,-35.1098 -55.4311,-63.305 -88.9969,-120.5851 -17.9351,-30.4428 -72.5432,-115.8069 -83.9858,-131.3032 -18.7291,-25.0534 -27.3359,-33.2554 -62.354,-58.6 -48.5568,-35.2445 -93.4461,-63.5256 -105.0878,-66.4929 -2.9399,-0.7423 -0.9754,1.9366 13.2965,17.7131 39.213,43.6996 47.302,54.7667 81.1313,110.3272 5.6394,9.1838 13.8245,21.6315 18.2149,27.6889 9.0132,12.3482 9.7013,13.6248 8.5026,14.7531 -1.3184,1.2414 -25.8149,-24.9504 -40.2825,-43.2593 -7.292,-9.2128 -23.6008,-30.5441 -36.2,-47.5556 -12.5992,-17.0106 -26.2443,-35.0745 -30.4132,-40.208 -11.5807,-14.2332 -24.9119,-29.7629 -25.2715,-29.4248 -0.2395,0.226 0.6423,4.1507 1.7478,8.8846 3.2185,12.934 5.0443,24.3483 8.5953,53.4991 4.8012,39.6348 10.5225,65.9504 22.0068,101.1063 24.8748,76.6694 62.9095,135.0652 118.7144,182.2808 98.794,83.6264 235.9617,137.4719 383.6912,150.8073 6.837,0.6971 17.2169,1.3426 23.0006,1.4466 l 10.6215,0.3047 z M 1755.4389,3813.9588 c -36.3177,-32.7256 -92.7529,-40.2893 -142.3265,-18.987 -8.321,3.5296 -25.8386,13.6782 -25.0252,14.4982 0.4669,0.3526 49.3823,5.5972 61.0569,6.4959 3.5374,0.293 30.092,0.9981 59.009,1.631 l 52.5242,1.0542 z"
         id="path4-6-4-6-5-7"
         style="fill:#000000;stroke:#000000;stroke-width:27.37281418;stroke-miterlimit:4;stroke-dasharray:none;stroke-opacity:1" />
      <path
         inkscape:connector-curvature="0"
         d="m 2068.0122,4152.9625 c -15.3045,-2.8028 -30.2834,-11.2344 -41.5411,-23.5075 -17.9906,-19.5213 -13.7537,-40.9449 11.0208,-54.528 6.6703,-3.6743 8.8965,-2.6002 3.0452,1.5496 -11.4631,8.0727 -16.7809,15.7955 -16.9216,24.6448 -0.2469,15.5171 20.1612,31.5178 43.7319,34.2391 9.6625,1.207 18.0761,-0.7115 24.7647,-5.5357 6.091,-4.3741 14.658,-15.9484 20.0325,-27.2342 2.076,-4.3316 4.4987,-8.1966 5.2143,-8.6441 2.8603,-1.6735 6.6228,-0.6862 8.9378,2.2295 2.0845,2.5667 2.4039,4.7565 2.2706,13.1474 -0.2267,14.2522 -2.6859,20.4164 -11.4469,29.3416 -8.2797,8.3602 -18.0391,13.2442 -29.3979,14.7649 -8.7549,1.1084 -11.1156,1.0659 -19.7103,-0.4674 z"
         id="path6-0-2-1-2-4"
         style="fill:#000000;stroke:#000000;stroke-width:27.37281418;stroke-miterlimit:4;stroke-dasharray:none;stroke-opacity:1" />
      <path
         inkscape:connector-curvature="0"
         d="m 1645.4855,4112.9805 c -18.551,-6.5403 -31.6314,-22.9849 -36.3489,-45.6037 -5.7104,-27.0045 7.488,-47.693 29.9149,-47.2916 4.6034,0.081 17.5381,3.4175 18.9326,4.8225 0.5809,0.5849 -3.4359,0.7432 -8.9781,0.2993 -12.8531,-1.0352 -17.5892,-0.1999 -22.7323,3.9617 -6.1022,5.0648 -8.211,11.4649 -7.8054,23.0844 0.3441,8.0537 1.005,11.0553 4.5472,18.4761 4.5661,9.8538 12.4537,18.733 19.9514,22.4316 7.8481,3.9338 20.7251,3.4745 35.9159,-1.4275 11.6297,-3.7005 12.5758,-3.7982 14.555,-2.0388 3.608,3.2837 2.4927,6.5981 -4.2123,12.4567 -8.2634,7.325 -13.2665,10.1096 -21.7999,12.1411 -9.2433,2.1346 -12.6646,1.9583 -21.9401,-1.3118 z"
         id="path8-0-7-7-0-0"
         style="fill:#000000;stroke:#000000;stroke-width:27.37281418;stroke-miterlimit:4;stroke-dasharray:none;stroke-opacity:1" />
    </g>
  </g>
</svg>
