<?xml version="1.0" encoding="UTF-8" standalone="no"?>
<!-- Created with Inkscape (http://www.inkscape.org/) -->

<svg
   xmlns:dc="http://purl.org/dc/elements/1.1/"
   xmlns:cc="http://creativecommons.org/ns#"
   xmlns:rdf="http://www.w3.org/1999/02/22-rdf-syntax-ns#"
   xmlns:svg="http://www.w3.org/2000/svg"
   xmlns="http://www.w3.org/2000/svg"
   xmlns:sodipodi="http://sodipodi.sourceforge.net/DTD/sodipodi-0.dtd"
   xmlns:inkscape="http://www.inkscape.org/namespaces/inkscape"
   width="136.1423mm"
   height="78.212204mm"
   viewBox="0 0 136.1423 78.212204"
   version="1.1"
   id="svg1455"
   inkscape:version="0.92.4 (5da689c313, 2019-01-14)"
   sodipodi:docname="gallery.svg">
  <defs
     id="defs1449" />
  <sodipodi:namedview
     id="base"
     pagecolor="#ffffff"
     bordercolor="#666666"
     borderopacity="1.0"
     inkscape:pageopacity="0.0"
     inkscape:pageshadow="2"
     inkscape:zoom="0.98994949"
     inkscape:cx="155.3134"
     inkscape:cy="147.80261"
     inkscape:document-units="mm"
     inkscape:current-layer="layer1"
     showgrid="false"
     fit-margin-top="0"
     fit-margin-left="0"
     fit-margin-right="0"
     fit-margin-bottom="0"
     inkscape:window-width="1366"
     inkscape:window-height="705"
     inkscape:window-x="-8"
     inkscape:window-y="-8"
     inkscape:window-maximized="1" />
  <metadata
     id="metadata1452">
    <rdf:RDF>
      <cc:Work
         rdf:about="">
        <dc:format>image/svg+xml</dc:format>
        <dc:type
           rdf:resource="http://purl.org/dc/dcmitype/StillImage" />
        <dc:title></dc:title>
      </cc:Work>
    </rdf:RDF>
  </metadata>
  <g
     inkscape:label="Layer 1"
     inkscape:groupmode="layer"
     id="layer1"
     transform="translate(-46.833613,-109.72723)">
    <g
       transform="matrix(0.02966805,0,0,-0.02985292,-101.56334,260.0498)"
       style="fill:#000000;stroke:none"
       id="g1111">
      <g
         transform="matrix(0.80170836,0,0,0.68801608,4941.399,2463.877)"
         id="g1007">
        <g
           id="g997">
          <path
             id="path18-47"
             d="m 2745,1992 c -11,-2 -23,-9 -27,-16 -4,-6 -8,-303 -8,-661 0,-357 4,-655 8,-661 14,-22 52,-26 77,-10 l 25,16 v 654 c 0,511 -3,656 -12,663 -19,15 -41,20 -63,15 z"
             inkscape:connector-curvature="0" />
          <path
             id="path20"
             d="m 3020,1990 -25,-6 -3,-649 c -1,-358 0,-660 3,-671 7,-29 50,-39 81,-19 l 24,15 v 654 c 0,511 -3,656 -12,663 -21,16 -41,20 -68,13 z"
             inkscape:connector-curvature="0" />
          <path
             id="path22-99"
             d="m 1080,1920 c -244,-34 -449,-206 -527,-445 -33,-102 -38,-274 -9,-370 69,-231 261,-418 474,-464 75,-16 217,-14 287,4 113,30 187,71 264,149 l 71,73 v 220 c 0,173 -3,223 -14,239 -13,18 -28,19 -206,19 -207,0 -210,-1 -210,-57 0,-17 7,-31 19,-38 11,-5 81,-10 156,-10 h 135 l -2,-182 -3,-183 -61,-46 C 1304,716 1077,703 910,798 809,856 715,968 670,1085 c -35,92 -40,249 -10,347 30,99 77,173 157,248 164,153 375,180 582,74 47,-24 95,-44 106,-44 54,0 62,66 13,104 -109,83 -291,127 -438,106 z"
             inkscape:connector-curvature="0" />
          <path
             id="path24-1"
             d="m 2037,1471 c -177,-58 -297,-226 -297,-414 0,-175 89,-315 248,-390 62,-30 74,-32 172,-32 122,1 176,21 242,88 l 38,39 v -48 c 0,-64 10,-78 55,-78 21,0 40,6 46,15 5,8 9,188 9,411 0,431 0,428 -55,428 -38,0 -55,-26 -55,-81 v -49 l -35,39 c -50,55 -121,83 -225,87 -65,3 -99,0 -143,-15 z m 217,-105 c 66,-20 124,-63 158,-115 27,-44 28,-48 28,-194 0,-148 0,-148 -30,-191 -58,-85 -168,-133 -283,-124 -190,16 -314,208 -263,408 9,36 28,82 41,102 27,41 96,92 153,113 49,18 137,18 196,1 z"
             inkscape:connector-curvature="0" />
          <path
             id="path26-8"
             d="m 3527,1480 c -108,-28 -220,-121 -268,-224 -144,-310 83,-647 420,-623 126,8 222,62 292,163 35,51 38,89 8,104 -31,17 -63,5 -95,-37 -64,-84 -137,-123 -235,-123 -96,0 -154,23 -220,89 -64,65 -99,142 -99,221 v 50 h 338 c 289,0 341,2 360,16 30,21 28,48 -13,132 -44,92 -114,163 -201,204 -56,26 -80,31 -158,34 -50,2 -108,-1 -129,-6 z m 237,-120 c 53,-20 118,-78 145,-129 l 12,-21 h -281 c -154,0 -280,3 -280,8 0,15 59,79 99,106 22,15 57,34 78,42 58,20 163,17 227,-6 z"
             inkscape:connector-curvature="0" />
          <path
             id="path28-4"
             d="m 4190,1483 c -8,-3 -18,-11 -22,-17 -11,-16 -9,-798 1,-815 6,-9 25,-15 46,-15 21,0 40,6 46,15 5,7 9,138 9,290 0,274 0,275 25,326 34,68 88,105 161,111 46,4 61,1 84,-17 56,-41 104,-21 98,41 -3,29 -10,36 -57,61 -95,47 -204,34 -272,-34 l -39,-39 v 33 c 0,17 -4,37 -8,44 -9,14 -52,24 -72,16 z"
             inkscape:connector-curvature="0" />
        </g>
        <path
           inkscape:connector-curvature="0"
           d="m 4729,1469 c -20,-20 -20,-28 -17,-317 3,-333 4,-335 77,-415 54,-59 125,-89 222,-95 86,-5 134,7 179,45 l 30,25 v -89 c 0,-206 -77,-296 -263,-309 -104,-7 -116,-11 -123,-38 -16,-66 24,-84 148,-67 156,22 260,86 313,195 39,81 46,180 43,639 -3,401 -4,419 -22,433 -27,19 -52,18 -76,-6 -19,-19 -20,-33 -20,-304 0,-295 -3,-321 -43,-364 -37,-40 -75,-54 -145,-53 -82,0 -148,31 -177,81 -18,32 -20,58 -25,333 -5,281 -6,299 -24,313 -28,20 -52,18 -77,-7 z"
           id="path30-76" />
      </g>
      <path
         inkscape:connector-curvature="0"
         d="m 7294.915,4805.9599 c -61.8539,-8.351 -113.7475,-34.228 -160.9504,-80.37 -68.0134,-66.519 -113.8167,-163.568 -124.7301,-264.362 -2.1498,-20.732 -2.4145,-63.505 -0.3727,-87.958 4.965,-59.809 17.2919,-99.943 40.599,-132.637 34.1771,-48.02 71.2992,-73.339 99.7854,-67.885 7.7703,1.403 10.6958,3.065 9.713,5.462 -0.4882,1.025 -3.6846,1.544 -10.4183,1.768 -8.386,0.195 -10.8739,0.725 -18.6046,4.266 -32.4725,15.054 -69.7631,73.251 -82.6889,128.78 -12.5532,54.386 -14.8156,107.576 -6.5428,151.642 2.6173,13.613 12.8992,50.128 21.6859,76.728 19.8281,59.908 45.1194,110.372 72.6767,144.552 9.9555,12.479 40.0557,42.68 52.2958,52.556 31.4771,25.282 63.5633,41.952 94.8569,49.065 14.9393,3.487 42.5654,3.636 59.0271,0.481 39.7917,-7.565 69.0662,-21.987 95.9137,-47.145 32.7244,-30.916 51.7612,-69.78 61.6306,-126.168 2.5856,-14.095 3.0549,-21.329 3.5079,-49.834 0.6788,-35.283 -0.168,-48.864 -4.6686,-77.687 -7.9363,-50.384 -28.3125,-112.946 -52.9011,-163.053 -23.1069,-46.747 -45.3277,-74.966 -74.5317,-94.689 -12.5003,-8.387 -39.2133,-21.396 -55.6508,-27.208 -17.9646,-6.301 -32.5425,-10.24 -70.5384,-19.083 -16.8226,-3.865 -31.2844,-7.688 -31.9836,-8.275 -0.8152,-0.705 -1.4959,-2.441 -1.4742,-3.821 0.053,-3.563 1.8456,-4.68 9.5399,-5.923 25.2184,-4.376 55.8529,-0.38 91.5514,11.871 35.8148,12.368 64.0076,28.854 84.5767,49.571 66.2374,66.832 118.2916,179.169 129.7932,280.087 2.2771,20.161 1.8235,70.969 -0.8258,89.086 -9.5382,65.247 -31.6025,108.885 -76.3115,150.969 -33.5598,31.476 -68.2171,50.286 -106.7103,57.875 -8.646,1.684 -38.4131,2.531 -47.2494,1.339 z"
         id="path2-5-9-7-3-6-6"
         style="fill:#000000;stroke:#000000;stroke-width:27.37281418;stroke-miterlimit:4;stroke-dasharray:none;stroke-opacity:1" />
      <path
         inkscape:connector-curvature="0"
         d="m 8081.8237,4659.0839 c -1.885,-0.264 -9.3085,-1.201 -16.4977,-2.02 -31.5845,-3.669 -68.7687,-11.577 -110.843,-23.827 -96.1371,-27.933 -158.4884,-56.986 -212.4889,-98.882 -59.4805,-46.248 -103.3035,-97.043 -129.7257,-150.631 -9.8368,-19.951 -14.9457,-32.804 -23.9393,-61.248 -9.8956,-31.103 -16.0095,-55.011 -19.3269,-76.57 -3.0037,-19.024 -3.3844,-24.779 -4.5163,-57.565 -0.9165,-24.045 -2.778,-40.634 -5.7915,-51.61 -1.4466,-5.544 -3.533,-7.996 -25.146,-29.882 -23.7048,-23.993 -33.1362,-32.324 -50.4174,-44.476 l -9.5748,-6.724 -30.362,-6.292 c -48.7191,-10.185 -81.5451,-17.44 -191.6598,-42.519 -105.4098,-23.96 -153.2989,-34.36 -154.2577,-33.457 -0.2392,0.226 2.5565,2.575 6.1754,5.169 38.6443,27.479 68.0202,73.533 85.3584,134.087 7.8332,27.158 23.0801,100.436 21.5072,102.822 -3.872,5.909 -9.2637,-11.432 -22.3546,-71.795 -14.4104,-66.48 -38.2275,-113.125 -75.6853,-148.4 -7.5609,-7.149 -26.0984,-21.967 -31.4787,-25.167 -2.2226,-1.304 -49.4402,-9.392 -75.8291,-13.084 -27.2152,-3.705 -57.6265,-6.894 -81.6876,-8.475 l -16.1582,-1.094 2.1623,5.098 c 3.7619,8.46 7.6446,24.165 8.9964,35.686 3.433,29.148 -6.4364,63.233 -26.9884,93.447 -12.817,18.971 -35.2826,43.287 -57.5515,62.663 -11.0146,9.575 -13.2993,12.178 -13.8244,15.504 -0.7814,4.584 -3.2856,6.148 -3.8156,2.346 -0.3187,-2.191 -1.8703,-1.184 -13.2298,7.81 -7.1736,5.62 -13.3865,10.223 -13.8586,10.215 -3.305,-0.05 -0.8932,-3.235 11.5726,-14.969 l 14.1439,-13.313 -2.7085,-7.867 c -11.1651,-32.966 -45.5115,-56 -96.4987,-64.615 -52.7541,-8.876 -133.4339,0.947 -190.8145,23.143 -60.5895,23.52 -124.6845,74.454 -153.7842,122.45 -12.4884,20.586 -19.8957,40.918 -25.0575,68.533 -1.8078,9.74 -2.428,19.041 -2.7824,41.339 -0.4,25.171 -0.1264,30.235 1.9373,41.539 5.7809,29.995 16.3132,50.763 34.5763,67.99 18.2613,17.342 47.7149,28.792 87.0732,33.635 14.965,1.877 46.3772,1.519 63.6508,-0.701 62.5855,-7.963 133.5464,-37.734 198.3818,-83.252 26.3875,-18.498 39.5432,-29.069 56.9233,-45.428 19.0602,-18.054 32.3145,-34.832 42.2913,-53.394 17.4072,-32.915 20.0178,-63.45 8.292,-98.265 -4.6203,-13.879 -4.4475,-17.325 1.135,-19.41 3.2072,-1.207 4.0316,-1.077 8.1207,1.64 6.1901,4.25 17.878,19.175 22.5603,29.146 6.0568,12.64 7.7955,22.099 6.848,37.142 -1.939,32.847 -23.276,67.876 -65.2281,107.364 -42.19,39.6 -98.8583,76.41 -165.3522,107.411 -90.4017,42.071 -166.4075,54.967 -223.6372,37.963 -65.9261,-19.575 -106.588,-83.535 -105.2836,-165.6 0.8788,-55.284 20.0835,-104.722 58.4697,-150.139 9.987,-11.777 34.3174,-34.566 48.5391,-45.348 24.0231,-18.31 59.1763,-38.605 83.1804,-48.294 31.8457,-12.766 80.9008,-23.73 127.0208,-28.308 23.653,-2.451 68.7428,-1.645 86.7585,1.438 36.6198,6.288 58.8949,16.229 76.9093,34.257 8.2526,8.195 10.9109,11.807 14.6781,19.922 4.5662,9.854 8.1479,22.22 8.0547,28.082 -0.03,1.724 0.423,3.112 1.013,3.122 1.8886,0.04 37.1575,-34.975 47.7457,-47.433 24.4217,-28.535 36.9888,-54.063 40.7469,-82.508 2.6877,-20.531 -0.7328,-43.012 -9.1811,-61.213 l -3.9979,-8.464 -61.1335,-1.669 c -53.8173,-1.423 -64.7892,-1.964 -92.8398,-5.11 -17.4437,-1.922 -40.3099,-4.4 -50.6843,-5.391 -23.5781,-2.261 -88.616,-3.425 -149.3158,-2.672 -207.256,2.73 -248.8778,6.584 -465.0624,43.644 -36.9369,6.237 -68.1898,11.427 -69.4882,11.403 -5.9018,-0.106 -1.1457,-2.205 12.2454,-5.3 7.9413,-1.926 29.9838,-7.051 48.8283,-11.542 158.6881,-37.285 239.6149,-47.794 401.672,-51.906 121.1893,-3.12 183.2873,-2.699 224.8974,1.61 l 11.7891,1.13 6.0911,-4.374 c 23.883,-16.934 54.8696,-27.646 84.0555,-29.078 26.2317,-1.256 46.0087,2.432 66.0394,12.449 13.2376,6.56 23.3843,14.444 31.2537,24.472 l 5.4417,6.766 22.641,1.785 c 29.5998,2.254 56.1177,5.258 84.6241,9.447 12.6042,1.835 26.6268,3.581 30.9906,3.888 4.4815,0.31 8.6056,0.845 9.1903,1.2 0.585,0.356 16.2378,3.51 34.8383,6.946 44.6187,8.157 77.0944,15.176 169.7963,36.379 114.3476,26.19 149.529,33.834 151.7828,33.183 2.7276,-0.755 23.4399,3.525 35.8914,7.541 5.4039,1.707 20.9317,5.319 34.3495,7.973 260.1019,52.366 449.6097,59.436 626.3447,23.28 23.0992,-4.76 59.4933,-13.997 81.6813,-20.843 16.6091,-4.991 19.6872,-5.511 19.6488,-3.097 -0.03,1.839 -40.2738,15.605 -71.2256,24.133 -92.0308,25.716 -186.0707,36.68 -296.2002,34.824 -25.4958,-0.456 -39.5495,-0.248 -38.3801,0.463 4.6776,2.843 49.8512,20.667 60.5432,23.962 20.5612,6.347 52.1073,12.43 87.4578,16.856 17.5563,2.269 93.5736,3.514 117.4461,2.102 104.9513,-6.629 187.5095,-23.203 276.9298,-55.518 71.8448,-25.962 131.8157,-55.126 204.425,-99.47 31.3558,-19.098 56.4918,-33.134 108.0435,-60.034 23.6939,-12.453 42.8676,-22.802 42.6353,-23.036 -0.2318,-0.234 -3.0782,0.52 -6.5213,1.723 -19.2406,7.129 -72.1003,19.749 -107.1432,25.675 -60.1433,10.306 -94.7846,13.25 -201.3464,17.207 -69.5837,2.548 -98.8895,4.093 -130.4582,6.863 -33.1068,2.971 -42.4443,3.609 -98.688,6.281 -98.0726,4.684 -139.9469,9.568 -185.1215,21.522 -26.9148,7.106 -44.9694,13.911 -96.2141,36.333 -56.1204,24.634 -82.9518,33.925 -111.8442,39.157 -24.2723,4.279 -63.6021,5.07 -63.54,1.163 0.015,-0.921 3.6846,-1.545 11.6022,-1.978 24.8133,-1.165 51.4701,-6.896 78.5449,-16.644 8.7876,-3.177 36.7291,-15.439 62.1824,-27.17 64.2311,-29.777 80.7458,-36.265 112.9868,-44.196 45.5198,-11.372 88.3439,-16.584 179.819,-22.19 24.1104,-1.523 57.0864,-3.693 73.283,-5.012 40.5484,-3.183 80.8464,-5.451 140.0373,-7.841 139.8828,-5.545 194.8719,-10.999 257.7959,-25.394 38.2737,-8.628 66.99,-17.656 103.9479,-32.631 83.8943,-33.794 82.7066,-33.355 85.3868,-31.123 0.9315,0.821 1.7376,2.101 1.7249,2.905 -0.023,1.38 -15.4313,12.601 -24.4879,17.842 -1.9069,1.115 -10.7365,6.936 -19.4482,12.758 -21.2408,14.107 -48.7775,30.629 -87.8552,52.694 -17.6319,9.917 -46.1221,26.997 -63.1766,37.729 -75.3789,47.743 -96.9609,61.037 -120.4296,74.184 -105.0728,58.823 -189.2664,89.163 -303.4061,109.31 -62.0427,10.961 -112.7624,15.228 -168.4755,14.23 -45.4441,-0.812 -79.1531,-4.52 -119.0431,-13.052 -50.8345,-10.797 -93.6657,-27.429 -137.2968,-53.158 l -10.6463,-6.169 -17.5672,-1.579 c -62.3663,-5.829 -130.3436,-15.209 -198.9796,-27.704 -15.5388,-2.922 -28.3755,-4.991 -28.4953,-4.878 -0.2393,0.225 4.1926,3.639 9.7963,7.647 15.0603,10.732 35.1866,29.602 50.6058,47.468 13.7996,15.769 13.7996,15.769 19.8068,16.681 14.6073,2.1 33.7485,8.651 51.5529,17.593 15.5765,7.981 65.1725,37.266 75.797,44.814 14.7081,10.611 40.6318,36.138 55.3338,54.566 14.7019,18.428 26.128,34.958 76.6386,110.707 21.7955,32.696 44.871,66.565 51.2223,75.531 41.8194,58.004 79.3605,95.465 127.9649,127.721 29.558,19.73 54.8474,33.174 121.7582,65.067 l 37.4976,17.917 15.363,-0.875 c 16.6614,-0.852 19.8392,-0.22 19.1832,3.907 -0.3885,2.177 -1.8162,2.842 -9.8683,4.307 -26.2918,5.049 -42.6044,6.251 -80.3797,5.806 -20.0698,-0.13 -38.1274,-0.568 -40.1304,-0.834 z m 36.9255,-20.378 c -77.1424,-27.019 -140.8511,-67.249 -196.971,-124.358 -34.6266,-35.11 -55.431,-63.305 -88.9968,-120.585 -17.9351,-30.443 -72.5432,-115.807 -83.9858,-131.303 -18.7292,-25.054 -27.336,-33.256 -62.3541,-58.6 -48.5568,-35.245 -93.446,-63.526 -105.0878,-66.493 -2.9399,-0.743 -0.9753,1.936 13.2966,17.713 39.2129,43.699 47.3019,54.766 81.1313,110.327 5.6394,9.184 13.8244,21.631 18.2148,27.689 9.0132,12.348 9.7014,13.625 8.5026,14.753 -1.3184,1.241 -25.8149,-24.95 -40.2825,-43.259 -7.292,-9.213 -23.6007,-30.544 -36.2,-47.556 -12.5991,-17.011 -26.2443,-35.074 -30.4131,-40.208 -11.5808,-14.233 -24.912,-29.763 -25.2716,-29.425 -0.2392,0.226 0.642,4.151 1.7478,8.885 3.2186,12.934 5.0444,24.348 8.5953,53.499 4.8012,39.635 10.5225,65.95 22.0069,101.106 24.8748,76.67 62.9094,135.065 118.7143,182.281 98.7941,83.626 235.9618,137.472 383.6913,150.807 6.837,0.697 17.2168,1.343 23.0005,1.447 l 10.6215,0.305 z m -1240.8088,-712.248 c -36.3177,-32.726 -92.7529,-40.29 -142.3265,-18.987 -8.321,3.529 -25.8386,13.678 -25.0252,14.498 0.4669,0.352 49.3823,5.597 61.0569,6.496 3.5374,0.293 30.0921,0.998 59.0091,1.631 l 52.5241,1.054 z"
         id="path4-6-4-6-5-7-3"
         style="fill:#000000;stroke:#000000;stroke-width:27.37281418;stroke-miterlimit:4;stroke-dasharray:none;stroke-opacity:1" />
      <path
         inkscape:connector-curvature="0"
         d="m 7190.5137,4265.4609 c -15.3045,-2.803 -30.2834,-11.234 -41.5411,-23.507 -17.9906,-19.522 -13.7537,-40.945 11.0208,-54.528 6.6703,-3.675 8.8965,-2.6 3.0452,1.549 -11.4631,8.073 -16.7809,15.796 -16.9216,24.645 -0.2468,15.517 20.1612,31.518 43.7319,34.239 9.6625,1.207 18.0761,-0.711 24.7648,-5.535 6.0909,-4.375 14.658,-15.949 20.0325,-27.235 2.076,-4.331 4.4986,-8.196 5.2143,-8.644 2.8602,-1.673 6.6228,-0.686 8.9377,2.23 2.0846,2.566 2.4039,4.756 2.2706,13.147 -0.2265,14.252 -2.6859,20.417 -11.4468,29.342 -8.2797,8.36 -18.0392,13.244 -29.3979,14.765 -8.7549,1.108 -11.1156,1.066 -19.7104,-0.468 z"
         id="path6-0-2-1-2-4-3"
         style="fill:#000000;stroke:#000000;stroke-width:27.37281418;stroke-miterlimit:4;stroke-dasharray:none;stroke-opacity:1" />
      <path
         inkscape:connector-curvature="0"
         d="m 6767.987,4225.4789 c -18.551,-6.54 -31.6314,-22.985 -36.3489,-45.603 -5.7104,-27.005 7.488,-47.693 29.9149,-47.292 4.6034,0.08 17.5381,3.417 18.9326,4.822 0.5812,0.585 -3.4359,0.744 -8.9781,0.3 -12.8531,-1.035 -17.5892,-0.2 -22.7323,3.961 -6.1022,5.065 -8.211,11.465 -7.8054,23.085 0.3443,8.054 1.005,11.055 4.5472,18.476 4.5661,9.854 12.4537,18.733 19.9514,22.432 7.8481,3.933 20.7251,3.474 35.9159,-1.428 11.6298,-3.7 12.5758,-3.798 14.5551,-2.039 3.6079,3.284 2.4927,6.598 -4.2123,12.457 -8.2635,7.325 -13.2666,10.11 -21.8,12.141 -9.2433,2.135 -12.6646,1.958 -21.9401,-1.312 z"
         id="path8-0-7-7-0-0-2"
         style="fill:#000000;stroke:#000000;stroke-width:27.37281418;stroke-miterlimit:4;stroke-dasharray:none;stroke-opacity:1" />
    </g>
  </g>
</svg>
