<?xml version="1.0" encoding="UTF-8" standalone="no"?>
<svg
   xmlns:dc="http://purl.org/dc/elements/1.1/"
   xmlns:cc="http://creativecommons.org/ns#"
   xmlns:rdf="http://www.w3.org/1999/02/22-rdf-syntax-ns#"
   xmlns:svg="http://www.w3.org/2000/svg"
   xmlns="http://www.w3.org/2000/svg"
   xmlns:sodipodi="http://sodipodi.sourceforge.net/DTD/sodipodi-0.dtd"
   xmlns:inkscape="http://www.inkscape.org/namespaces/inkscape"
   id="svg"
   version="1.1"
   width="601.07874"
   height="284.45398"
   viewBox="0 0 601.07873 284.45397"
   sodipodi:docname="hikayemis.svg"
   inkscape:version="0.92.4 (5da689c313, 2019-01-14)">
  <metadata
     id="metadata13">
    <rdf:RDF>
      <cc:Work
         rdf:about="">
        <dc:format>image/svg+xml</dc:format>
        <dc:type
           rdf:resource="http://purl.org/dc/dcmitype/StillImage" />
        <dc:title></dc:title>
      </cc:Work>
    </rdf:RDF>
  </metadata>
  <defs
     id="defs11" />
  <sodipodi:namedview
     pagecolor="#ffffff"
     bordercolor="#666666"
     borderopacity="1"
     objecttolerance="10"
     gridtolerance="10"
     guidetolerance="10"
     inkscape:pageopacity="0"
     inkscape:pageshadow="2"
     inkscape:window-width="1366"
     inkscape:window-height="705"
     id="namedview9"
     showgrid="false"
     fit-margin-top="0"
     fit-margin-left="0"
     fit-margin-right="0"
     fit-margin-bottom="0"
     inkscape:zoom="1.0040917"
     inkscape:cx="280.62339"
     inkscape:cy="134.7339"
     inkscape:window-x="-8"
     inkscape:window-y="-8"
     inkscape:window-maximized="1"
     inkscape:current-layer="g903" />
  <g
     id="g845"
     transform="translate(134.811,90.129414)">
    <g
       id="g858">
      <g
         id="g871">
        <g
           id="g903">
          <g
             id="g1451"
             transform="matrix(0.01601908,-0.00101417,-9.6965025e-4,-0.01528064,-17.613091,258.51093)"
             style="fill:#000000;stroke:#000000;stroke-width:234.974823;stroke-miterlimit:4;stroke-dasharray:none;stroke-opacity:1"
             inkscape:transform-center-x="-175.06654"
             inkscape:transform-center-y="246.88371">
            <path
               style="stroke:#000000;stroke-width:234.974823;stroke-miterlimit:4;stroke-dasharray:none;stroke-opacity:1"
               id="path2-5"
               d="m 13360,21794 c -525,-63 -968,-280 -1374,-674 -585,-568 -986,-1405 -1092,-2280 -21,-180 -29,-552 -15,-765 34,-521 133,-872 326,-1160 283,-423 594,-649 836,-606 66,11 91,25 83,46 -4,9 -31,14 -88,17 -71,3 -92,8 -157,40 -273,136 -581,648 -683,1133 -99,475 -111,938 -35,1320 24,118 116,434 194,664 176,518 397,953 635,1246 86,107 345,365 450,449 270,215 544,355 810,412 127,28 361,25 500,-5 336,-72 582,-202 806,-425 273,-274 429,-615 505,-1107 20,-123 23,-186 23,-434 1,-307 -8,-425 -50,-675 -74,-437 -255,-978 -470,-1410 -202,-403 -394,-645 -644,-812 -107,-71 -335,-180 -475,-228 -153,-52 -277,-84 -600,-155 -143,-31 -266,-62 -272,-67 -7,-6 -13,-21 -13,-33 0,-31 15,-41 80,-53 213,-42 473,-12 777,89 305,102 546,241 723,418 570,571 1026,1540 1137,2416 22,175 25,617 5,775 -72,569 -253,952 -626,1325 -280,279 -571,448 -896,520 -73,16 -325,28 -400,19 z"
               inkscape:connector-curvature="0" />
            <path
               style="stroke:#000000;stroke-width:234.974823;stroke-miterlimit:4;stroke-dasharray:none;stroke-opacity:1"
               id="path4-6"
               d="m 20005,20394 c -16,-2 -79,-9 -140,-15 -268,-27 -584,-90 -942,-190 -818,-228 -1350,-471 -1813,-827 -510,-393 -888,-828 -1119,-1290 -86,-172 -131,-283 -211,-529 -88,-269 -143,-476 -174,-663 -28,-165 -32,-215 -46,-500 -11,-209 -29,-353 -56,-448 -13,-48 -31,-69 -217,-256 -204,-205 -285,-276 -433,-379 l -82,-57 -258,-50 c -414,-81 -693,-139 -1629,-340 -896,-192 -1303,-275 -1311,-267 -2,2 22,22 53,44 331,233 586,629 741,1153 70,235 209,870 196,891 -32,52 -80,-98 -199,-621 -131,-576 -339,-978 -661,-1279 -65,-61 -224,-187 -270,-214 -19,-11 -420,-74 -644,-102 -231,-28 -489,-51 -693,-61 l -137,-7 19,44 c 33,73 68,209 81,309 33,253 -46,551 -216,817 -106,167 -293,382 -479,554 -92,85 -111,108 -115,137 -6,40 -27,54 -32,21 -3,-19 -16,-10 -111,70 -60,50 -112,91 -116,91 -28,0 -8,-28 96,-132 l 118,-118 -24,-68 c -99,-285 -393,-480 -826,-547 -448,-69 -1130,29 -1613,231 -510,214 -1046,667 -1286,1089 -103,181 -163,359 -203,600 -14,85 -18,166 -18,360 0,219 3,263 22,361 53,260 145,439 302,586 157,148 408,243 742,279 127,14 393,6 539,-16 529,-79 1126,-349 1669,-755 221,-165 331,-259 476,-404 159,-160 269,-308 351,-471 143,-289 161,-555 57,-856 -41,-120 -40,-150 7,-169 27,-11 34,-10 69,13 53,36 154,164 195,250 53,109 69,191 63,322 -12,286 -188,594 -538,944 -352,351 -827,680 -1386,960 -760,380 -1402,504 -1889,365 -561,-160 -914,-710 -914,-1424 0,-481 156,-914 475,-1315 83,-104 286,-306 405,-402 201,-163 496,-345 698,-433 268,-116 682,-219 1072,-266 200,-25 582,-25 735,-1 311,49 501,132 656,286 71,70 94,101 127,171 40,85 72,192 72,243 0,15 4,27 9,27 16,0 310,-310 398,-420 203,-252 306,-476 334,-724 20,-179 -12,-374 -86,-531 l -35,-73 -518,-5 c -456,-4 -549,-7 -787,-30 -148,-14 -342,-32 -430,-39 -200,-16 -751,-16 -1265,0 -1755,56 -2107,96 -3933,452 -312,60 -576,110 -587,110 -50,0 -10,-19 103,-48 67,-18 253,-66 412,-108 1339,-349 2023,-453 3395,-514 1026,-46 1552,-52 1905,-21 l 100,8 51,-39 c 200,-151 461,-249 708,-266 222,-15 390,14 561,98 113,55 200,122 268,208 l 47,58 192,12 c 251,15 476,37 718,69 107,14 226,27 263,29 38,2 73,6 78,9 5,3 138,28 296,55 379,64 655,120 1443,290 972,210 1271,271 1290,265 23,-7 199,27 305,60 46,14 178,43 292,64 2210,415 3816,447 5308,105 195,-45 502,-131 689,-194 140,-46 166,-51 166,-30 0,16 -339,142 -600,221 -776,238 -1571,348 -2504,349 -216,0 -335,4 -325,10 40,24 425,172 516,199 175,52 443,100 743,133 149,17 793,16 995,0 888,-74 1585,-231 2338,-526 605,-237 1109,-500 1718,-897 263,-171 474,-297 907,-539 199,-112 360,-205 358,-207 -2,-2 -26,5 -55,16 -162,65 -608,183 -904,240 -508,99 -801,130 -1703,181 -589,33 -837,51 -1104,80 -280,31 -359,38 -835,70 -830,56 -1184,105 -1565,216 -227,66 -379,128 -810,331 -472,223 -698,308 -942,358 -205,41 -538,54 -538,20 0,-8 31,-14 98,-19 210,-14 435,-68 663,-157 74,-29 309,-140 523,-246 540,-269 679,-328 951,-402 384,-106 746,-158 1520,-221 204,-17 483,-41 620,-55 343,-34 684,-60 1185,-90 1184,-70 1649,-126 2180,-261 323,-81 565,-164 876,-300 706,-307 696,-303 719,-284 8,7 15,18 15,25 0,12 -129,112 -205,159 -16,10 -90,62 -163,114 -178,126 -409,274 -737,472 -148,89 -387,242 -530,338 -632,427 -813,546 -1010,664 -882,528 -1591,805 -2555,998 -524,105 -953,150 -1425,150 -385,0 -671,-27 -1010,-95 -432,-86 -797,-224 -1170,-441 l -91,-52 -149,-11 c -529,-41 -1106,-112 -1689,-210 -132,-23 -241,-39 -242,-38 -2,2 36,31 84,65 129,91 302,252 435,405 119,135 119,135 170,142 124,16 287,70 439,145 133,67 557,314 648,378 126,90 349,308 476,466 127,158 226,300 664,951 189,281 389,572 444,649 362,498 685,818 1101,1091 253,167 469,280 1040,547 l 320,150 130,-10 c 141,-10 168,-5 163,31 -3,19 -15,25 -83,39 -222,48 -360,61 -680,63 -170,2 -323,1 -340,-1 z m 310,-183 c -657,-223 -1202,-563 -1685,-1051 -298,-300 -478,-542 -770,-1035 -156,-262 -630,-996 -729,-1129 -162,-215 -236,-285 -536,-500 -416,-299 -800,-538 -899,-562 -25,-6 -8,17 115,152 338,374 408,469 702,947 49,79 120,186 158,238 78,106 84,117 74,127 -11,11 -222,-213 -347,-370 -63,-79 -204,-262 -313,-408 -109,-146 -227,-301 -263,-345 -100,-122 -215,-255 -218,-252 -2,2 6,36 16,77 29,112 46,211 80,464 46,344 98,572 200,876 221,663 551,1165 1030,1567 848,712 2017,1159 3270,1252 58,5 146,9 195,9 l 90,1 z M 9710,14209 c -312,-279 -791,-336 -1208,-143 -70,32 -217,123 -210,130 4,3 419,41 518,47 30,2 255,4 500,5 l 445,1 z"
               inkscape:connector-curvature="0" />
            <path
               style="stroke:#000000;stroke-width:234.974823;stroke-miterlimit:4;stroke-dasharray:none;stroke-opacity:1"
               id="path6-0"
               d="m 12403,17109 c -130,-22 -258,-93 -355,-198 -155,-167 -122,-354 86,-476 56,-33 75,-24 26,13 -96,72 -140,140 -140,217 0,135 175,271 375,291 82,9 153,-9 209,-52 51,-39 122,-141 166,-240 17,-38 37,-72 43,-76 24,-15 56,-7 76,18 18,22 21,41 21,114 0,124 -20,178 -93,257 -69,74 -151,118 -247,133 -74,11 -94,11 -167,-1 z"
               inkscape:connector-curvature="0" />
            <path
               style="stroke:#000000;stroke-width:234.974823;stroke-miterlimit:4;stroke-dasharray:none;stroke-opacity:1"
               id="path8-0"
               d="m 8819,16827 c -158,-54 -271,-195 -314,-391 -52,-234 57,-416 247,-416 39,0 149,27 161,39 5,5 -29,7 -76,4 -109,-7 -149,1 -192,38 -51,45 -68,101 -63,202 4,70 10,96 41,160 40,85 108,161 172,192 67,33 176,27 304,-18 98,-34 106,-35 123,-20 31,28 22,57 -34,109 -69,65 -111,90 -183,109 -78,20 -107,19 -186,-8 z"
               inkscape:connector-curvature="0" />
          </g>
          <g
             transform="matrix(0.07156243,0,0,-0.07559934,-180.61096,428.37555)"
             style="fill:#000000;stroke:none"
             id="g1592">
            <path
               inkscape:connector-curvature="0"
               d="m 4319,4658 c -13,-5 -27,-14 -31,-21 -4,-7 -8,-168 -8,-358 0,-319 2,-352 20,-411 47,-151 183,-238 377,-239 90,-1 153,20 198,65 l 25,25 v -113 c 0,-129 -16,-197 -62,-264 -50,-73 -184,-122 -334,-122 -57,0 -84,-20 -84,-61 0,-53 20,-64 117,-63 214,4 379,88 451,231 50,98 52,121 52,731 0,505 -2,572 -16,586 -24,24 -79,24 -104,0 -13,-12 -16,-73 -20,-384 l -5,-368 -30,-43 c -16,-23 -50,-53 -75,-67 -40,-21 -55,-23 -130,-20 -127,6 -204,55 -230,146 -6,22 -10,173 -10,372 0,279 -2,339 -15,357 -17,24 -52,33 -86,21 z"
               id="path12" />
            <g
               id="g1559">
              <path
                 id="path2"
                 d="m 2300,5272 -25,-20 -3,-769 c -2,-422 0,-782 3,-800 8,-43 30,-63 70,-63 63,0 65,8 65,240 v 208 l 76,94 c 42,51 80,94 84,96 4,2 83,-135 176,-304 92,-168 174,-313 182,-320 18,-19 77,-18 96,2 9,8 16,28 16,43 0,17 -70,151 -186,354 l -186,327 29,34 c 15,19 56,66 91,105 67,77 78,113 44,144 -45,41 -60,29 -239,-185 l -168,-202 -6,498 c -7,541 -5,520 -65,532 -21,4 -37,0 -54,-14 z"
                 inkscape:connector-curvature="0" />
              <path
                 id="path4"
                 d="m 656,5174 c -14,-14 -16,-97 -16,-768 0,-717 1,-754 18,-769 25,-23 78,-21 102,3 19,19 20,33 20,375 v 355 l 388,-2 387,-3 3,-354 c 2,-313 4,-357 19,-373 22,-24 78,-23 103,2 20,20 20,33 20,763 0,833 4,787 -70,787 -72,0 -70,8 -70,-361 V 4500 H 1170 780 v 328 c 0,306 -1,330 -18,345 -23,21 -86,22 -106,1 z"
                 inkscape:connector-curvature="0" />
              <path
                 id="path6"
                 d="m 1964,5120 c -49,-20 -66,-77 -39,-129 16,-33 33,-41 81,-41 74,0 111,88 62,144 -25,29 -72,40 -104,26 z"
                 inkscape:connector-curvature="0" />
              <path
                 id="path8"
                 d="m 7914,5120 c -56,-23 -72,-103 -29,-145 27,-28 88,-34 116,-12 43,33 48,106 11,141 -23,20 -70,28 -98,16 z"
                 inkscape:connector-curvature="0" />
              <path
                 id="path10"
                 d="m 3515,4660 c -161,-33 -286,-134 -365,-295 -100,-202 -66,-427 89,-588 119,-125 262,-176 438,-156 90,10 172,48 230,105 l 43,43 v -39 c 0,-44 15,-91 33,-102 21,-13 75,-9 91,8 14,14 16,73 16,500 0,316 -4,492 -10,505 -8,14 -21,19 -54,19 -54,0 -66,-13 -73,-84 l -6,-56 -33,38 c -72,85 -254,131 -399,102 z m 154,-130 c 103,-17 193,-72 252,-154 l 29,-39 v -192 -192 l -31,-47 c -39,-59 -127,-122 -198,-143 -75,-21 -199,-14 -264,17 -195,92 -276,338 -181,551 50,110 177,193 319,208 6,0 39,-4 74,-9 z"
                 inkscape:connector-curvature="0" />
              <path
                 id="path14"
                 d="m 5610,4663 c -335,-56 -525,-436 -375,-749 86,-178 271,-296 467,-296 160,0 272,44 361,143 97,108 110,166 42,189 -44,15 -63,4 -109,-60 -42,-59 -122,-114 -188,-131 -79,-19 -194,-8 -260,24 -65,32 -136,98 -174,162 -29,49 -59,183 -50,220 l 6,25 h 408 c 311,0 413,3 432,13 63,32 7,199 -106,314 -115,117 -290,174 -454,146 z m 246,-152 c 25,-11 58,-30 75,-42 32,-23 109,-114 109,-130 0,-5 -143,-9 -341,-9 h -341 l 17,28 c 41,67 160,150 248,173 52,13 183,2 233,-20 z"
                 inkscape:connector-curvature="0" />
              <path
                 id="path16"
                 d="m 6381,4659 c -12,-5 -26,-20 -31,-34 -15,-39 -13,-940 1,-968 16,-30 28,-37 66,-37 64,0 63,-4 63,365 0,398 3,421 69,486 55,55 112,72 206,60 78,-9 124,-33 155,-78 l 25,-36 3,-361 c 1,-199 4,-371 7,-383 8,-33 33,-53 69,-53 66,0 66,0 66,362 0,179 5,349 10,379 24,127 128,193 270,170 80,-13 120,-34 150,-78 l 25,-36 6,-381 c 3,-210 6,-382 7,-383 1,-1 9,-9 18,-17 21,-22 77,-20 98,3 15,17 17,53 14,407 -3,384 -3,390 -27,441 -30,67 -92,124 -167,153 -47,19 -79,24 -164,24 -95,1 -111,-2 -166,-27 -34,-16 -78,-45 -98,-66 l -37,-38 -47,48 c -61,61 -130,83 -262,84 -105,0 -138,-11 -197,-68 l -33,-31 v 25 c 0,52 -49,86 -99,68 z"
                 inkscape:connector-curvature="0" />
              <path
                 id="path18"
                 d="m 7920,4659 c -13,-6 -28,-15 -32,-22 -4,-7 -8,-231 -8,-498 0,-458 1,-487 18,-502 25,-23 78,-21 102,3 19,19 20,33 20,503 0,448 -1,485 -17,499 -26,22 -54,28 -83,17 z"
                 inkscape:connector-curvature="0" />
              <path
                 id="path22"
                 d="m 1946,4638 c -14,-20 -16,-84 -16,-500 0,-465 1,-479 20,-498 26,-26 81,-26 103,-2 15,17 17,66 17,505 0,543 3,517 -70,517 -29,0 -43,-6 -54,-22 z"
                 inkscape:connector-curvature="0" />
              <path
                 style="fill:#000000;stroke:none;stroke-width:1.03208876"
                 id="path34-0-5"
                 d="m 8269.3307,4651.4594 c -13.6196,-9.1508 -19.9056,-26.4355 -19.9056,-51.8542 0,-65.0719 5.2383,-66.0887 315.3459,-66.0887 151.9108,0 275.5348,-3.0502 275.5348,-6.1004 0,-4.067 -100.5754,-142.3448 -224.1994,-308.0748 -380.3008,-511.4244 -372.9672,-501.2569 -372.9672,-530.7426 0,-57.9547 11.5242,-59.9882 400.2064,-59.9882 340.4897,0 355.1569,1.0167 375.0625,20.335 26.1915,25.4187 27.2392,73.2059 2.0953,94.5576 -16.7625,15.2512 -53.4307,17.2847 -298.5833,17.2847 -154.0061,0 -279.7254,3.0502 -279.7254,6.1005 0,3.0502 64.955,93.5408 144.5772,200.2994 404.397,543.9604 452.5894,612.0825 452.5894,638.518 0,59.9881 1.0477,59.9881 -391.8251,59.9881 -288.1067,0 -362.4906,-3.0502 -378.2055,-14.2344 z"
                 inkscape:connector-curvature="0" />
            </g>
          </g>
        </g>
      </g>
    </g>
  </g>
</svg>
