<?xml version="1.0" encoding="UTF-8" standalone="no"?>
<!-- Created with Inkscape (http://www.inkscape.org/) -->

<svg
   xmlns:dc="http://purl.org/dc/elements/1.1/"
   xmlns:cc="http://creativecommons.org/ns#"
   xmlns:rdf="http://www.w3.org/1999/02/22-rdf-syntax-ns#"
   xmlns:svg="http://www.w3.org/2000/svg"
   xmlns="http://www.w3.org/2000/svg"
   xmlns:sodipodi="http://sodipodi.sourceforge.net/DTD/sodipodi-0.dtd"
   xmlns:inkscape="http://www.inkscape.org/namespaces/inkscape"
   width="105.51198mm"
   height="73.996567mm"
   viewBox="0 0 105.51198 73.996567"
   version="1.1"
   id="svg831"
   inkscape:version="0.92.4 (5da689c313, 2019-01-14)"
   sodipodi:docname="iletisim.svg">
  <defs
     id="defs825" />
  <sodipodi:namedview
     id="base"
     pagecolor="#ffffff"
     bordercolor="#666666"
     borderopacity="1.0"
     inkscape:pageopacity="0.0"
     inkscape:pageshadow="2"
     inkscape:zoom="0.98994949"
     inkscape:cx="128.56216"
     inkscape:cy="141.32561"
     inkscape:document-units="mm"
     inkscape:current-layer="layer1"
     showgrid="false"
     fit-margin-top="0"
     fit-margin-left="0"
     fit-margin-right="0"
     fit-margin-bottom="0"
     inkscape:window-width="1366"
     inkscape:window-height="705"
     inkscape:window-x="-8"
     inkscape:window-y="-8"
     inkscape:window-maximized="1" />
  <metadata
     id="metadata828">
    <rdf:RDF>
      <cc:Work
         rdf:about="">
        <dc:format>image/svg+xml</dc:format>
        <dc:type
           rdf:resource="http://purl.org/dc/dcmitype/StillImage" />
        <dc:title></dc:title>
      </cc:Work>
    </rdf:RDF>
  </metadata>
  <g
     inkscape:label="Layer 1"
     inkscape:groupmode="layer"
     id="layer1"
     transform="translate(-49.23433,-112.22917)">
    <g
       id="g848"
       transform="matrix(1.1069611,0,0,1.0896399,-11.756047,-12.41381)">
      <g
         transform="matrix(0.01695043,0,0,-0.01574144,37.569065,215.58825)"
         id="g1126"
         style="fill:#000000;stroke:none">
        <g
           transform="matrix(0.93935304,0,0,0.91967786,357.17052,226.07309)"
           style="stroke:#000000;stroke-width:0;stroke-miterlimit:4;stroke-dasharray:none;stroke-opacity:1"
           id="g854">
          <path
             id="path2-3"
             d="m 1514.3265,4631.3654 c -25.8959,-27.8542 -25.0605,-84.4067 0,-102.1321 25.8958,-18.5694 76.0168,-16.8813 92.7238,1.6882 25.8959,28.6982 26.7312,63.305 1.6707,92.8473 -28.4019,33.7626 -67.6633,37.1389 -94.3945,7.5966 z"
             inkscape:connector-curvature="0"
             style="stroke:#000000;stroke-width:0;stroke-miterlimit:4;stroke-dasharray:none;stroke-opacity:1" />
          <path
             id="path4-4"
             d="m 1838.4424,4509.8198 c -33.414,-12.661 -33.414,-5.0644 -33.414,-700.5751 0,-658.3718 0,-669.3446 16.707,-686.226 21.7191,-21.9457 61.8159,-21.9457 83.535,0 16.707,16.8814 16.707,27.8542 16.707,686.226 0,522.4771 -2.5061,672.7209 -10.0242,683.6938 -11.6949,15.1932 -53.4624,25.322 -73.5108,16.8813 z"
             inkscape:connector-curvature="0"
             style="stroke:#000000;stroke-width:0;stroke-miterlimit:4;stroke-dasharray:none;stroke-opacity:1" />
          <path
             id="path6-6"
             d="m 1509.3144,4417.8166 c -11.6949,-11.8169 -13.3656,-81.8745 -13.3656,-649.0871 v -636.426 l 18.3777,-12.661 c 25.8958,-18.5695 61.8159,-16.8814 81.8643,3.3762 16.707,16.8814 16.707,27.8542 16.707,648.243 0,601.8194 -0.8354,633.0498 -15.0363,645.7108 -19.2131,17.7254 -71.8401,18.5695 -88.5471,0.8441 z"
             inkscape:connector-curvature="0"
             style="stroke:#000000;stroke-width:0;stroke-miterlimit:4;stroke-dasharray:none;stroke-opacity:1" />
          <path
             id="path8-1"
             d="m 3550.9104,4374.7692 c -55.1331,-21.9457 -65.1573,-98.7558 -17.5424,-135.0506 7.5182,-5.9085 27.5666,-10.9729 45.109,-10.9729 64.3219,0 96.9006,72.5897 54.2977,121.5456 -19.213,21.9457 -58.4745,33.7626 -81.8643,24.4779 z"
             inkscape:connector-curvature="0"
             style="stroke:#000000;stroke-width:0;stroke-miterlimit:4;stroke-dasharray:none;stroke-opacity:1" />
          <path
             id="path10-3"
             d="m 4514.9046,4372.237 c -74.3462,-31.2305 -51.7917,-143.4913 28.4019,-143.4913 44.2736,0 68.4987,21.1017 74.3462,64.1491 3.3414,27.8541 0.8353,37.9829 -15.0363,56.5524 -21.7191,25.322 -60.1452,35.4508 -87.7118,22.7898 z"
             inkscape:connector-curvature="0"
             style="stroke:#000000;stroke-width:0;stroke-miterlimit:4;stroke-dasharray:none;stroke-opacity:1" />
          <path
             id="path12-6"
             d="m 3040.5114,4307.2439 c -9.1889,-10.1288 -12.5303,-52.3321 -14.201,-168.8133 l -2.506,-154.4641 h -35.0847 c -19.2131,0 -39.2615,-3.3763 -44.2736,-6.7526 -17.5423,-10.9728 -28.4019,-43.8914 -23.3898,-64.9931 6.6828,-27.0101 26.7312,-37.983 68.4987,-37.983 h 33.414 l 3.3414,-263.3487 c 3.3414,-241.403 5.0121,-269.2572 21.7191,-319.0571 47.615,-147.7116 134.4914,-206.7963 272.3242,-184.8505 103.5835,16.8813 152.8691,69.2134 105.2542,113.1049 -13.3656,11.8169 -24.2252,13.505 -55.9685,9.2847 -113.6076,-16.0373 -121.9611,-16.0373 -150.3631,0 -65.1573,34.6067 -79.3582,116.4812 -76.0168,425.4095 l 2.506,215.2369 83.5351,2.5322 c 94.3945,2.5322 112.7722,11.8169 112.7722,57.3965 0,43.8915 -22.5544,54.0203 -118.6197,54.0203 h -81.8643 v 155.3082 c 0,129.9862 -2.5061,157.8404 -13.3656,168.8132 -17.5424,17.7254 -73.5109,17.7254 -87.7118,-0.844 z"
             inkscape:connector-curvature="0"
             style="stroke:#000000;stroke-width:0;stroke-miterlimit:4;stroke-dasharray:none;stroke-opacity:1" />
          <path
             id="path14-9"
             d="m 2367.2191,3979.7461 c -76.8522,-16.8813 -145.351,-57.3965 -205.4962,-121.5455 -191.2952,-205.9522 -153.7044,-529.2297 80.1936,-684.5379 74.3462,-48.9558 142.8449,-68.3694 239.7456,-68.3694 160.3872,0 273.9949,64.9932 350.8471,200.0438 19.213,32.9186 19.213,36.2948 6.6828,55.7084 -15.8717,23.6338 -52.6271,34.6067 -76.0169,22.7897 -8.3535,-5.0644 -25.8959,-24.4779 -40.0968,-43.8914 -30.0726,-42.2033 -65.1573,-72.5897 -116.1137,-99.5998 -33.414,-17.7254 -48.4503,-20.2576 -129.4793,-20.2576 -84.3704,0 -95.2299,1.6881 -136.9974,23.6338 -110.2663,59.0847 -184.6124,180.6302 -184.6124,303.8639 v 39.6711 h 344.9996 c 395.1207,0 385.9318,-0.844 385.0965,60.7728 0,59.0847 -51.7917,156.9964 -113.6076,218.6132 -106.9249,106.3524 -251.4405,146.8676 -405.1449,113.1049 z m 233.8981,-122.3896 c 51.7917,-19.4135 118.6197,-78.4982 142.8448,-124.9218 l 14.201,-27.0102 h -284.8544 c -197.978,0 -284.0191,2.5322 -284.0191,9.2848 0,5.0644 21.7191,31.2304 48.4503,58.2406 51.7917,51.488 114.443,89.471 172.0821,101.2879 50.9564,10.9729 136.9975,3.3763 191.2953,-16.8813 z"
             inkscape:connector-curvature="0"
             style="stroke:#000000;stroke-width:0;stroke-miterlimit:4;stroke-dasharray:none;stroke-opacity:1" />
          <path
             id="path16-7"
             d="m 3560.9346,3985.6546 c -44.2736,-6.7525 -44.2736,-8.4407 -41.7675,-448.1993 2.506,-391.6468 3.3414,-407.684 18.3777,-419.501 23.3898,-16.8813 66.828,-15.1932 82.6997,3.3763 12.5302,14.3491 14.2009,55.7084 14.2009,424.5654 0,224.5217 -3.3414,412.7485 -6.6828,418.6569 -8.3535,13.5051 -43.4382,25.322 -66.828,21.1017 z"
             inkscape:connector-curvature="0"
             style="stroke:#000000;stroke-width:0;stroke-miterlimit:4;stroke-dasharray:none;stroke-opacity:1" />
          <path
             id="path18-7"
             d="m 3979.4451,3978.9021 c -43.4382,-16.0373 -104.4188,-70.0576 -122.7965,-108.0405 -7.5182,-16.8814 -13.3656,-49.8 -13.3656,-79.3423 0,-43.0474 4.1767,-56.5524 27.5666,-91.1592 28.4019,-43.0473 42.6028,-52.3321 210.5082,-129.9862 128.644,-59.9287 162.8933,-97.9117 162.8933,-177.2539 0,-124.0778 -121.9611,-205.1082 -253.1111,-167.9692 -30.908,8.4406 -88.5471,59.0846 -136.9975,119.8574 -29.2372,37.1389 -86.8764,27.8542 -97.7359,-15.1932 -15.8717,-64.149 113.6076,-191.6031 222.2031,-218.6132 20.0484,-5.0644 22.5545,-9.2847 25.0605,-48.9558 2.5061,-42.2034 4.1768,-44.7356 40.0969,-65.8372 30.9079,-17.7254 37.5907,-27.0102 37.5907,-46.4237 0,-36.2948 -22.5544,-45.5796 -53.4624,-22.7898 -30.908,22.7898 -60.1452,23.6339 -78.5229,3.3763 -35.9201,-40.5152 -1.6707,-88.627 81.029,-112.2608 56.8038,-16.8814 126.9732,25.322 152.0337,90.3151 19.2131,52.3321 5.8475,119.0133 -30.908,151.0879 -14.2009,11.8169 -29.2372,21.1016 -33.414,21.1016 -4.1767,0 -7.5181,5.0644 -7.5181,11.8169 0,6.7526 11.6949,15.1932 27.5665,17.7254 76.0169,16.8814 166.2347,93.6914 199.6488,170.5014 24.2251,55.7084 28.4019,131.6744 11.6949,192.4472 -11.6949,39.6711 -24.2252,58.2406 -61.816,96.2236 -40.0968,39.6711 -65.9926,55.7083 -159.5519,97.0676 -128.6439,58.2406 -167.9054,89.471 -167.9054,132.5184 0,87.7829 112.7723,108.8846 192.1306,36.2949 53.4624,-48.9559 108.5955,-46.4237 121.1258,6.7525 5.0121,19.4135 -0.8354,29.5423 -33.414,64.9931 -21.7191,23.6339 -55.1331,50.644 -75.1816,59.9287 -48.4503,23.6339 -138.6681,29.5423 -185.4477,11.817 z"
             inkscape:connector-curvature="0"
             style="stroke:#000000;stroke-width:0;stroke-miterlimit:4;stroke-dasharray:none;stroke-opacity:1" />
          <path
             id="path20-64"
             d="m 4519.9167,3983.1224 c -10.8595,-5.0644 -23.3898,-12.661 -26.7312,-18.5695 -3.3414,-5.9084 -6.6828,-193.2912 -6.6828,-416.9688 0,-396.7112 0.8353,-408.5281 16.707,-424.5654 20.0484,-20.2576 55.9685,-21.9457 81.8643,-3.3762 l 18.3777,12.661 v 412.7484 c 0,363.7926 -1.6707,413.5926 -13.3656,425.4095 -6.6828,7.5966 -15.8716,13.5051 -20.0484,13.5051 -4.1767,0 -11.6949,1.6881 -18.3777,3.3762 -5.8474,2.5322 -20.0484,0 -31.7433,-4.2203 z"
             inkscape:connector-curvature="0"
             style="stroke:#000000;stroke-width:0;stroke-miterlimit:4;stroke-dasharray:none;stroke-opacity:1" />
          <path
             id="path22-3"
             d="m 5003.5845,3984.8105 c -34.2493,-10.9728 -60.1452,-26.166 -88.5471,-54.0202 l -27.5666,-26.1661 v 21.1017 c 0,36.2948 -21.7191,58.2406 -58.4745,58.2406 -60.9806,0 -59.3099,13.505 -56.8038,-446.5112 2.506,-391.6468 3.3414,-407.684 18.3777,-419.501 9.1888,-6.7525 28.4019,-11.8169 41.7675,-11.8169 52.6271,0 50.9564,-13.5051 55.1331,326.6537 4.1768,339.3147 5.0121,343.535 55.1331,394.179 37.5908,37.983 74.3462,50.644 146.1863,49.7999 77.6876,-1.6881 127.8086,-22.7898 157.8812,-67.5253 l 20.8838,-30.3864 4.1767,-324.9655 c 4.1768,-308.0843 5.0121,-324.1215 20.0485,-335.9385 23.3898,-16.8813 66.828,-15.1932 82.6996,3.3763 12.5303,14.3491 14.201,47.2677 14.201,297.9554 0,162.0608 4.1767,297.9555 9.1888,319.9012 22.5545,101.288 106.0895,151.932 222.2032,135.0506 67.6634,-9.2847 102.7481,-27.0101 127.8086,-64.9931 l 20.8838,-30.3864 4.1767,-324.9655 c 4.1768,-308.0843 5.0121,-324.1215 20.0484,-335.9385 23.3898,-16.8813 66.828,-15.1932 83.535,4.2204 13.3656,14.3491 14.201,43.8914 11.6949,343.535 -2.506,325.8096 -2.506,328.3418 -22.5544,373.0773 -24.2252,54.8643 -78.5229,104.6643 -142.0096,129.1422 -36.7554,15.1932 -65.1573,19.4135 -134.4914,19.4135 -79.3582,0.8441 -92.7238,-1.6881 -137.8327,-22.7898 -27.5666,-12.661 -65.1574,-38.827 -83.5351,-56.5524 l -33.414,-32.9186 -16.707,23.6338 c -23.3898,36.2949 -74.3462,65.8372 -138.6681,80.1864 -60.1453,14.3491 -139.5035,16.8813 -175.4236,5.9084 z"
             inkscape:connector-curvature="0"
             style="stroke:#000000;stroke-width:0;stroke-miterlimit:4;stroke-dasharray:none;stroke-opacity:1" />
        </g>
      </g>
      <g
         inkscape:transform-center-y="146.09212"
         inkscape:transform-center-x="-100.4029"
         style="fill:#000000;stroke:#000000;stroke-width:234.974823;stroke-miterlimit:4;stroke-dasharray:none;stroke-opacity:1"
         transform="matrix(0.00256649,-7.1692611e-5,-7.1845759e-5,-0.00234199,69.329178,178.85701)"
         id="g1451">
        <path
           inkscape:connector-curvature="0"
           d="m 13360,21794 c -525,-63 -968,-280 -1374,-674 -585,-568 -986,-1405 -1092,-2280 -21,-180 -29,-552 -15,-765 34,-521 133,-872 326,-1160 283,-423 594,-649 836,-606 66,11 91,25 83,46 -4,9 -31,14 -88,17 -71,3 -92,8 -157,40 -273,136 -581,648 -683,1133 -99,475 -111,938 -35,1320 24,118 116,434 194,664 176,518 397,953 635,1246 86,107 345,365 450,449 270,215 544,355 810,412 127,28 361,25 500,-5 336,-72 582,-202 806,-425 273,-274 429,-615 505,-1107 20,-123 23,-186 23,-434 1,-307 -8,-425 -50,-675 -74,-437 -255,-978 -470,-1410 -202,-403 -394,-645 -644,-812 -107,-71 -335,-180 -475,-228 -153,-52 -277,-84 -600,-155 -143,-31 -266,-62 -272,-67 -7,-6 -13,-21 -13,-33 0,-31 15,-41 80,-53 213,-42 473,-12 777,89 305,102 546,241 723,418 570,571 1026,1540 1137,2416 22,175 25,617 5,775 -72,569 -253,952 -626,1325 -280,279 -571,448 -896,520 -73,16 -325,28 -400,19 z"
           id="path2-5"
           style="stroke:#000000;stroke-width:234.974823;stroke-miterlimit:4;stroke-dasharray:none;stroke-opacity:1" />
        <path
           inkscape:connector-curvature="0"
           d="m 20226.948,19929.07 c -16.098,-0.732 -79.421,-2.742 -140.678,-3.914 -269.176,-5.783 -588.798,-43.677 -952.957,-115.155 -832.038,-162.829 -1379.967,-363.177 -1867.203,-681.648 -536.758,-351.659 -944.906,-755.613 -1208.411,-1198.086 -98.102,-164.73 -150.941,-271.867 -248.371,-510.862 -107.059,-261.298 -176.761,-463.375 -221.095,-647.401 -39.764,-162.326 -47.342,-211.869 -81.759,-494.96 -25.971,-207.542 -54.256,-349.715 -87.999,-442.317 -16.408,-46.839 -35.864,-66.36 -234.758,-238.159 -218.134,-188.329 -304,-252.739 -458.972,-343.773 l -85.858,-50.371 -260.855,-29.507 c -418.636,-48.113 -701.005,-83.941 -1648.769,-210.538 -907.231,-120.778 -1319.031,-171.438 -1326.434,-162.829 -1.851,2.152 23.517,20.202 56.008,39.695 346.782,206.231 629.482,580.997 821.653,1091.29 86.669,228.815 270.854,851.057 259.398,873.023 -28.176,54.377 -86.806,-91.413 -243.009,-603.548 -171.972,-564.04 -408.236,-948.497 -750.925,-1223.246 -69.194,-55.701 -236.785,-168.802 -284.593,-192.097 -19.735,-9.47 -424.116,-40.66 -649.488,-50.911 -232.353,-9.699 -491.269,-12.282 -695.4065,-6.162 l -137.1126,3.827 22.1043,42.377 c 38.146,70.191 82.8085,203.046 102.9495,301.738 51.0664,249.682 -6.3183,553.072 -156.7409,831.731 -93.7111,174.89 -264.7461,404.035 -437.8706,590.221 -85.6368,92.017 -102.9318,116.451 -104.8388,145.685 -3.1117,40.36 -23.047,55.977 -30.4015,23.465 -4.3553,-18.71 -16.6723,-8.71 -105.6595,78.558 -56.2402,54.592 -105.1493,99.578 -109.1379,99.894 -27.9203,2.208 -9.9871,-27.29 86.2518,-139.2 l 109.1941,-126.975 -28.8127,-65.915 c -119.1756,-276.386 -426.3359,-447.643 -862.9129,-480.297 -451.6777,-33.466 -1124.7022,118.056 -1591.828,357.586 -493.1876,253.627 -995.1457,747.629 -1204.1714,1187.369 -89.7146,188.614 -136.767,370.844 -159.3542,614.319 -7.8588,85.864 -6.0332,166.951 7.8921,360.403 15.7198,218.382 21.8696,262.021 47.85,358.245 71.512,255.085 176.0988,426.322 343.2036,560.522 167.1766,135.198 424.2814,210.13 759.9149,219.681 127.6434,3.942 392.3121,-25.018 536.3174,-58.473 521.8238,-120.507 1097.7441,-436.838 1610.0559,-884.525 208.5273,-181.967 311.4669,-284.379 445.6461,-440.407 147.0627,-172.091 246.1262,-328.35 316.1926,-497.358 121.8486,-299.464 120.7038,-566.133 -4.606,-858.079 -49.4969,-116.427 -50.6531,-146.421 -5.1507,-169.075 26.1335,-13.099 33.1854,-12.654 69.7367,7.52 55.4333,31.718 165.3337,151.389 212.3901,233.912 60.6732,104.511 82.5136,185.018 85.9339,316.121 8.5632,286.139 -144.8276,607.152 -468.7084,983.773 -325.8034,377.776 -775.8358,743.316 -1313.1464,1066.622 -730.5606,438.878 -1361.8327,613.171 -1857.424,512.98 -570.8882,-115.294 -962.3626,-635.895 -1013.6136,-1347.879 -34.5262,-479.641 89.949,-923.724 379.2573,-1348.756 75.2986,-110.253 263.2213,-327.696 374.9917,-432.812 188.7278,-178.395 469.8242,-383.152 664.9327,-486.838 258.9107,-136.813 664.3391,-272.18 1049.8554,-349.812 197.6363,-40.706 578.5491,-70.84 732.8364,-58.977 313.6321,24.329 509.0491,92.107 674.6621,233.445 75.8225,64.202 100.9822,93.3 138.9129,160.499 45.9875,81.604 85.5769,185.778 89.2377,236.634 1.0767,14.958 5.9266,26.608 10.9124,26.214 15.9545,-1.262 286.8659,-333.579 366.7196,-450.21 184.3337,-267.301 270.9618,-498.794 281.0806,-748.302 7.0945,-180.072 -38.8116,-371.997 -123.8705,-522.717 l -40.1403,-70.032 -516.8846,35.875 c -454.9893,31.983 -547.94,36.327 -786.9135,32.167 -148.5837,-2.286 -343.3236,-4.932 -431.5756,-4.97 -200.5793,-0.178 -750.0111,43.286 -1261.3997,99.787 -1745.9855,194.283 -2094.1124,261.937 -3889.3617,760.973 -306.8053,84.442 -566.4649,155.126 -577.4336,155.994 -49.8577,3.944 -11.3353,-18.157 99.2614,-55.989 65.5173,-23.235 247.5425,-85.772 403.0752,-140.195 1310.1378,-453.64 1984.726,-611.303 3348.4425,-780.359 1019.7781,-126.804 1543.8503,-174.28 1898.0708,-171.214 l 100.2897,0.09 48.0554,-42.912 c 188.592,-166.351 441.8147,-284.663 686.8915,-321.099 220.2914,-32.47 389.8949,-16.804 566.4378,53.47 116.6262,45.931 208.1879,105.878 282.1675,186.271 l 51.0294,54.129 192.3149,-3.179 c 251.3622,-4.843 477.3012,-0.654 720.9092,12.166 107.701,5.52 227.295,9.096 264.333,8.172 38.036,-1.003 73.223,0.225 78.424,2.822 5.201,2.597 139.617,17.035 299.106,31.495 382.515,33.922 661.749,67.992 1459.709,175.352 984.308,132.732 1286.835,169.973 1305.35,162.491 22.432,-8.794 200.372,11.226 308.439,35.771 46.874,10.332 180.58,28.838 295.763,40.786 2233.499,239.495 3837.225,144.717 5300.43,-314.011 191.215,-60.255 491.168,-170.23 673.114,-247.803 136.299,-56.914 161.866,-63.951 163.374,-43.01 1.148,15.955 -327.843,168.341 -582.429,267.706 -756.708,298.542 -1541.55,470.943 -2471.822,545.539 -215.386,17.039 -333.76,30.415 -323.358,35.609 41.609,20.777 436.137,137.989 528.816,157.734 178.235,38.048 448.917,64.772 750.432,74.014 149.796,5.198 791.892,-46.6 992.168,-78.489 880.161,-143.84 1563.908,-355.378 2293.59,-708.945 586.266,-284.055 1069.953,-586.07 1648.723,-1029.988 249.978,-191.264 451.333,-333.552 865.73,-609.026 190.394,-127.381 344.26,-232.819 342.122,-234.655 -2.138,-1.837 -25.567,7.037 -53.695,20.293 -156.873,77.596 -593.134,230.444 -884.2,310.633 -499.448,138.793 -789.389,192.819 -1685.161,314.828 -584.955,79.369 -830.957,116.881 -1095.115,166.861 -276.978,53 -355.251,66.212 -827.599,135.67 -823.618,121.316 -1173.093,198.102 -1545.041,338.843 -221.617,83.72 -368.734,157.536 -783.936,393.961 -454.65,259.603 -673.905,362.191 -913.622,431.297 -201.473,57.056 -532.592,96.287 -535.033,62.383 -0.574,-7.977 29.907,-16.406 96.358,-26.677 208.397,-30.526 428.88,-102.122 649.843,-208.856 71.708,-34.756 298.071,-163.98 503.854,-286.561 519.154,-310.838 653.523,-380.636 919.437,-475.883 375.299,-135.992 732.536,-216.401 1499.811,-340.279 202.199,-33.045 478.682,-78.985 614.287,-103.753 339.584,-60.961 677.747,-113.787 1175.168,-183.223 1175.605,-163.2 1635.262,-255.723 2155.061,-432.229 316.266,-106.251 551.62,-208.106 851.972,-368.255 681.955,-361.825 672.27,-357.047 696.568,-339.915 8.48,6.349 16.25,16.766 16.752,23.746 0.862,11.966 -120.593,121.86 -193.003,174.722 -15.237,11.234 -85.294,68.925 -154.353,126.536 -168.449,139.686 -388.169,305.49 -701.023,528.805 -141.19,100.423 -368.527,271.844 -504.23,378.853 -599.551,475.649 -771.494,608.591 -959.463,741.797 -841.59,596.085 -1528.689,928.231 -2476.092,1196.729 -514.971,146.039 -939.52,224.753 -1410.177,261.986 -383.904,30.37 -671.028,26.007 -1013.945,-15.059 -436.943,-51.68 -810.81,-160.497 -1198.325,-347.461 l -94.473,-44.675 -149.366,0.785 c -530.437,0.845 -1110.891,-24.438 -1699.266,-76.172 -133.276,-12.523 -243.114,-19.879 -244.039,-18.803 -1.851,2.152 38.122,28.072 88.426,58.19 135.165,80.567 319.229,227.465 462.833,369.542 128.352,125.231 128.352,125.231 179.709,128.188 124.796,6.174 291.208,47.163 448.159,109.961 137.431,56.319 577.953,269.175 673.288,325.816 132.102,79.806 370.115,279.6 508.095,427.135 137.98,147.536 246.891,281.325 730.373,895.936 208.633,265.297 428.951,539.699 489.322,612.142 396.716,468.038 741.766,761.655 1176.178,1001.068 264.268,146.571 487.764,242.213 1076.304,463.417 l 329.856,124.333 128.913,-20.226 c 139.881,-21.095 167.163,-18.239 164.761,18.054 -1.628,19.183 -13.163,26.113 -79.964,45.437 -217.923,65.377 -354.597,89.226 -673.543,116.463 -169.373,15.405 -322.009,26.477 -339.104,25.823 z m 295.982,-206.937 c -671.137,-170.543 -1238.991,-466.592 -1755.645,-915.113 -318.686,-275.645 -515.545,-502.763 -842.101,-971.336 -174.363,-248.954 -699.7,-943.491 -807.965,-1068.305 -176.972,-201.614 -255.786,-265.579 -570.365,-456.307 -436.278,-265.34 -836.341,-473.373 -936.781,-489.496 -25.36,-4.011 -6.757,17.583 125.583,142.499 363.884,346.281 440.503,435.491 767.978,888.949 54.531,74.912 133.009,176.009 174.634,224.864 85.386,99.548 92.159,110.044 82.905,120.804 -10.179,11.837 -236.657,-194.886 -372.571,-341.582 -68.491,-73.807 -222.226,-245.168 -341.395,-382.157 -119.17,-136.99 -247.96,-282.244 -287.016,-323.28 -108.473,-113.767 -232.692,-237.319 -235.468,-234.091 -1.851,2.152 8.567,35.425 21.481,75.52 36.957,109.396 61.015,206.776 113.079,456.379 70.561,339.4 138.779,562.654 262.31,857.749 267.961,643.695 633.055,1118.245 1139.548,1481.325 896.694,643.095 2094.452,996.618 3350.562,990.514 58.194,0.411 146.23,-2.542 195.091,-6.407 l 89.815,-6.103 z M 9517.2886,14573.645 c -331.1387,-253.6 -812.8669,-272.654 -1214.8265,-47.305 -67.5038,37.432 -207.5534,139.771 -200.0709,146.199 4.2039,2.676 420.7505,7.832 519.8994,6.005 30.0582,-0.372 254.5613,-16.126 498.9358,-34.456 l 443.8053,-34.106 z"
           id="path4-6"
           style="stroke:#000000;stroke-width:234.974823;stroke-miterlimit:4;stroke-dasharray:none;stroke-opacity:1" />
        <path
           inkscape:connector-curvature="0"
           d="m 12403,17109 c -130,-22 -258,-93 -355,-198 -155,-167 -122,-354 86,-476 56,-33 75,-24 26,13 -96,72 -140,140 -140,217 0,135 175,271 375,291 82,9 153,-9 209,-52 51,-39 122,-141 166,-240 17,-38 37,-72 43,-76 24,-15 56,-7 76,18 18,22 21,41 21,114 0,124 -20,178 -93,257 -69,74 -151,118 -247,133 -74,11 -94,11 -167,-1 z"
           id="path6-0"
           style="stroke:#000000;stroke-width:234.974823;stroke-miterlimit:4;stroke-dasharray:none;stroke-opacity:1" />
        <path
           inkscape:connector-curvature="0"
           d="m 8819,16827 c -158,-54 -271,-195 -314,-391 -52,-234 57,-416 247,-416 39,0 149,27 161,39 5,5 -29,7 -76,4 -109,-7 -149,1 -192,38 -51,45 -68,101 -63,202 4,70 10,96 41,160 40,85 108,161 172,192 67,33 176,27 304,-18 98,-34 106,-35 123,-20 31,28 22,57 -34,109 -69,65 -111,90 -183,109 -78,20 -107,19 -186,-8 z"
           id="path8-0"
           style="stroke:#000000;stroke-width:234.974823;stroke-miterlimit:4;stroke-dasharray:none;stroke-opacity:1" />
      </g>
    </g>
  </g>
</svg>
