<?xml version="1.0" encoding="UTF-8" standalone="no"?>
<svg
   xmlns:dc="http://purl.org/dc/elements/1.1/"
   xmlns:cc="http://creativecommons.org/ns#"
   xmlns:rdf="http://www.w3.org/1999/02/22-rdf-syntax-ns#"
   xmlns:svg="http://www.w3.org/2000/svg"
   xmlns="http://www.w3.org/2000/svg"
   xmlns:sodipodi="http://sodipodi.sourceforge.net/DTD/sodipodi-0.dtd"
   xmlns:inkscape="http://www.inkscape.org/namespaces/inkscape"
   id="svg"
   version="1.1"
   width="575.33344"
   height="296.99744"
   viewBox="0 0 575.33343 296.99744"
   sodipodi:docname="magaza.svg"
   inkscape:version="0.92.4 (5da689c313, 2019-01-14)">
  <metadata
     id="metadata13">
    <rdf:RDF>
      <cc:Work
         rdf:about="">
        <dc:format>image/svg+xml</dc:format>
        <dc:type
           rdf:resource="http://purl.org/dc/dcmitype/StillImage" />
        <dc:title></dc:title>
        <dc:title />
      </cc:Work>
    </rdf:RDF>
  </metadata>
  <defs
     id="defs11" />
  <sodipodi:namedview
     pagecolor="#ffffff"
     bordercolor="#666666"
     borderopacity="1"
     objecttolerance="10"
     gridtolerance="10"
     guidetolerance="10"
     inkscape:pageopacity="0"
     inkscape:pageshadow="2"
     inkscape:window-width="1366"
     inkscape:window-height="705"
     id="namedview9"
     showgrid="false"
     inkscape:zoom="1.0040917"
     inkscape:cx="303.65499"
     inkscape:cy="160.19218"
     inkscape:window-x="-8"
     inkscape:window-y="-8"
     inkscape:window-maximized="1"
     inkscape:current-layer="g843"
     fit-margin-top="0"
     fit-margin-left="0"
     fit-margin-right="0"
     fit-margin-bottom="0" />
  <g
     id="svgg"
     transform="translate(137.01723,81.715433)">
    <g
       id="g843">
      <path
         style="fill:none;fill-rule:evenodd;stroke:none"
         d="m 0,78.667 v 78.666 H 200 400 V 78.667 0 H 200 0 V 78.667 M 29.119,31.773 c 0.347,0.15 0.813,0.357 1.035,0.458 0.505,0.232 1.736,1.775 2.208,2.769 0.196,0.412 0.447,0.862 0.559,1 0.184,0.227 0.69,1.112 1.52,2.659 0.17,0.317 0.403,0.678 0.517,0.804 0.115,0.125 0.209,0.335 0.209,0.466 0,0.131 0.07,0.238 0.155,0.238 0.086,0 0.208,0.164 0.271,0.365 0.064,0.201 0.407,0.84 0.762,1.42 0.355,0.579 0.645,1.099 0.645,1.155 0,0.055 0.32,0.635 0.711,1.289 0.391,0.653 0.86,1.482 1.042,1.843 0.181,0.36 0.649,1.148 1.038,1.75 0.39,0.602 0.708,1.179 0.709,1.282 0,0.104 0.112,0.282 0.25,0.396 0.137,0.114 0.25,0.348 0.25,0.52 0,0.172 0.074,0.313 0.163,0.313 0.09,0 0.211,0.188 0.269,0.417 0.057,0.229 0.166,0.416 0.242,0.416 0.075,0 0.188,0.162 0.251,0.36 0.063,0.198 0.443,0.901 0.845,1.563 0.401,0.662 0.73,1.251 0.73,1.311 0,0.059 0.3,0.583 0.667,1.163 0.366,0.581 0.666,1.132 0.666,1.226 0,0.093 0.113,0.263 0.25,0.377 0.138,0.114 0.25,0.342 0.25,0.507 0,0.164 0.061,0.324 0.134,0.354 0.184,0.077 1.366,2.055 1.366,2.286 0,0.103 0.074,0.187 0.164,0.187 0.09,0 0.21,0.184 0.266,0.409 0.057,0.226 0.208,0.498 0.337,0.604 0.128,0.107 0.233,0.335 0.233,0.507 0,0.172 0.067,0.313 0.148,0.313 0.081,0 0.194,0.131 0.252,0.292 0.143,0.394 0.52,1.028 0.748,1.255 0.102,0.103 0.186,0.28 0.186,0.395 0,0.114 0.206,0.53 0.458,0.925 0.735,1.149 0.846,1.338 1.298,2.216 0.236,0.459 0.57,1.059 0.742,1.334 0.311,0.497 0.677,1.142 1.273,2.242 0.172,0.317 0.406,0.678 0.52,0.804 0.115,0.125 0.209,0.299 0.209,0.386 0,0.086 0.176,0.437 0.391,0.779 0.215,0.342 0.677,1.147 1.027,1.789 0.923,1.693 1.066,1.945 1.418,2.5 0.175,0.275 0.513,0.892 0.752,1.371 0.238,0.48 0.503,0.915 0.589,0.969 0.086,0.053 0.156,0.242 0.156,0.42 0,0.177 0.071,0.323 0.158,0.323 0.158,0 0.25,0.146 1.009,1.612 0.229,0.443 0.454,0.842 0.5,0.888 0.045,0.046 0.223,0.346 0.395,0.667 0.55,1.027 0.953,1.737 1.277,2.25 0.175,0.275 0.429,0.725 0.567,1 1.298,2.597 1.449,2.691 2.083,1.291 0.093,-0.206 0.246,-0.375 0.34,-0.375 0.094,0 0.171,-0.145 0.171,-0.323 0,-0.178 0.069,-0.366 0.152,-0.418 0.084,-0.052 0.322,-0.45 0.53,-0.885 0.208,-0.434 0.477,-0.85 0.598,-0.924 0.121,-0.073 0.22,-0.275 0.22,-0.448 0,-0.173 0.08,-0.365 0.177,-0.425 0.097,-0.06 0.248,-0.271 0.335,-0.468 0.086,-0.197 0.381,-0.734 0.655,-1.192 0.274,-0.458 0.591,-1.021 0.704,-1.25 0.113,-0.229 0.246,-0.454 0.296,-0.5 0.049,-0.046 0.179,-0.271 0.289,-0.5 0.11,-0.229 0.427,-0.792 0.704,-1.25 0.278,-0.458 0.588,-1.04 0.689,-1.292 0.101,-0.252 0.251,-0.458 0.334,-0.458 0.083,0 0.15,-0.152 0.15,-0.339 0,-0.186 0.113,-0.381 0.25,-0.434 0.138,-0.053 0.25,-0.223 0.25,-0.378 0,-0.155 0.078,-0.36 0.174,-0.456 0.179,-0.179 0.818,-1.272 1.254,-2.143 0.137,-0.275 0.393,-0.725 0.569,-1 0.176,-0.275 0.558,-0.968 0.85,-1.539 0.291,-0.572 0.633,-1.125 0.758,-1.229 0.126,-0.104 0.229,-0.287 0.229,-0.407 0,-0.12 0.093,-0.318 0.208,-0.441 0.115,-0.123 0.394,-0.578 0.622,-1.012 0.227,-0.434 0.471,-0.789 0.541,-0.789 0.071,0 0.129,-0.145 0.129,-0.323 0,-0.178 0.079,-0.373 0.177,-0.433 0.097,-0.06 0.247,-0.271 0.333,-0.468 0.085,-0.198 0.225,-0.472 0.311,-0.609 0.085,-0.138 0.198,-0.363 0.252,-0.5 0.053,-0.138 0.245,-0.475 0.426,-0.75 0.181,-0.275 0.406,-0.65 0.501,-0.833 0.094,-0.184 0.319,-0.559 0.5,-0.834 0.308,-0.467 0.369,-0.584 0.582,-1.125 C 79.294,61.344 79.405,61.137 79.494,61 80.048,60.151 81,58.47 81,58.342 c 0,-0.083 0.094,-0.254 0.208,-0.379 0.115,-0.126 0.349,-0.487 0.521,-0.804 0.627,-1.156 0.967,-1.753 1.281,-2.242 0.176,-0.275 0.351,-0.575 0.389,-0.667 0.038,-0.092 0.115,-0.279 0.17,-0.417 0.056,-0.137 0.249,-0.475 0.43,-0.75 0.181,-0.275 0.398,-0.65 0.482,-0.833 0.084,-0.183 0.329,-0.596 0.544,-0.917 0.215,-0.321 0.5,-0.808 0.633,-1.083 0.132,-0.275 0.601,-1.11 1.041,-1.856 0.441,-0.747 0.801,-1.44 0.801,-1.542 0,-0.102 0.056,-0.186 0.125,-0.188 0.069,-0.001 0.309,-0.376 0.533,-0.833 C 88.382,45.374 88.626,45 88.699,45 c 0.074,0 0.134,-0.141 0.134,-0.313 0,-0.172 0.113,-0.406 0.25,-0.52 0.138,-0.114 0.25,-0.306 0.25,-0.426 0,-0.119 0.096,-0.316 0.213,-0.437 0.116,-0.122 0.472,-0.733 0.791,-1.359 0.318,-0.627 0.673,-1.217 0.788,-1.313 0.114,-0.095 0.208,-0.237 0.208,-0.316 0,-0.079 0.3,-0.634 0.667,-1.233 0.367,-0.599 0.667,-1.157 0.667,-1.241 0,-0.083 0.093,-0.251 0.208,-0.372 0.115,-0.121 0.39,-0.595 0.612,-1.053 0.221,-0.459 0.446,-0.871 0.5,-0.917 0.136,-0.117 0.438,-0.633 0.852,-1.456 1.683,-3.344 6.745,-3.316 7.415,0.04 0.234,1.175 0.292,71.678 0.059,72.833 -0.39,1.937 -1.155,2.457 -3.605,2.451 -1.971,-0.005 -2.575,-0.295 -3.21,-1.538 -0.327,-0.642 -0.331,-1.031 -0.335,-31.615 -0.004,-30.762 -0.006,-30.962 -0.33,-30.548 -0.179,0.229 -0.327,0.501 -0.329,0.604 -0.002,0.104 -0.116,0.282 -0.254,0.396 -0.138,0.114 -0.25,0.35 -0.25,0.525 0,0.175 -0.112,0.362 -0.25,0.414 -0.138,0.053 -0.25,0.234 -0.25,0.402 0,0.168 -0.076,0.353 -0.169,0.41 -0.093,0.058 -0.278,0.343 -0.411,0.635 -0.342,0.749 -1.041,1.968 -1.247,2.174 -0.095,0.095 -0.173,0.3 -0.173,0.455 0,0.155 -0.112,0.326 -0.25,0.378 -0.138,0.053 -0.25,0.234 -0.25,0.401 0,0.168 -0.078,0.384 -0.173,0.479 -0.229,0.228 -0.955,1.522 -1.181,2.102 -0.098,0.252 -0.246,0.458 -0.329,0.458 -0.083,0 -0.15,0.146 -0.15,0.323 0,0.178 -0.071,0.367 -0.156,0.42 -0.086,0.054 -0.352,0.489 -0.59,0.969 -0.238,0.479 -0.579,1.096 -0.758,1.371 -0.179,0.275 -0.37,0.613 -0.423,0.75 -0.054,0.138 -0.167,0.363 -0.252,0.5 -0.086,0.138 -0.226,0.412 -0.311,0.609 -0.086,0.197 -0.236,0.408 -0.333,0.468 -0.098,0.06 -0.177,0.255 -0.177,0.433 0,0.178 -0.065,0.324 -0.144,0.324 -0.079,0 -0.436,0.581 -0.792,1.291 -0.356,0.711 -0.741,1.391 -0.856,1.512 -0.115,0.121 -0.208,0.292 -0.208,0.379 0,0.086 -0.18,0.442 -0.399,0.789 -0.219,0.347 -0.791,1.377 -1.27,2.288 -0.48,0.912 -0.938,1.682 -1.019,1.713 -0.08,0.03 -0.146,0.195 -0.146,0.365 0,0.17 -0.079,0.359 -0.177,0.419 -0.097,0.06 -0.247,0.271 -0.333,0.468 -0.085,0.198 -0.231,0.49 -0.323,0.651 -0.294,0.514 -0.475,0.858 -0.855,1.625 -0.205,0.412 -0.416,0.787 -0.47,0.833 -0.054,0.046 -0.19,0.271 -0.301,0.5 -0.111,0.229 -0.545,1.017 -0.964,1.75 -0.419,0.733 -0.85,1.54 -0.956,1.792 -0.107,0.252 -0.252,0.458 -0.324,0.458 -0.071,0 -0.13,0.107 -0.13,0.238 0,0.131 -0.103,0.341 -0.228,0.466 -0.125,0.126 -0.28,0.393 -0.345,0.595 -0.064,0.202 -0.186,0.368 -0.272,0.368 -0.085,0 -0.155,0.135 -0.155,0.3 0,0.165 -0.074,0.373 -0.164,0.463 -0.09,0.09 -0.377,0.574 -0.638,1.075 -1.005,1.931 -1.748,3.255 -1.968,3.508 -0.127,0.145 -0.23,0.348 -0.23,0.453 0,0.104 -0.338,0.745 -0.75,1.424 C 71.338,88.07 71,88.71 71,88.813 71,88.916 70.925,89 70.833,89 c -0.091,0 -0.166,0.141 -0.166,0.313 0,0.172 -0.113,0.406 -0.25,0.52 -0.138,0.114 -0.25,0.306 -0.25,0.426 0,0.119 -0.094,0.316 -0.209,0.437 -0.114,0.122 -0.389,0.596 -0.611,1.054 -0.222,0.458 -0.45,0.871 -0.506,0.917 -0.056,0.045 -0.362,0.608 -0.68,1.25 -0.318,0.641 -0.622,1.204 -0.677,1.25 -0.106,0.089 -0.362,0.559 -1.07,1.965 -1.399,2.776 -5.013,2.845 -6.266,0.118 -0.085,-0.183 -0.378,-0.708 -0.652,-1.167 -0.275,-0.458 -0.704,-1.246 -0.954,-1.75 -0.25,-0.504 -0.499,-0.954 -0.553,-1 C 57.935,93.287 57.777,93.025 57.638,92.75 57.047,91.578 56.595,90.744 56.509,90.667 56.458,90.621 56.235,90.208 56.013,89.75 55.792,89.292 55.567,88.879 55.513,88.833 55.46,88.787 55.241,88.412 55.026,88 54.064,86.154 53.657,85.424 53.501,85.268 53.409,85.175 53.333,84.965 53.333,84.8 c 0,-0.165 -0.07,-0.3 -0.155,-0.3 -0.086,0 -0.208,-0.169 -0.271,-0.375 -0.064,-0.206 -0.331,-0.698 -0.595,-1.092 -0.263,-0.394 -0.479,-0.825 -0.479,-0.958 0,-0.133 -0.066,-0.242 -0.147,-0.242 -0.081,0 -0.193,-0.131 -0.248,-0.291 -0.056,-0.161 -0.29,-0.623 -0.52,-1.027 C 50.688,80.111 50.5,79.678 50.5,79.552 50.5,79.426 50.387,79.28 50.25,79.227 50.112,79.174 50,78.993 50,78.825 50,78.657 49.924,78.473 49.831,78.415 49.738,78.358 49.553,78.072 49.42,77.78 49.078,77.031 48.379,75.812 48.173,75.607 48.078,75.511 48,75.298 48,75.133 c 0,-0.165 -0.059,-0.3 -0.132,-0.3 -0.073,0 -0.337,-0.431 -0.588,-0.958 C 47.029,73.348 46.732,72.77 46.62,72.59 45.877,71.395 44.757,69.371 43.943,67.75 43.667,67.2 43.396,66.712 43.341,66.667 43.233,66.578 42.771,65.727 41.664,63.583 41.285,62.85 40.836,62.025 40.666,61.75 40.34,61.223 39.915,60.471 39.395,59.5 c -0.171,-0.321 -0.368,-0.608 -0.437,-0.639 -0.068,-0.03 -0.125,-0.233 -0.125,-0.45 0,-0.217 -0.099,-0.454 -0.221,-0.528 -0.206,-0.123 -0.499,-0.631 -1.469,-2.55 -0.209,-0.412 -0.476,-0.849 -0.595,-0.97 -0.118,-0.121 -0.215,-0.357 -0.215,-0.524 0,-0.167 -0.112,-0.347 -0.25,-0.399 -0.137,-0.053 -0.25,-0.239 -0.25,-0.414 0,-0.175 -0.112,-0.412 -0.25,-0.526 -0.137,-0.114 -0.25,-0.34 -0.25,-0.503 0,-0.162 -0.112,-0.338 -0.25,-0.391 -0.137,-0.052 -0.25,-0.243 -0.25,-0.424 0,-0.181 -0.079,-0.378 -0.177,-0.438 -0.097,-0.061 -0.246,-0.271 -0.332,-0.469 -0.085,-0.197 -0.491,-0.958 -0.902,-1.692 -0.411,-0.733 -0.831,-1.539 -0.934,-1.791 -0.103,-0.252 -0.255,-0.459 -0.338,-0.459 -0.082,0 -0.15,-0.112 -0.15,-0.25 0,-0.137 -0.075,-0.25 -0.167,-0.25 -0.11,0 -0.166,10.111 -0.166,29.998 0,21.168 -0.054,30.231 -0.183,30.792 -0.549,2.386 -1.201,2.798 -4.329,2.735 -1.173,-0.023 -1.303,-0.062 -1.856,-0.566 -1.24,-1.128 -1.132,2.495 -1.132,-38.103 V 34.194 l 0.415,-0.827 c 0.776,-1.544 2.916,-2.296 4.537,-1.594 m 153.961,7.32 c 1.251,0.522 1.703,1.278 1.8,3.005 0.071,1.268 0.335,2.543 0.635,3.069 0.078,0.137 0.262,0.487 0.409,0.776 0.146,0.29 0.411,0.658 0.588,0.818 0.177,0.16 0.321,0.392 0.321,0.515 0,0.123 0.104,0.224 0.23,0.224 0.126,0 0.331,0.123 0.456,0.273 0.786,0.947 2.257,1.449 4.231,1.443 2.592,-0.008 3.626,-0.577 5.744,-3.16 0.088,-0.107 0.208,-0.388 0.267,-0.625 0.06,-0.237 0.175,-0.431 0.257,-0.431 0.082,0 0.149,-0.184 0.149,-0.409 0,-0.224 0.112,-0.84 0.25,-1.368 0.137,-0.528 0.25,-1.352 0.25,-1.832 0,-0.479 0.079,-0.921 0.177,-0.981 0.097,-0.06 0.244,-0.286 0.326,-0.502 0.634,-1.668 4.883,-1.369 5.698,0.4 0.611,1.325 0.441,4.267 -0.363,6.275 -0.436,1.089 -0.934,2.084 -1.044,2.084 -0.07,0 -0.128,0.133 -0.128,0.296 0,0.163 -0.225,0.542 -0.5,0.843 -0.275,0.302 -0.5,0.604 -0.5,0.672 0,0.201 -2.359,2.471 -3.092,2.974 -1.754,1.206 -3.088,1.795 -4.658,2.057 -0.458,0.077 -1.276,0.217 -1.818,0.311 -0.686,0.119 -1.318,0.117 -2.083,-0.009 -0.604,-0.098 -1.399,-0.214 -1.765,-0.257 -0.367,-0.043 -0.903,-0.185 -1.192,-0.316 -0.289,-0.131 -0.664,-0.241 -0.834,-0.245 -0.169,-0.004 -0.608,-0.189 -0.974,-0.41 -0.367,-0.222 -0.892,-0.518 -1.167,-0.659 -1.26,-0.647 -4.583,-4.086 -4.583,-4.743 0,-0.1 -0.069,-0.181 -0.154,-0.181 -0.084,0 -0.203,-0.225 -0.263,-0.5 -0.06,-0.275 -0.173,-0.5 -0.25,-0.5 -0.077,0 -0.189,-0.224 -0.25,-0.498 -0.06,-0.274 -0.178,-0.541 -0.263,-0.593 -0.084,-0.053 -0.154,-0.238 -0.154,-0.413 0,-0.175 -0.114,-0.654 -0.253,-1.064 -0.627,-1.847 -0.361,-4.949 0.503,-5.862 0.675,-0.714 2.819,-0.97 3.997,-0.477 m -43.31,18.55 c 0.928,0.079 1.772,0.196 1.876,0.261 0.103,0.064 0.544,0.179 0.979,0.256 1.69,0.297 4.505,1.492 6.385,2.71 0.952,0.616 2.9,2.593 3.2,3.246 0.217,0.472 0.62,0.633 0.634,0.254 0.005,-0.158 0.034,-1.281 0.064,-2.497 0.037,-1.52 0.123,-2.293 0.275,-2.476 0.121,-0.146 0.299,-0.42 0.394,-0.609 0.856,-1.698 5.023,-1.485 6.045,0.309 l 0.373,0.653 0.002,23.798 c 0.003,26.853 0.116,24.621 -1.281,25.454 -1.366,0.814 -5.216,0.298 -5.216,-0.699 0,-0.107 -0.114,-0.32 -0.254,-0.474 -0.193,-0.214 -0.284,-0.921 -0.377,-2.93 l -0.123,-2.649 -0.665,0.72 c -1.574,1.705 -1.884,2.002 -2.86,2.746 -0.566,0.431 -1.11,0.784 -1.208,0.784 -0.099,0 -0.18,0.07 -0.18,0.155 0,0.086 -0.165,0.208 -0.367,0.272 -0.202,0.065 -0.47,0.22 -0.595,0.345 -0.126,0.125 -0.326,0.228 -0.446,0.228 -0.12,0 -0.311,0.112 -0.425,0.25 -0.114,0.138 -0.386,0.25 -0.604,0.25 -0.218,0 -0.396,0.069 -0.396,0.153 0,0.085 -0.244,0.206 -0.542,0.27 -0.298,0.063 -0.616,0.173 -0.708,0.244 -0.237,0.182 -1.643,0.501 -2.936,0.667 -0.607,0.077 -1.54,0.222 -2.073,0.32 -1.388,0.257 -4.461,0.221 -5.824,-0.068 -0.642,-0.136 -1.481,-0.248 -1.865,-0.25 -0.385,-0.001 -0.74,-0.069 -0.79,-0.15 -0.05,-0.081 -0.43,-0.198 -0.844,-0.26 -0.414,-0.063 -0.959,-0.221 -1.211,-0.352 -0.251,-0.131 -0.584,-0.239 -0.739,-0.24 -0.155,0 -0.323,-0.067 -0.373,-0.148 -0.05,-0.082 -0.355,-0.198 -0.676,-0.258 -0.322,-0.06 -0.586,-0.181 -0.586,-0.269 0,-0.087 -0.11,-0.159 -0.245,-0.159 -1.472,0 -8.211,-5.283 -9.755,-7.648 -0.137,-0.211 -0.421,-0.582 -0.631,-0.826 -0.21,-0.243 -0.622,-0.855 -0.917,-1.359 -0.294,-0.505 -0.626,-1.067 -0.737,-1.25 -0.111,-0.184 -0.249,-0.446 -0.308,-0.584 -0.058,-0.137 -0.323,-0.682 -0.589,-1.21 -0.267,-0.529 -0.484,-1.067 -0.484,-1.195 0,-0.129 -0.105,-0.447 -0.234,-0.706 -0.382,-0.772 -0.768,-2.103 -0.767,-2.647 0,-0.28 -0.073,-0.582 -0.164,-0.673 -0.648,-0.648 -0.658,-10.146 -0.011,-10.793 0.097,-0.097 0.176,-0.458 0.176,-0.803 0,-0.346 0.102,-0.874 0.228,-1.175 0.374,-0.897 0.638,-1.686 0.726,-2.167 0.045,-0.249 0.186,-0.54 0.314,-0.646 0.127,-0.106 0.232,-0.319 0.232,-0.473 0,-0.155 0.11,-0.427 0.244,-0.605 0.135,-0.178 0.247,-0.425 0.25,-0.549 0.003,-0.124 0.231,-0.559 0.506,-0.967 0.275,-0.407 0.5,-0.817 0.5,-0.911 0,-0.094 0.093,-0.275 0.208,-0.402 0.436,-0.487 0.625,-0.733 0.625,-0.816 0,-0.576 4.285,-5.182 6.083,-6.539 0.459,-0.346 0.909,-0.691 1,-0.767 0.393,-0.326 1.886,-1.238 2.5,-1.527 0.367,-0.173 0.947,-0.49 1.289,-0.705 0.342,-0.215 0.792,-0.393 1,-0.396 0.208,-0.003 0.524,-0.115 0.702,-0.25 0.177,-0.134 0.477,-0.245 0.666,-0.245 0.189,-10e-4 0.558,-0.113 0.821,-0.25 0.262,-0.137 0.647,-0.249 0.854,-0.249 0.208,0 0.647,-0.113 0.976,-0.25 0.329,-0.138 1.032,-0.256 1.562,-0.263 0.53,-0.006 1.301,-0.077 1.714,-0.156 0.783,-0.15 2.742,-0.099 5.603,0.145 m 54.806,-0.134 c 1.012,0.096 2.188,0.283 2.613,0.416 0.425,0.133 0.896,0.242 1.047,0.242 0.324,0 2.273,0.64 2.514,0.825 0.092,0.071 0.36,0.175 0.596,0.231 0.235,0.056 0.707,0.291 1.049,0.523 0.341,0.231 0.695,0.421 0.788,0.421 0.334,0 2.608,1.811 3.838,3.058 1.487,1.506 1.479,1.51 1.479,-0.578 0,-2.483 0.555,-4.17 1.451,-4.413 0.203,-0.055 0.456,-0.205 0.563,-0.334 0.283,-0.341 3.035,-0.327 3.379,0.017 0.137,0.137 0.361,0.25 0.497,0.25 0.351,0 1.11,0.955 1.11,1.396 0,0.204 0.075,0.446 0.168,0.538 0.228,0.228 0.111,53.772 -0.123,55.745 -0.093,0.786 -0.253,1.587 -0.357,1.78 -0.103,0.194 -0.188,0.601 -0.189,0.905 -0.001,0.304 -0.113,0.767 -0.25,1.03 -0.137,0.262 -0.249,0.626 -0.249,0.808 0,0.325 -0.288,1.091 -0.76,2.02 -0.132,0.259 -0.24,0.577 -0.24,0.705 0,0.129 -0.225,0.6 -0.5,1.047 -0.275,0.447 -0.5,0.898 -0.5,1.002 0,0.105 -0.07,0.19 -0.155,0.19 -0.086,0 -0.201,0.141 -0.255,0.314 -0.055,0.172 -0.254,0.491 -0.443,0.708 -0.188,0.217 -0.504,0.605 -0.703,0.862 -0.92,1.191 -1.425,1.71 -2.357,2.419 -0.552,0.421 -1.041,0.81 -1.087,0.864 -0.165,0.197 -2.43,1.595 -3.042,1.878 -1.33,0.615 -1.633,0.736 -3.625,1.451 -0.321,0.115 -0.808,0.244 -1.083,0.287 -0.275,0.043 -0.736,0.185 -1.025,0.315 -0.289,0.129 -0.777,0.236 -1.085,0.236 -0.307,0 -0.821,0.084 -1.141,0.188 -1.557,0.503 -8.721,0.792 -9.72,0.393 -2.498,-1 -2.747,-4.712 -0.414,-6.184 0.592,-0.374 0.839,-0.409 3.511,-0.489 1.581,-0.048 3.249,-0.157 3.707,-0.241 0.459,-0.084 1.321,-0.234 1.917,-0.332 2.054,-0.338 2.723,-0.491 2.894,-0.663 0.095,-0.095 0.331,-0.172 0.524,-0.172 0.193,0 0.497,-0.11 0.675,-0.245 0.178,-0.135 0.488,-0.247 0.689,-0.25 0.201,-0.003 0.407,-0.074 0.459,-0.158 0.052,-0.083 0.45,-0.322 0.885,-0.529 0.754,-0.36 2.509,-1.608 3.041,-2.162 0.382,-0.399 1.333,-1.626 1.333,-1.72 0,-0.046 0.169,-0.369 0.375,-0.718 0.467,-0.791 1.123,-2.382 1.124,-2.727 0.001,-0.142 0.069,-0.329 0.153,-0.416 0.181,-0.188 0.467,-1.748 0.704,-3.825 0.122,-1.082 0.108,-10.308 -0.019,-11.875 -0.007,-0.082 -0.67,0.626 -0.67,0.715 0,0.085 -0.933,0.974 -2.309,2.201 -0.335,0.298 -0.696,0.542 -0.802,0.542 -0.107,0 -0.22,0.056 -0.25,0.125 -0.1,0.223 -1.119,0.875 -1.369,0.875 -0.133,0 -0.268,0.066 -0.298,0.146 -0.129,0.34 -2.964,1.457 -5.056,1.992 -3.434,0.879 -7.755,0.887 -11.25,0.021 -0.925,-0.23 -3.059,-0.866 -3.333,-0.994 -1.619,-0.758 -3.833,-1.933 -3.833,-2.035 0,-0.072 -0.081,-0.13 -0.18,-0.13 -0.764,0 -5.435,-4.261 -7.126,-6.499 -0.519,-0.688 -0.982,-1.289 -1.028,-1.334 C 170.661,97.995 170,97.01 170,96.926 c 0,-0.048 -0.225,-0.453 -0.5,-0.9 -0.275,-0.447 -0.5,-0.936 -0.5,-1.086 0,-0.15 -0.074,-0.273 -0.163,-0.273 -0.09,0 -0.213,-0.196 -0.273,-0.434 -0.06,-0.239 -0.286,-0.768 -0.503,-1.176 -0.217,-0.408 -0.394,-0.857 -0.394,-0.999 0,-0.142 -0.107,-0.494 -0.238,-0.783 -0.291,-0.643 -0.571,-1.837 -0.769,-3.275 -0.082,-0.596 -0.23,-1.383 -0.33,-1.75 -0.23,-0.847 -0.13,-5.722 0.153,-7.417 0.31,-1.857 1.094,-4.739 1.382,-5.075 0.074,-0.087 0.135,-0.288 0.135,-0.446 0,-0.159 0.1,-0.388 0.222,-0.51 0.122,-0.122 0.273,-0.427 0.336,-0.679 0.063,-0.251 0.189,-0.456 0.279,-0.456 0.089,0 0.163,-0.133 0.163,-0.295 0,-0.162 0.205,-0.593 0.455,-0.958 0.25,-0.365 0.569,-0.86 0.708,-1.101 1.371,-2.361 6.475,-7.429 8.17,-8.113 0.138,-0.055 0.496,-0.267 0.797,-0.471 0.493,-0.334 1.145,-0.658 2.62,-1.301 1.633,-0.712 2.704,-1.073 3.75,-1.266 0.412,-0.075 1.05,-0.216 1.417,-0.313 1.671,-0.439 5.048,-0.589 7.659,-0.34 m 57.27,0.139 c 0.877,0.078 1.753,0.227 1.947,0.33 0.193,0.104 0.6,0.191 0.904,0.194 0.304,0.003 0.699,0.115 0.877,0.25 0.177,0.135 0.494,0.245 0.702,0.245 0.209,0 0.663,0.124 1.01,0.275 1.024,0.448 2.791,1.301 2.881,1.392 0.045,0.046 0.414,0.308 0.819,0.583 1.139,0.774 3.26,3.01 3.527,3.72 0.2,0.533 0.298,-0.28 0.31,-2.565 0.012,-2.581 0.116,-2.9 1.234,-3.804 0.766,-0.62 3.634,-0.886 4.136,-0.384 0.136,0.136 0.386,0.274 0.555,0.306 0.169,0.033 0.501,0.397 0.738,0.81 l 0.431,0.75 0.052,22.583 c 0.051,22.406 0.013,25.144 -0.359,25.552 -0.106,0.117 -0.273,0.354 -0.371,0.528 -0.098,0.173 -0.323,0.395 -0.5,0.493 -0.177,0.097 -0.362,0.229 -0.409,0.293 -0.138,0.181 -2.616,0.277 -3.284,0.126 -1.679,-0.379 -2.206,-1.388 -2.212,-4.242 -0.007,-2.784 -0.074,-3.084 -0.555,-2.456 -1.852,2.415 -4.451,4.354 -7.529,5.616 -0.367,0.15 -0.787,0.338 -0.934,0.418 -0.147,0.079 -0.616,0.197 -1.044,0.261 -0.427,0.064 -0.817,0.183 -0.867,0.264 -0.05,0.081 -0.359,0.147 -0.686,0.147 -0.327,0 -1.29,0.119 -2.141,0.264 -2.298,0.392 -6.381,0.193 -8.911,-0.433 -1.248,-0.309 -3.086,-0.916 -3.139,-1.037 -0.031,-0.07 -0.198,-0.127 -0.373,-0.127 -0.174,0 -0.749,-0.218 -1.278,-0.484 -0.528,-0.266 -1.073,-0.529 -1.21,-0.585 -0.138,-0.056 -0.475,-0.25 -0.75,-0.431 -0.275,-0.181 -0.613,-0.383 -0.75,-0.448 -0.572,-0.272 -1.914,-1.283 -3.497,-2.635 -0.865,-0.739 -3.337,-3.305 -3.337,-3.464 0,-0.076 -0.224,-0.377 -0.499,-0.67 -0.274,-0.293 -0.499,-0.621 -0.5,-0.727 0,-0.107 -0.061,-0.22 -0.134,-0.25 -0.186,-0.078 -1.633,-2.499 -1.786,-2.988 -0.069,-0.221 -0.176,-0.439 -0.237,-0.485 -0.061,-0.046 -0.248,-0.458 -0.415,-0.916 -0.167,-0.459 -0.396,-1.059 -0.508,-1.334 -0.81,-1.983 -1.125,-4.117 -1.205,-8.166 -0.076,-3.887 -0.037,-4.32 0.64,-7 0.093,-0.367 0.211,-0.892 0.263,-1.167 0.051,-0.275 0.196,-0.648 0.321,-0.829 0.125,-0.181 0.227,-0.463 0.227,-0.627 0,-0.164 0.069,-0.429 0.154,-0.588 0.085,-0.159 0.522,-1.039 0.971,-1.956 1.059,-2.159 1.122,-2.265 2.227,-3.746 1.482,-1.987 3.721,-4.425 4.981,-5.424 0.23,-0.182 0.762,-0.612 1.184,-0.955 0.422,-0.344 0.853,-0.625 0.958,-0.625 0.106,0 0.192,-0.066 0.192,-0.147 0,-0.081 0.131,-0.195 0.291,-0.253 0.394,-0.142 1.028,-0.52 1.256,-0.747 0.102,-0.103 0.296,-0.186 0.431,-0.186 0.135,0 0.364,-0.099 0.509,-0.219 0.144,-0.12 0.6,-0.352 1.013,-0.515 0.412,-0.164 0.975,-0.39 1.25,-0.505 0.945,-0.392 2.212,-0.761 2.614,-0.761 0.221,0 0.484,-0.082 0.583,-0.181 0.099,-0.099 1.033,-0.25 2.075,-0.336 1.042,-0.086 2.007,-0.188 2.144,-0.228 0.295,-0.085 2.763,0.026 5.013,0.226 m 98.027,-0.074 c 1.351,0.131 2.551,0.296 2.666,0.367 0.115,0.071 0.547,0.18 0.96,0.242 0.413,0.061 1.013,0.206 1.334,0.321 2.015,0.724 2.196,0.795 2.5,0.977 0.138,0.082 0.546,0.288 0.908,0.459 1.611,0.76 3.416,2.203 4.27,3.415 1.057,1.498 1.008,1.553 1.067,-1.188 0.044,-2.069 0.765,-4 1.493,-4 0.122,0 0.315,-0.113 0.429,-0.25 0.311,-0.376 2.879,-0.336 3.709,0.057 1.911,0.905 1.818,-0.469 1.759,26.109 -0.058,25.969 0.067,23.686 -1.358,24.822 -1.184,0.945 -4.562,0.622 -5.179,-0.495 -0.1,-0.18 -0.229,-0.364 -0.287,-0.41 -0.289,-0.228 -0.644,-2.348 -0.644,-3.847 0,-1.769 -0.037,-1.857 -0.531,-1.278 -1.511,1.77 -3.848,3.731 -4.844,4.066 -0.16,0.054 -0.292,0.146 -0.292,0.206 0,0.093 -0.978,0.575 -2.083,1.027 -0.183,0.075 -0.596,0.247 -0.917,0.381 -2.969,1.244 -11.675,1.632 -13.684,0.609 -0.146,-0.075 -0.616,-0.189 -1.043,-0.253 -0.427,-0.064 -0.818,-0.182 -0.868,-0.264 -0.05,-0.081 -0.218,-0.147 -0.373,-0.148 -0.155,-10e-4 -0.496,-0.113 -0.759,-0.25 -0.263,-0.137 -0.574,-0.249 -0.691,-0.249 -0.118,0 -0.976,-0.394 -1.907,-0.875 -2.419,-1.25 -2.406,-1.243 -2.862,-1.661 -0.228,-0.21 -0.62,-0.489 -0.873,-0.622 -0.97,-0.511 -5.773,-5.489 -5.773,-5.984 0,-0.105 -0.077,-0.191 -0.171,-0.191 -0.094,0 -0.244,-0.169 -0.333,-0.375 -0.192,-0.445 -0.536,-1.009 -0.687,-1.125 -0.191,-0.148 -1.642,-3.061 -1.642,-3.295 0,-0.125 -0.091,-0.391 -0.201,-0.591 -0.325,-0.587 -0.788,-1.999 -0.794,-2.417 -0.003,-0.212 -0.096,-0.55 -0.207,-0.75 -0.111,-0.2 -0.257,-0.889 -0.325,-1.531 -0.068,-0.641 -0.199,-1.504 -0.291,-1.916 -0.22,-0.985 -0.217,-3.617 0.006,-5.084 0.098,-0.641 0.229,-1.654 0.291,-2.25 0.063,-0.596 0.206,-1.247 0.317,-1.447 0.112,-0.2 0.204,-0.617 0.204,-0.925 0,-0.309 0.064,-0.632 0.142,-0.719 0.079,-0.087 0.272,-0.571 0.431,-1.075 0.158,-0.505 0.544,-1.467 0.857,-2.14 0.313,-0.673 0.57,-1.285 0.57,-1.361 0,-0.076 0.056,-0.163 0.125,-0.194 0.068,-0.03 0.311,-0.412 0.538,-0.847 0.227,-0.435 0.471,-0.792 0.542,-0.792 0.07,0 0.128,-0.107 0.128,-0.238 0,-0.131 0.096,-0.337 0.214,-0.458 0.118,-0.121 0.637,-0.783 1.153,-1.47 1.005,-1.338 4.416,-4.818 4.967,-5.067 0.183,-0.083 0.333,-0.21 0.333,-0.281 0,-0.128 3.53,-2.319 3.735,-2.319 0.058,0 0.402,-0.187 0.765,-0.417 0.363,-0.229 0.834,-0.416 1.046,-0.416 0.213,0 0.458,-0.069 0.545,-0.154 0.211,-0.204 2.146,-0.846 2.55,-0.846 0.175,0 0.587,-0.113 0.916,-0.25 0.329,-0.138 1.107,-0.259 1.729,-0.27 0.622,-0.011 1.355,-0.077 1.63,-0.147 0.793,-0.202 2.147,-0.181 4.79,0.074 m -36.04,0.259 c 1.835,0.358 2.406,0.678 2.894,1.623 0.294,0.569 0.381,2.457 0.121,2.618 -0.084,0.052 -0.316,0.432 -0.515,0.844 -0.2,0.412 -0.433,0.749 -0.52,0.749 -0.086,0 -0.206,0.131 -0.267,0.291 -0.06,0.161 -0.621,0.985 -1.245,1.832 -0.624,0.847 -1.134,1.575 -1.134,1.619 0,0.044 -0.545,0.813 -1.211,1.71 -0.666,0.897 -1.418,1.931 -1.672,2.298 -0.73,1.057 -1.279,1.806 -1.588,2.166 -0.157,0.184 -0.469,0.634 -0.694,1 -0.224,0.367 -0.579,0.854 -0.788,1.082 -0.209,0.228 -0.381,0.493 -0.381,0.588 0,0.095 -0.225,0.419 -0.5,0.72 -0.275,0.301 -0.5,0.586 -0.5,0.633 0,0.047 -0.337,0.525 -0.75,1.061 -0.412,0.536 -0.75,1.026 -0.75,1.09 0,0.064 -0.227,0.388 -0.505,0.721 -0.575,0.688 -0.594,0.714 -1.161,1.563 -0.229,0.343 -0.473,0.624 -0.542,0.625 -0.069,0 -0.125,0.081 -0.125,0.18 0,0.099 -0.338,0.618 -0.75,1.154 -0.413,0.536 -0.75,1.043 -0.75,1.126 0,0.084 -0.223,0.371 -0.495,0.638 -0.273,0.267 -0.498,0.55 -0.5,0.629 -0.006,0.167 -1.027,1.498 -1.212,1.579 -0.07,0.031 -0.126,0.124 -0.126,0.208 0,0.084 -0.344,0.621 -0.763,1.195 -0.419,0.573 -0.888,1.219 -1.042,1.435 -0.153,0.217 -0.372,0.492 -0.487,0.613 -0.115,0.121 -0.208,0.283 -0.208,0.361 0,0.078 -0.207,0.369 -0.459,0.646 -0.252,0.277 -0.608,0.789 -0.791,1.139 -0.184,0.349 -0.427,0.672 -0.542,0.717 -0.115,0.046 -0.208,0.179 -0.208,0.297 0,0.118 -0.113,0.258 -0.25,0.311 -0.138,0.052 -0.252,0.192 -0.253,0.309 -10e-4,0.118 -0.226,0.476 -0.498,0.797 -0.273,0.321 -0.572,0.674 -0.664,0.785 -0.093,0.11 -0.169,0.262 -0.169,0.337 0,0.076 -0.225,0.383 -0.5,0.684 -0.275,0.302 -0.5,0.586 -0.5,0.634 0,0.047 -0.321,0.511 -0.715,1.031 -0.393,0.52 -0.84,1.145 -0.993,1.388 l -0.279,0.443 0.869,0.072 c 0.477,0.04 6.08,0.088 12.45,0.106 7.146,0.02 11.642,0.094 11.741,0.193 0.089,0.088 0.352,0.161 0.586,0.161 2.542,0.007 3.09,5.068 0.675,6.224 l -0.75,0.359 H 297.75 c -18.655,0 -17.392,0.082 -18.364,-1.193 -1.12,-1.468 -0.481,-3.883 1.628,-6.151 0.175,-0.19 0.319,-0.433 0.319,-0.542 0,-0.109 0.057,-0.2 0.125,-0.202 0.069,-0.003 0.309,-0.303 0.534,-0.667 0.225,-0.364 0.468,-0.662 0.542,-0.662 0.073,0 0.133,-0.072 0.133,-0.159 0,-0.13 1.237,-1.91 1.806,-2.599 0.079,-0.096 0.43,-0.584 0.779,-1.083 0.349,-0.5 0.697,-0.934 0.775,-0.965 0.077,-0.03 0.14,-0.127 0.14,-0.215 0,-0.141 0.293,-0.562 1.788,-2.562 0.205,-0.275 0.648,-0.913 0.984,-1.417 0.336,-0.504 0.713,-1.029 0.838,-1.167 0.322,-0.355 1.581,-2.134 2.035,-2.875 0.21,-0.343 0.432,-0.626 0.493,-0.627 0.062,-0.001 0.37,-0.413 0.686,-0.916 0.316,-0.503 0.631,-0.915 0.7,-0.915 0.07,0 0.243,-0.244 0.385,-0.542 0.142,-0.298 0.464,-0.77 0.716,-1.049 0.252,-0.28 0.533,-0.629 0.625,-0.778 0.69,-1.116 2.151,-3.131 2.27,-3.131 0.08,0 0.146,-0.075 0.146,-0.167 0,-0.092 0.657,-1.059 1.459,-2.149 0.802,-1.089 1.57,-2.148 1.708,-2.353 0.137,-0.204 0.344,-0.47 0.458,-0.59 0.115,-0.119 0.209,-0.281 0.209,-0.359 0,-0.077 0.225,-0.387 0.5,-0.688 0.275,-0.302 0.5,-0.586 0.5,-0.634 0,-0.047 0.321,-0.511 0.715,-1.031 0.393,-0.52 0.855,-1.171 1.026,-1.446 0.171,-0.275 0.412,-0.56 0.535,-0.633 0.123,-0.073 0.224,-0.242 0.224,-0.375 0,-0.133 0.07,-0.242 0.155,-0.242 0.086,0 0.197,-0.131 0.248,-0.291 0.051,-0.161 0.263,-0.479 0.471,-0.709 0.474,-0.522 0.959,-1.271 0.959,-1.481 0,-0.101 -4.806,-0.165 -12.958,-0.172 -8.508,-0.008 -12.977,-0.07 -13.014,-0.179 -0.031,-0.092 -0.172,-0.168 -0.314,-0.168 -0.439,0 -1.381,-1.137 -1.381,-1.668 0,-0.263 -0.075,-0.525 -0.166,-0.582 C 279.075,62.027 279,61.614 279,61.167 c 0,-0.448 0.075,-0.86 0.167,-0.917 0.091,-0.057 0.166,-0.275 0.166,-0.484 0,-0.447 1.054,-1.598 1.467,-1.602 0.156,-0.001 0.583,-0.11 0.95,-0.243 0.77,-0.277 30.692,-0.36 32.083,-0.088 m -123.75,6.513 c -2.636,0.247 -3.801,0.562 -6.083,1.647 -0.412,0.196 -0.899,0.447 -1.081,0.557 -0.551,0.334 -1.822,1.175 -2.053,1.36 -0.528,0.42 -3.366,3.284 -3.366,3.396 0,0.068 -0.222,0.383 -0.493,0.7 -0.272,0.318 -0.497,0.665 -0.5,0.772 -0.004,0.107 -0.063,0.219 -0.133,0.25 -0.204,0.09 -1.674,3.176 -1.791,3.762 -0.06,0.297 -0.178,0.582 -0.262,0.635 -0.085,0.052 -0.154,0.355 -0.154,0.674 0,0.318 -0.113,0.848 -0.25,1.177 -0.193,0.461 -0.25,1.332 -0.25,3.807 0,2.426 0.061,3.381 0.25,3.917 0.137,0.39 0.25,0.916 0.25,1.169 0,0.253 0.112,0.674 0.249,0.937 0.137,0.263 0.249,0.64 0.25,0.839 0,0.199 0.106,0.574 0.235,0.833 0.129,0.26 0.309,0.66 0.399,0.889 0.395,1.007 1.382,2.989 1.534,3.083 0.091,0.057 0.166,0.206 0.166,0.331 0,0.222 0.972,1.739 1.656,2.586 0.185,0.229 0.338,0.51 0.34,0.625 0.002,0.114 0.116,0.208 0.254,0.208 0.137,0 0.25,0.059 0.25,0.131 0,0.072 0.222,0.262 0.494,0.422 0.272,0.161 0.59,0.386 0.708,0.501 0.484,0.47 3.197,1.94 3.59,1.944 0.114,10e-4 0.208,0.077 0.208,0.169 0,0.091 0.211,0.166 0.468,0.166 0.258,0 0.614,0.11 0.792,0.245 0.178,0.135 0.548,0.25 0.823,0.257 0.275,0.007 0.8,0.122 1.167,0.256 0.981,0.359 7.103,0.356 7.962,-0.002 0.336,-0.141 0.857,-0.258 1.158,-0.261 0.301,-0.003 0.692,-0.115 0.87,-0.25 0.178,-0.135 0.46,-0.245 0.627,-0.245 0.168,0 0.434,-0.07 0.594,-0.156 0.159,-0.086 0.664,-0.33 1.122,-0.542 0.459,-0.212 0.909,-0.444 1,-0.516 0.092,-0.073 0.767,-0.518 1.5,-0.991 0.734,-0.473 1.359,-0.92 1.389,-0.994 0.031,-0.074 0.114,-0.134 0.185,-0.134 0.136,0 1.843,-1.659 1.843,-1.791 0,-0.095 1.027,-1.424 1.194,-1.546 0.065,-0.047 0.202,-0.272 0.304,-0.5 0.102,-0.227 0.369,-0.751 0.592,-1.163 l 0.407,-0.75 10e-4,-9.175 0.002,-9.174 -0.591,-1.154 c -0.325,-0.634 -0.645,-1.193 -0.712,-1.242 -0.067,-0.048 -0.378,-0.426 -0.692,-0.838 -0.701,-0.925 -3.35,-3.5 -3.599,-3.5 -0.053,0 -0.411,-0.207 -0.795,-0.459 -1.19,-0.779 -2.086,-1.258 -3.194,-1.706 -0.916,-0.37 -2.576,-0.835 -2.981,-0.835 -0.252,0 -0.584,-0.065 -0.739,-0.144 -0.412,-0.212 -3.574,-0.322 -5.114,-0.177 m -55.75,0.154 c -0.229,0.073 -0.737,0.141 -1.13,0.15 -0.393,0.009 -0.983,0.129 -1.312,0.267 -0.329,0.137 -0.747,0.25 -0.928,0.25 -0.181,0 -0.566,0.102 -0.854,0.227 -0.289,0.125 -0.863,0.364 -1.276,0.531 -0.412,0.167 -0.862,0.385 -1,0.483 -0.137,0.099 -0.512,0.321 -0.833,0.494 -0.321,0.174 -0.906,0.529 -1.3,0.79 -0.394,0.261 -0.77,0.475 -0.835,0.475 -0.065,0 -0.305,0.17 -0.533,0.377 -0.229,0.208 -0.787,0.677 -1.242,1.042 -1.183,0.951 -1.482,1.286 -1.926,2.164 -0.093,0.183 -0.314,0.558 -0.492,0.833 -0.405,0.628 -1.004,1.898 -1.011,2.147 -0.003,0.102 -0.115,0.332 -0.25,0.51 -0.134,0.178 -0.244,0.482 -0.244,0.675 0,0.194 -0.078,0.429 -0.173,0.524 -0.672,0.672 -1.462,8.628 -1.005,10.133 0.085,0.281 0.228,0.961 0.317,1.511 0.188,1.16 0.471,2.305 0.672,2.714 0.077,0.158 0.259,0.549 0.404,0.87 0.938,2.07 1.159,2.491 1.535,2.931 0.091,0.107 0.279,0.366 0.416,0.576 0.138,0.209 0.382,0.519 0.542,0.687 0.16,0.168 0.292,0.339 0.292,0.381 0,0.415 3.919,3.71 5.166,4.343 0.321,0.162 0.696,0.361 0.834,0.44 0.137,0.079 0.362,0.186 0.5,0.237 0.137,0.051 0.475,0.188 0.75,0.305 1.047,0.445 2.235,0.767 2.855,0.774 0.355,0.004 0.945,0.115 1.311,0.247 0.773,0.278 4.427,0.341 4.907,0.084 0.166,-0.089 0.817,-0.23 1.447,-0.314 1.097,-0.146 1.68,-0.311 2.838,-0.802 0.289,-0.123 0.602,-0.223 0.695,-0.223 0.227,0 1.266,-0.55 1.336,-0.708 0.03,-0.069 0.145,-0.125 0.255,-0.125 0.691,0 4.399,-3.078 5.606,-4.652 0.229,-0.299 0.491,-0.634 0.583,-0.744 0.281,-0.339 0.548,-0.809 1.079,-1.901 l 0.509,-1.046 0.001,-8.658 c 0.001,-5.157 -0.062,-8.777 -0.156,-8.953 -0.087,-0.163 -0.205,-0.409 -0.261,-0.546 -0.28,-0.687 -1.322,-2.214 -2.089,-3.062 -1.306,-1.444 -3.315,-3.271 -3.596,-3.271 -0.07,0 -0.246,-0.105 -0.391,-0.234 -0.406,-0.36 -3.103,-1.766 -3.388,-1.766 -0.139,0 -0.468,-0.112 -0.731,-0.249 -0.262,-0.137 -0.613,-0.25 -0.78,-0.25 -0.166,-0.001 -0.431,-0.07 -0.589,-0.155 -0.791,-0.423 -5.62,-0.803 -6.525,-0.513 m 112,0 c -0.229,0.073 -0.775,0.141 -1.213,0.15 -0.439,0.009 -1.067,0.129 -1.396,0.267 -0.329,0.137 -0.72,0.25 -0.869,0.251 -0.15,0 -0.486,0.113 -0.749,0.25 -0.263,0.137 -0.566,0.249 -0.674,0.249 -0.276,0 -3.08,1.457 -3.378,1.755 -0.134,0.135 -0.334,0.245 -0.443,0.245 -0.109,0 -0.384,0.17 -0.613,0.378 -0.228,0.208 -0.659,0.531 -0.957,0.718 -0.789,0.492 -2.708,2.379 -2.708,2.662 0,0.133 -0.057,0.242 -0.127,0.242 -0.132,0 -0.383,0.425 -0.712,1.208 -0.107,0.252 -0.261,0.458 -0.344,0.458 -0.082,0 -0.15,0.12 -0.15,0.266 0,0.147 -0.103,0.465 -0.229,0.709 -0.407,0.786 -0.771,1.698 -0.771,1.929 0,0.124 -0.112,0.44 -0.249,0.702 -0.137,0.263 -0.249,0.726 -0.25,1.03 -0.001,0.304 -0.091,0.717 -0.2,0.917 -0.163,0.297 -0.467,3.345 -0.512,5.114 -0.026,1.04 0.273,4.117 0.429,4.417 0.096,0.183 0.228,0.596 0.295,0.916 0.151,0.729 0.417,1.46 1.018,2.792 0.258,0.574 0.469,1.111 0.469,1.195 0,0.084 0.059,0.177 0.132,0.208 0.072,0.03 0.382,0.467 0.689,0.97 0.815,1.336 4.315,4.987 4.79,4.998 0.107,0.002 0.22,0.06 0.25,0.129 0.101,0.227 1.038,0.795 2.222,1.349 0.642,0.3 1.297,0.616 1.456,0.702 0.16,0.087 0.422,0.158 0.584,0.158 0.161,10e-4 0.485,0.101 0.719,0.223 0.233,0.122 0.927,0.269 1.54,0.326 0.614,0.057 1.262,0.182 1.439,0.277 0.42,0.225 3.924,0.225 4.68,0.001 0.32,-0.095 1.032,-0.237 1.582,-0.315 0.895,-0.126 1.391,-0.263 2.5,-0.691 0.638,-0.246 2.975,-1.362 3.154,-1.507 0.099,-0.08 0.783,-0.584 1.521,-1.121 1.193,-0.868 3.075,-2.575 3.075,-2.79 0,-0.044 0.29,-0.446 0.643,-0.893 0.354,-0.448 0.916,-1.342 1.25,-1.987 l 0.607,-1.173 v -8.601 c 0,-9.438 0.053,-8.891 -1.007,-10.5 -0.182,-0.275 -0.375,-0.631 -0.431,-0.791 C 263.34,72.131 263.241,72 263.175,72 c -0.065,0 -0.348,-0.319 -0.629,-0.708 -0.662,-0.92 -1.081,-1.357 -2.296,-2.398 -1.054,-0.903 -3.201,-2.356 -3.917,-2.651 -0.137,-0.056 -0.449,-0.209 -0.692,-0.339 -0.243,-0.131 -0.622,-0.237 -0.842,-0.237 -0.219,0 -0.47,-0.071 -0.557,-0.157 -0.665,-0.66 -6.626,-1.421 -7.909,-1.01 m 98.584,0.001 c -0.367,0.077 -1.08,0.222 -1.584,0.324 -1.558,0.314 -1.962,0.427 -3.416,0.952 -0.092,0.034 -0.498,0.247 -0.902,0.475 -0.404,0.228 -0.835,0.415 -0.958,0.415 -0.123,0 -0.224,0.07 -0.224,0.155 0,0.086 -0.168,0.208 -0.375,0.273 -0.206,0.064 -0.412,0.167 -0.458,0.228 -0.046,0.061 -0.383,0.292 -0.75,0.512 -0.367,0.22 -1.088,0.741 -1.603,1.158 -0.515,0.416 -1.175,0.945 -1.466,1.174 -0.509,0.4 -0.886,0.921 -1.113,1.541 -0.059,0.161 -0.173,0.292 -0.254,0.292 -0.081,0 -0.147,0.107 -0.147,0.238 0,0.131 -0.094,0.338 -0.209,0.461 -0.114,0.123 -0.346,0.522 -0.514,0.887 -0.169,0.365 -0.412,0.876 -0.542,1.136 -0.129,0.259 -0.235,0.599 -0.235,0.754 0,0.156 -0.103,0.431 -0.229,0.612 -0.125,0.181 -0.269,0.591 -0.32,0.912 -0.1,0.635 -0.347,1.728 -0.715,3.178 -0.336,1.317 -0.326,6.192 0.014,7.155 0.137,0.39 0.252,0.943 0.256,1.23 0.003,0.286 0.113,0.708 0.244,0.937 0.131,0.229 0.241,0.579 0.244,0.778 0.003,0.199 0.131,0.611 0.285,0.917 0.153,0.305 0.378,0.754 0.5,0.997 0.121,0.244 0.221,0.556 0.221,0.695 0,0.138 0.059,0.277 0.132,0.307 0.072,0.031 0.312,0.356 0.533,0.723 1.969,3.273 5.4,6.236 8.835,7.628 2.498,1.013 6.938,1.555 9.114,1.112 0.533,-0.108 1.344,-0.254 1.802,-0.323 0.808,-0.123 1.433,-0.315 2.526,-0.778 0.288,-0.123 0.601,-0.223 0.694,-0.223 0.217,0 1.194,-0.518 1.493,-0.791 0.125,-0.115 0.294,-0.209 0.374,-0.209 0.081,0 0.494,-0.243 0.92,-0.541 0.425,-0.298 0.899,-0.617 1.053,-0.709 1.347,-0.8 3.911,-3.701 4.885,-5.526 l 0.491,-0.919 0.002,-9.05 0.003,-9.05 -0.503,-0.941 c -0.276,-0.518 -0.731,-1.231 -1.012,-1.585 -0.28,-0.354 -0.509,-0.69 -0.509,-0.747 0,-0.188 -3.038,-3.098 -3.234,-3.098 -0.106,0 -0.421,-0.207 -0.7,-0.459 -0.551,-0.495 -3.428,-2.041 -3.8,-2.041 -0.125,0 -0.443,-0.112 -0.705,-0.249 -0.263,-0.137 -0.669,-0.25 -0.903,-0.25 -0.233,-0.001 -0.505,-0.082 -0.604,-0.18 -0.377,-0.378 -5.394,-0.746 -6.637,-0.487"
         id="path1"
         inkscape:connector-curvature="0" />
      <g
         style="fill:#000000;stroke:none"
         id="g1226"
         transform="matrix(0.08326222,0,0,-0.07701711,-474.63127,273.84702)">
        <g
           id="g1243"
           transform="matrix(0.98291572,0,0,1,3327.4711,-2025.524)">
          <path
             inkscape:connector-curvature="0"
             d="m 756,4858 c -14,-20 -16,-110 -16,-770 v -747 l 22,-15 c 30,-21 71,-20 97,2 21,17 21,19 24,655 l 2,637 89,-162 c 49,-90 179,-327 289,-528 110,-201 209,-375 220,-387 24,-27 68,-30 89,-5 8,9 105,181 215,382 110,201 243,441 294,534 l 94,168 3,-638 c 2,-576 4,-639 19,-656 22,-24 78,-23 103,2 20,20 20,33 20,763 0,834 4,787 -71,787 -27,0 -45,-6 -57,-20 -15,-18 -190,-322 -534,-932 -68,-120 -125,-218 -128,-218 -3,0 -27,39 -54,88 -291,517 -592,1041 -609,1060 -28,31 -90,31 -111,0 z"
             id="path2-24" />
          <path
             inkscape:connector-curvature="0"
             d="m 2879,4342 c -174,-46 -331,-210 -374,-393 -71,-304 131,-601 435,-638 147,-18 266,17 361,106 l 49,46 v -57 c 0,-66 22,-96 70,-96 17,0 39,9 50,20 19,19 20,33 20,503 0,462 -1,485 -19,501 -21,19 -44,23 -82,13 -30,-8 -39,-30 -39,-101 v -50 l -31,42 c -74,101 -272,147 -440,104 z m 269,-144 c 69,-26 127,-71 169,-132 l 33,-48 v -187 c 0,-157 -3,-191 -16,-211 -36,-54 -102,-113 -159,-143 -56,-29 -67,-31 -165,-32 -95,0 -110,3 -162,28 -114,56 -199,179 -214,311 -15,129 42,289 124,349 131,96 252,116 390,65 z"
             id="path4-37" />
          <path
             inkscape:connector-curvature="0"
             d="m 4018,4344 c -259,-62 -430,-318 -390,-581 29,-185 175,-368 342,-429 162,-58 362,-22 470,86 l 42,42 -4,-158 c -5,-185 -20,-236 -92,-302 -53,-49 -116,-70 -257,-86 -117,-14 -129,-20 -129,-67 0,-53 20,-64 117,-63 273,5 440,126 489,352 11,53 14,182 14,624 0,622 4,588 -70,588 -50,0 -70,-27 -70,-94 v -50 l -37,36 c -109,104 -265,141 -425,102 z m 274,-146 c 77,-36 121,-71 158,-126 l 30,-45 v -195 c 0,-221 -2,-226 -86,-301 -89,-78 -206,-111 -323,-91 -129,22 -196,72 -254,189 -120,239 -28,499 206,583 75,27 193,21 269,-14 z"
             id="path6-3" />
          <path
             inkscape:connector-curvature="0"
             d="m 5149,4342 c -179,-47 -333,-215 -374,-409 -18,-86 -18,-130 0,-218 20,-95 56,-165 123,-236 96,-104 187,-153 311,-168 147,-18 277,19 363,103 l 46,44 4,-60 c 3,-44 10,-64 23,-74 25,-18 65,-18 93,2 l 22,15 v 489 c 0,546 3,520 -70,520 -50,0 -70,-27 -70,-95 l -1,-50 -31,38 c -80,98 -274,142 -439,99 z m 241,-133 c 59,-14 142,-71 187,-127 l 43,-53 v -192 c 0,-173 -2,-195 -20,-224 -31,-51 -93,-106 -157,-138 -53,-28 -66,-30 -163,-30 -125,0 -171,17 -249,90 -64,60 -97,116 -117,202 -13,57 -14,81 -4,153 20,148 76,231 195,290 96,48 178,57 285,29 z"
             id="path8-7" />
          <path
             inkscape:connector-curvature="0"
             d="m 7159,4342 c -175,-47 -331,-211 -374,-393 -41,-176 9,-360 131,-485 106,-109 217,-155 374,-155 132,0 205,27 292,108 l 48,46 v -61 c 0,-52 3,-63 22,-76 31,-22 74,-20 98,4 19,19 20,33 20,499 0,442 -1,480 -18,500 -22,28 -75,31 -102,6 -16,-14 -20,-31 -20,-78 v -61 l -24,33 c -58,78 -156,121 -291,127 -66,3 -107,-1 -156,-14 z m 267,-143 c 66,-25 136,-80 174,-137 l 30,-45 v -184 c 0,-176 -1,-185 -24,-221 -37,-58 -96,-108 -161,-139 -53,-25 -71,-28 -160,-28 -89,0 -106,3 -155,27 -175,86 -257,281 -202,479 33,120 79,176 192,234 89,47 203,52 306,14 z"
             id="path10-2" />
          <path
             inkscape:connector-curvature="0"
             d="m 5935,4336 c -13,-9 -19,-26 -19,-51 0,-64 5,-65 301,-65 145,0 263,-3 263,-6 0,-3 -53,-78 -117,-167 -398,-552 -453,-632 -453,-658 0,-57 11,-59 382,-59 325,0 339,1 358,20 25,25 26,72 2,93 -16,15 -51,17 -285,17 -147,0 -267,3 -267,6 0,3 45,67 99,142 494,683 495,686 455,726 -13,14 -60,16 -358,16 -275,0 -346,-3 -361,-14 z"
             id="path12-9" />
        </g>
      </g>
      <g
         id="g1451-2-5-1"
         transform="matrix(0.01749547,-3.1149936e-4,-2.707954e-4,-0.01695041,-40.812289,297.27467)"
         style="fill:#000000;stroke:#000000;stroke-width:234.974823;stroke-miterlimit:4;stroke-dasharray:none;stroke-opacity:1"
         inkscape:transform-center-x="-175.82915"
         inkscape:transform-center-y="282.44848">
        <path
           style="stroke:#000000;stroke-width:234.974823;stroke-miterlimit:4;stroke-dasharray:none;stroke-opacity:1"
           id="path2-5-9-7-3"
           d="m 13360,21794 c -525,-63 -968,-280 -1374,-674 -585,-568 -986,-1405 -1092,-2280 -21,-180 -29,-552 -15,-765 34,-521 133,-872 326,-1160 283,-423 594,-649 836,-606 66,11 91,25 83,46 -4,9 -31,14 -88,17 -71,3 -92,8 -157,40 -273,136 -581,648 -683,1133 -99,475 -111,938 -35,1320 24,118 116,434 194,664 176,518 397,953 635,1246 86,107 345,365 450,449 270,215 544,355 810,412 127,28 361,25 500,-5 336,-72 582,-202 806,-425 273,-274 429,-615 505,-1107 20,-123 23,-186 23,-434 1,-307 -8,-425 -50,-675 -74,-437 -255,-978 -470,-1410 -202,-403 -394,-645 -644,-812 -107,-71 -335,-180 -475,-228 -153,-52 -277,-84 -600,-155 -143,-31 -266,-62 -272,-67 -7,-6 -13,-21 -13,-33 0,-31 15,-41 80,-53 213,-42 473,-12 777,89 305,102 546,241 723,418 570,571 1026,1540 1137,2416 22,175 25,617 5,775 -72,569 -253,952 -626,1325 -280,279 -571,448 -896,520 -73,16 -325,28 -400,19 z"
           inkscape:connector-curvature="0" />
        <path
           style="stroke:#000000;stroke-width:234.974823;stroke-miterlimit:4;stroke-dasharray:none;stroke-opacity:1"
           id="path4-6-4-6-5"
           d="m 20005,20394 c -16,-2 -79,-9 -140,-15 -268,-27 -584,-90 -942,-190 -818,-228 -1350,-471 -1813,-827 -510,-393 -888,-828 -1119,-1290 -86,-172 -131,-283 -211,-529 -88,-269 -143,-476 -174,-663 -28,-165 -32,-215 -46,-500 -11,-209 -29,-353 -56,-448 -13,-48 -31,-69 -217,-256 -204,-205 -285,-276 -433,-379 l -82,-57 -258,-50 c -414,-81 -693,-139 -1629,-340 -896,-192 -1303,-275 -1311,-267 -2,2 22,22 53,44 331,233 586,629 741,1153 70,235 209,870 196,891 -32,52 -80,-98 -199,-621 -131,-576 -339,-978 -661,-1279 -65,-61 -224,-187 -270,-214 -19,-11 -420,-74 -644,-102 -231,-28 -489,-51 -693,-61 l -137,-7 19,44 c 33,73 68,209 81,309 33,253 -46,551 -216,817 -106,167 -293,382 -479,554 -92,85 -111,108 -115,137 -6,40 -27,54 -32,21 -3,-19 -16,-10 -111,70 -60,50 -112,91 -116,91 -28,0 -8,-28 96,-132 l 118,-118 -24,-68 c -99,-285 -393,-480 -826,-547 -448,-69 -1130,29 -1613,231 -510,214 -1046,667 -1286,1089 -103,181 -163,359 -203,600 -14,85 -18,166 -18,360 0,219 3,263 22,361 53,260 145,439 302,586 157,148 408,243 742,279 127,14 393,6 539,-16 529,-79 1126,-349 1669,-755 221,-165 331,-259 476,-404 159,-160 269,-308 351,-471 143,-289 161,-555 57,-856 -41,-120 -40,-150 7,-169 27,-11 34,-10 69,13 53,36 154,164 195,250 53,109 69,191 63,322 -12,286 -188,594 -538,944 -352,351 -827,680 -1386,960 -760,380 -1402,504 -1889,365 -561,-160 -914,-710 -914,-1424 0,-481 156,-914 475,-1315 83,-104 286,-306 405,-402 201,-163 496,-345 698,-433 268,-116 682,-219 1072,-266 200,-25 582,-25 735,-1 311,49 501,132 656,286 71,70 94,101 127,171 40,85 72,192 72,243 0,15 4,27 9,27 16,0 310,-310 398,-420 203,-252 306,-476 334,-724 20,-179 -12,-374 -86,-531 l -35,-73 -518,-5 c -456,-4 -549,-7 -787,-30 -148,-14 -342,-32 -430,-39 -200,-16 -751,-16 -1265,0 -1755,56 -2107,96 -3933,452 -312,60 -576,110 -587,110 -50,0 -10,-19 103,-48 67,-18 253,-66 412,-108 1339,-349 2023,-453 3395,-514 1026,-46 1552,-52 1905,-21 l 100,8 51,-39 c 200,-151 461,-249 708,-266 222,-15 390,14 561,98 113,55 200,122 268,208 l 47,58 192,12 c 251,15 476,37 718,69 107,14 226,27 263,29 38,2 73,6 78,9 5,3 138,28 296,55 379,64 655,120 1443,290 972,210 1271,271 1290,265 23,-7 199,27 305,60 46,14 178,43 292,64 2210,415 3816,447 5308,105 195,-45 502,-131 689,-194 140,-46 166,-51 166,-30 0,16 -339,142 -600,221 -776,238 -1571,348 -2504,349 -216,0 -335,4 -325,10 40,24 425,172 516,199 175,52 443,100 743,133 149,17 793,16 995,0 888,-74 1585,-231 2338,-526 605,-237 1109,-500 1718,-897 263,-171 474,-297 907,-539 199,-112 360,-205 358,-207 -2,-2 -26,5 -55,16 -162,65 -608,183 -904,240 -508,99 -801,130 -1703,181 -589,33 -837,51 -1104,80 -280,31 -359,38 -835,70 -830,56 -1184,105 -1565,216 -227,66 -379,128 -810,331 -472,223 -698,308 -942,358 -205,41 -538,54 -538,20 0,-8 31,-14 98,-19 210,-14 435,-68 663,-157 74,-29 309,-140 523,-246 540,-269 679,-328 951,-402 384,-106 746,-158 1520,-221 204,-17 483,-41 620,-55 343,-34 684,-60 1185,-90 1184,-70 1649,-126 2180,-261 323,-81 565,-164 876,-300 706,-307 696,-303 719,-284 8,7 15,18 15,25 0,12 -129,112 -205,159 -16,10 -90,62 -163,114 -178,126 -409,274 -737,472 -148,89 -387,242 -530,338 -632,427 -813,546 -1010,664 -882,528 -1591,805 -2555,998 -524,105 -953,150 -1425,150 -385,0 -671,-27 -1010,-95 -432,-86 -797,-224 -1170,-441 l -91,-52 -149,-11 c -529,-41 -1106,-112 -1689,-210 -132,-23 -241,-39 -242,-38 -2,2 36,31 84,65 129,91 302,252 435,405 119,135 119,135 170,142 124,16 287,70 439,145 133,67 557,314 648,378 126,90 349,308 476,466 127,158 226,300 664,951 189,281 389,572 444,649 362,498 685,818 1101,1091 253,167 469,280 1040,547 l 320,150 130,-10 c 141,-10 168,-5 163,31 -3,19 -15,25 -83,39 -222,48 -360,61 -680,63 -170,2 -323,1 -340,-1 z m 310,-183 c -657,-223 -1202,-563 -1685,-1051 -298,-300 -478,-542 -770,-1035 -156,-262 -630,-996 -729,-1129 -162,-215 -236,-285 -536,-500 -416,-299 -800,-538 -899,-562 -25,-6 -8,17 115,152 338,374 408,469 702,947 49,79 120,186 158,238 78,106 84,117 74,127 -11,11 -222,-213 -347,-370 -63,-79 -204,-262 -313,-408 -109,-146 -227,-301 -263,-345 -100,-122 -215,-255 -218,-252 -2,2 6,36 16,77 29,112 46,211 80,464 46,344 98,572 200,876 221,663 551,1165 1030,1567 848,712 2017,1159 3270,1252 58,5 146,9 195,9 l 90,1 z M 9710,14209 c -312,-279 -791,-336 -1208,-143 -70,32 -217,123 -210,130 4,3 419,41 518,47 30,2 255,4 500,5 l 445,1 z"
           inkscape:connector-curvature="0" />
        <path
           style="stroke:#000000;stroke-width:234.974823;stroke-miterlimit:4;stroke-dasharray:none;stroke-opacity:1"
           id="path6-0-2-1-2"
           d="m 12403,17109 c -130,-22 -258,-93 -355,-198 -155,-167 -122,-354 86,-476 56,-33 75,-24 26,13 -96,72 -140,140 -140,217 0,135 175,271 375,291 82,9 153,-9 209,-52 51,-39 122,-141 166,-240 17,-38 37,-72 43,-76 24,-15 56,-7 76,18 18,22 21,41 21,114 0,124 -20,178 -93,257 -69,74 -151,118 -247,133 -74,11 -94,11 -167,-1 z"
           inkscape:connector-curvature="0" />
        <path
           style="stroke:#000000;stroke-width:234.974823;stroke-miterlimit:4;stroke-dasharray:none;stroke-opacity:1"
           id="path8-0-7-7-0"
           d="m 8819,16827 c -158,-54 -271,-195 -314,-391 -52,-234 57,-416 247,-416 39,0 149,27 161,39 5,5 -29,7 -76,4 -109,-7 -149,1 -192,38 -51,45 -68,101 -63,202 4,70 10,96 41,160 40,85 108,161 172,192 67,33 176,27 304,-18 98,-34 106,-35 123,-20 31,28 22,57 -34,109 -69,65 -111,90 -183,109 -78,20 -107,19 -186,-8 z"
           inkscape:connector-curvature="0" />
      </g>
      <path
         style="stroke-width:0.02697385"
         inkscape:connector-curvature="0"
         d="m 124.22187,74.286718 c -1.9999,0.72689 -3.02686,1.85763 -3.56737,3.93065 -1.32424,4.98062 4.62137,7.96899 17.05309,8.48051 7.43203,0.32307 14.64785,-0.64613 18.18818,-2.423 2.99984,-1.53457 4.56732,-3.76912 4.29706,-6.1652 -0.43241,-3.82296 -2.51337,-4.57679 -9.02652,-3.25759 -3.45927,0.72689 -4.21598,0.78074 -9.43191,0.78074 -5.43213,-0.0269 -5.83752,-0.0538 -9.40488,-0.88842 -4.0268,-0.9423 -6.43206,-1.07691 -8.10765,-0.45769 z"
         id="path10" />
    </g>
  </g>
</svg>
