<?xml version="1.0" encoding="UTF-8" standalone="no"?>
<svg
   xmlns:dc="http://purl.org/dc/elements/1.1/"
   xmlns:cc="http://creativecommons.org/ns#"
   xmlns:rdf="http://www.w3.org/1999/02/22-rdf-syntax-ns#"
   xmlns:svg="http://www.w3.org/2000/svg"
   xmlns="http://www.w3.org/2000/svg"
   xmlns:sodipodi="http://sodipodi.sourceforge.net/DTD/sodipodi-0.dtd"
   xmlns:inkscape="http://www.inkscape.org/namespaces/inkscape"
   id="svg"
   version="1.1"
   width="830.16272"
   height="296.90659"
   viewBox="0 0 830.16271 296.90659"
   sodipodi:docname="store.svg"
   inkscape:version="0.92.4 (5da689c313, 2019-01-14)">
  <metadata
     id="metadata13">
    <rdf:RDF>
      <cc:Work
         rdf:about="">
        <dc:format>image/svg+xml</dc:format>
        <dc:type
           rdf:resource="http://purl.org/dc/dcmitype/StillImage" />
        <dc:title></dc:title>
      </cc:Work>
    </rdf:RDF>
  </metadata>
  <defs
     id="defs11" />
  <sodipodi:namedview
     pagecolor="#ffffff"
     bordercolor="#666666"
     borderopacity="1"
     objecttolerance="10"
     gridtolerance="10"
     guidetolerance="10"
     inkscape:pageopacity="0"
     inkscape:pageshadow="2"
     inkscape:window-width="1366"
     inkscape:window-height="705"
     id="namedview9"
     showgrid="false"
     fit-margin-top="0"
     fit-margin-left="0"
     fit-margin-right="0"
     fit-margin-bottom="0"
     inkscape:zoom="1.0040916"
     inkscape:cx="420.22543"
     inkscape:cy="195.08493"
     inkscape:window-x="-8"
     inkscape:window-y="-8"
     inkscape:window-maximized="1"
     inkscape:current-layer="g843" />
  <g
     id="svgg"
     transform="translate(459.36977,233.00563)">
    <path
       id="path1"
       d="M 0,39.167 V 78.333 H 200 400 V 39.167 0 H 200 0 V 39.167 M 111.73,12.231 c 1.287,0.538 1.187,-1.753 1.187,27.031 v 25.679 l -0.395,0.577 c -0.941,1.372 -3.37,1.368 -4.207,-0.007 -0.464,-0.765 -0.497,-51.837 -0.033,-52.516 0.719,-1.053 2.051,-1.348 3.448,-0.764 m -65.432,2.61 c 1.513,0.163 4.7,0.837 5.452,1.152 0.183,0.077 0.596,0.231 0.917,0.341 7.785,2.687 14.677,11.087 16.202,19.749 0.357,2.028 0.183,10.262 -0.223,10.513 -0.08,0.05 -0.146,0.266 -0.146,0.481 0,1.866 -3.141,8.082 -5.162,10.215 -0.369,0.39 -0.672,0.765 -0.672,0.833 -0.002,0.172 -2.416,2.495 -3.333,3.207 -0.412,0.32 -0.775,0.639 -0.805,0.708 -0.031,0.07 -0.156,0.127 -0.278,0.127 -0.122,0 -0.247,0.065 -0.278,0.144 -0.066,0.171 -2.171,1.511 -2.889,1.838 -0.275,0.125 -0.765,0.364 -1.089,0.53 -0.863,0.442 -2.896,1.154 -3.296,1.154 -0.19,0 -0.386,0.067 -0.437,0.149 -0.05,0.081 -0.373,0.196 -0.718,0.255 -2.41,0.412 -3.273,0.484 -5.793,0.486 -2.627,0.001 -3.822,-0.11 -5.75,-0.539 -0.413,-0.091 -0.975,-0.213 -1.25,-0.271 -0.275,-0.058 -0.65,-0.165 -0.833,-0.239 -0.184,-0.074 -0.859,-0.346 -1.5,-0.604 -0.642,-0.258 -1.192,-0.529 -1.223,-0.603 -0.03,-0.073 -0.159,-0.134 -0.286,-0.134 -1.237,0 -6.534,-4.185 -8.658,-6.839 -1.168,-1.46 -2.583,-3.555 -2.583,-3.824 0,-0.093 -0.062,-0.17 -0.138,-0.17 -0.123,0 -0.494,-0.742 -1.375,-2.75 -0.668,-1.523 -1.212,-3.46 -1.651,-5.884 -0.247,-1.368 -0.245,-7.109 0.003,-8.332 0.538,-2.646 0.939,-4.137 1.195,-4.442 0.073,-0.087 0.132,-0.287 0.132,-0.443 0,-0.156 0.16,-0.61 0.356,-1.008 0.195,-0.398 0.482,-0.987 0.637,-1.308 0.678,-1.405 2.14,-3.755 2.71,-4.357 0.118,-0.124 0.41,-0.488 0.65,-0.809 0.586,-0.782 3.19,-3.392 3.953,-3.96 0.336,-0.25 0.648,-0.498 0.694,-0.55 0.278,-0.314 3.192,-2.07 4.284,-2.58 0.715,-0.334 1.43,-0.676 1.589,-0.759 0.159,-0.083 0.425,-0.151 0.592,-0.151 0.166,0 0.373,-0.067 0.46,-0.149 0.306,-0.288 3.546,-0.96 5.992,-1.243 1.096,-0.127 3.012,-0.099 4.548,0.066 m 194.63,-0.003 c 6.588,1.139 10.961,3.979 10.242,6.651 -0.481,1.785 -2.865,2.009 -4.534,0.426 -0.338,-0.32 -0.661,-0.582 -0.72,-0.582 -0.058,0 -0.419,-0.209 -0.803,-0.465 -5.098,-3.402 -15.019,-0.984 -16.61,4.049 -0.116,0.366 -0.281,0.804 -0.367,0.972 -0.229,0.448 -0.222,4.092 0.009,4.323 0.104,0.103 0.188,0.329 0.188,0.501 0,0.42 1.023,1.94 1.714,2.548 0.722,0.635 2.062,1.39 3.453,1.945 0.229,0.091 0.547,0.232 0.706,0.313 0.159,0.081 0.474,0.148 0.699,0.148 0.225,0 0.45,0.066 0.5,0.148 0.051,0.081 0.336,0.189 0.635,0.238 0.705,0.116 1.651,0.352 2.793,0.697 0.505,0.152 1.179,0.341 1.5,0.419 0.321,0.078 0.865,0.222 1.209,0.32 0.343,0.098 0.906,0.258 1.25,0.356 0.343,0.098 0.812,0.216 1.041,0.262 0.23,0.047 0.567,0.148 0.75,0.226 0.184,0.078 0.521,0.179 0.75,0.224 7.837,1.545 12.232,10.022 9.13,17.61 -0.594,1.453 -1.852,3.536 -2.655,4.398 -0.169,0.182 -0.308,0.386 -0.308,0.453 0,0.113 -2.397,2.132 -3.452,2.907 -1.433,1.052 -4.422,2.233 -6.798,2.684 -1.494,0.284 -5.866,0.114 -6.833,-0.265 -0.184,-0.072 -0.634,-0.221 -1,-0.332 -3.719,-1.12 -7.996,-4.306 -10.241,-7.629 -1.398,-2.07 -0.887,-3.776 1.166,-3.888 1.622,-0.088 2.069,0.161 3.293,1.831 0.668,0.912 2.863,3.065 3.698,3.627 1.094,0.737 2.983,1.714 3.314,1.714 0.158,0 0.379,0.093 0.493,0.206 0.275,0.275 5.633,0.293 6.209,0.021 0.221,-0.104 0.739,-0.289 1.151,-0.412 2.87,-0.851 7.333,-5.088 7.333,-6.961 0,-0.158 0.062,-0.359 0.138,-0.446 0.656,-0.754 0.653,-4.532 -0.005,-6.075 -0.417,-0.979 -0.566,-1.224 -1.292,-2.125 -1.087,-1.35 -3.841,-3.208 -4.752,-3.208 -0.13,0 -0.282,-0.075 -0.339,-0.167 -0.056,-0.092 -0.356,-0.167 -0.666,-0.167 -0.31,0 -0.61,-0.075 -0.667,-0.166 C 242.193,42.075 241.893,42 241.583,42 c -0.31,0 -0.605,-0.067 -0.655,-0.148 -0.05,-0.082 -0.336,-0.186 -0.635,-0.233 -0.299,-0.046 -1.293,-0.288 -2.21,-0.538 -0.916,-0.249 -1.911,-0.491 -2.21,-0.536 -0.298,-0.045 -0.584,-0.149 -0.634,-0.23 -0.051,-0.082 -0.346,-0.148 -0.656,-0.148 -0.31,0 -0.61,-0.075 -0.666,-0.167 -0.057,-0.092 -0.325,-0.167 -0.596,-0.167 -0.271,0 -0.622,-0.07 -0.782,-0.155 -0.159,-0.086 -0.646,-0.237 -1.082,-0.336 -2.971,-0.676 -6.268,-3.302 -7.439,-5.925 -0.123,-0.275 -0.278,-0.613 -0.344,-0.75 -0.974,-2.019 -0.711,-8.69 0.36,-9.139 0.073,-0.031 0.133,-0.16 0.133,-0.287 0,-0.76 2.089,-3.264 3.75,-4.495 0.366,-0.272 0.704,-0.536 0.75,-0.586 2.183,-2.412 8.16,-4.032 12.261,-3.322 m -117.982,2.604 c 1.269,0.602 2.023,2.203 1.67,3.546 -0.91,3.474 -6.116,2.891 -6.116,-0.686 0,-2.315 2.375,-3.843 4.446,-2.86 m 142.66,2.171 c 0.988,0.454 1.061,0.948 1.061,7.184 v 5.536 l 2.708,0.004 c 4.135,0.006 4.958,0.383 4.958,2.268 0,2.021 -0.509,2.285 -4.544,2.362 l -3.127,0.059 0.053,9.862 c 0.03,5.424 0.109,10.087 0.177,10.362 1.093,4.421 3.703,5.898 7.409,4.194 0.646,-0.298 2.601,-0.191 3.025,0.165 1.454,1.219 0.777,3.709 -1.131,4.164 -0.245,0.058 -0.52,0.162 -0.612,0.23 -0.168,0.125 -0.547,0.199 -2.666,0.515 -1.653,0.247 -4.14,0.128 -4.348,-0.208 -0.049,-0.079 -0.227,-0.143 -0.396,-0.143 -1.023,0 -3.369,-1.981 -4.171,-3.522 -0.29,-0.557 -0.671,-1.27 -0.848,-1.584 -0.176,-0.314 -0.321,-0.682 -0.321,-0.818 0,-0.136 -0.067,-0.378 -0.15,-0.537 -0.083,-0.159 -0.225,-0.589 -0.317,-0.956 -0.091,-0.367 -0.261,-1.042 -0.377,-1.5 -0.154,-0.608 -0.231,-3.46 -0.284,-10.542 L 261.632,37 h -0.962 c -2.241,0 -3.17,-0.684 -3.17,-2.333 0,-1.664 0.932,-2.327 3.279,-2.332 l 0.862,-0.002 0.062,-5.875 c 0.034,-3.231 0.121,-6.001 0.193,-6.156 0.462,-0.987 2.314,-1.33 3.71,-0.689 M 40.667,19.59 c -2.993,0.53 -3.195,0.593 -5.5,1.71 -2.714,1.316 -5.531,3.54 -7.126,5.625 -1.251,1.636 -1.563,2.083 -2.035,2.908 -0.288,0.504 -0.708,1.329 -0.934,1.834 -0.225,0.504 -0.484,1.047 -0.574,1.206 -0.091,0.159 -0.165,0.425 -0.165,0.591 0,0.167 -0.063,0.374 -0.14,0.461 -0.076,0.087 -0.236,0.608 -0.353,1.158 -0.118,0.55 -0.285,1.263 -0.372,1.584 -0.263,0.969 -0.364,5.781 -0.15,7.166 0.242,1.569 0.648,3.327 0.856,3.706 0.088,0.16 0.159,0.404 0.159,0.544 0,0.14 0.066,0.385 0.147,0.544 0.081,0.159 0.431,0.89 0.777,1.623 0.939,1.985 2.475,4.138 4.16,5.83 1.491,1.499 1.892,1.842 3.166,2.712 0.367,0.25 0.704,0.495 0.75,0.544 0.474,0.506 4.936,2.331 5.698,2.331 0.247,0 0.496,0.075 0.552,0.166 0.057,0.092 0.455,0.167 0.885,0.168 0.43,0 1.232,0.078 1.782,0.172 1.063,0.181 4.56,-0.034 5.833,-0.358 2.359,-0.602 5.482,-1.93 6.323,-2.69 0.178,-0.16 0.377,-0.292 0.443,-0.292 0.121,0 0.968,-0.661 2.299,-1.794 1.499,-1.276 4.44,-5.061 4.952,-6.372 0.054,-0.138 0.237,-0.55 0.408,-0.917 1.875,-4.02 2.341,-9.549 1.213,-14.396 -0.136,-0.584 -0.325,-1.259 -0.421,-1.5 -0.096,-0.24 -0.24,-0.606 -0.321,-0.812 -0.303,-0.779 -0.485,-1.223 -0.686,-1.667 -0.309,-0.686 -1.899,-3.338 -2.154,-3.593 -0.122,-0.123 -0.447,-0.51 -0.722,-0.86 -0.719,-0.915 -1.849,-2.048 -3,-3.006 -0.55,-0.458 -1.025,-0.889 -1.056,-0.958 -0.03,-0.068 -0.155,-0.125 -0.278,-0.125 -0.122,0 -0.247,-0.056 -0.277,-0.125 -0.157,-0.352 -3.792,-2.134 -5.139,-2.52 -2.974,-0.851 -6.32,-1.073 -9,-0.598 m 49.697,12.657 c 6.326,1.282 9.638,4.261 11.119,10.003 0.471,1.828 0.541,3.742 0.488,13.311 l -0.054,9.811 -0.653,0.564 c -1.061,0.917 -3.12,0.735 -3.823,-0.339 C 97.216,65.253 97.172,63.894 97.109,55.309 97.032,44.715 96.948,43.532 96.147,41.667 95.97,41.254 95.771,40.833 95.704,40.732 94.591,39.028 93.716,38.309 91.75,37.485 90.372,36.907 86.558,36.58 85.083,36.914 c -0.794,0.18 -2.293,0.782 -2.775,1.114 -0.244,0.168 -0.493,0.305 -0.554,0.305 -0.212,0 -1.792,1.586 -2.272,2.28 L 79,41.31 78.999,52.863 c -10e-4,7.457 -0.062,11.774 -0.174,12.175 -0.521,1.878 -3.846,2.059 -4.573,0.25 C 73.824,64.221 73.877,34.143 74.309,33.331 75.515,31.06 79,32.242 79,34.922 v 0.748 l 0.875,-0.833 c 0.481,-0.458 0.926,-0.834 0.988,-0.835 0.062,-0.001 0.212,-0.098 0.333,-0.216 1.439,-1.398 6.048,-2.171 9.168,-1.539 m 56.553,0.072 c 3.519,0.675 5.756,1.808 7.673,3.888 1.805,1.959 2.184,2.721 3.422,6.883 0.364,1.223 0.193,22.055 -0.186,22.586 -0.192,0.27 -0.456,0.491 -0.587,0.491 -0.132,0 -0.239,0.075 -0.239,0.166 0,0.376 -2.19,0.189 -2.745,-0.235 -0.911,-0.694 -0.922,-0.83 -0.922,-11.555 0,-8.316 -0.038,-9.944 -0.25,-10.543 -0.137,-0.39 -0.25,-0.888 -0.25,-1.107 0,-0.218 -0.066,-0.528 -0.148,-0.687 -0.082,-0.159 -0.325,-0.664 -0.542,-1.122 -0.473,-1.002 -1.973,-2.578 -2.893,-3.039 -1.196,-0.6 -1.485,-0.705 -2.654,-0.971 -2.169,-0.492 -6.335,-0.233 -7.004,0.435 -0.087,0.087 -0.261,0.158 -0.387,0.158 -0.638,0 -3.104,2.209 -3.692,3.308 -0.124,0.232 -0.18,3.938 -0.18,11.921 0,7.543 -0.058,11.62 -0.166,11.687 -0.092,0.057 -0.169,0.268 -0.172,0.469 -0.024,1.628 -3.522,2.039 -4.34,0.509 -0.202,-0.376 -0.238,-2.888 -0.238,-16.32 V 33.366 l 0.516,-0.494 c 0.909,-0.869 2.891,-0.868 3.682,10e-4 0.331,0.365 0.445,0.692 0.687,1.987 l 0.115,0.61 0.889,-0.807 c 2.53,-2.296 6.401,-3.15 10.611,-2.344 m 35.5,-0.001 c 1.699,0.324 2.665,0.627 3.807,1.196 0.352,0.176 0.746,0.319 0.875,0.319 0.129,0 0.234,0.075 0.234,0.167 0,0.092 0.076,0.167 0.167,0.167 0.643,0 3.635,2.456 4.75,3.899 0.275,0.356 0.575,0.73 0.667,0.832 0.323,0.359 1.083,1.597 1.083,1.765 0,0.094 0.075,0.17 0.167,0.17 0.091,0 0.166,0.106 0.166,0.235 0,0.128 0.161,0.56 0.357,0.958 0.363,0.736 0.409,0.846 0.878,2.102 0.549,1.473 0.264,2.804 -0.767,3.577 -0.028,0.021 -6.238,0.077 -13.801,0.125 l -13.75,0.087 -0.054,1.416 c -0.081,2.156 1.088,6.33 1.961,7 0.06,0.046 0.291,0.346 0.513,0.667 1.395,2.017 4.512,4.218 6.747,4.764 0.852,0.208 5.614,0.272 5.808,0.078 0.096,-0.097 0.381,-0.175 0.632,-0.175 0.251,0 0.503,-0.075 0.56,-0.167 0.056,-0.092 0.219,-0.167 0.362,-0.167 1.05,0 3.731,-2.242 5.761,-4.818 1.204,-1.527 3.109,-1.689 4.101,-0.348 0.437,0.591 0.503,2.006 0.109,2.333 -0.138,0.114 -0.25,0.299 -0.25,0.411 0,0.112 -0.15,0.34 -0.333,0.506 -0.184,0.166 -0.334,0.383 -0.334,0.484 -0.002,0.466 -3.229,3.817 -4.119,4.276 -0.255,0.131 -0.502,0.29 -0.549,0.351 -0.261,0.344 -2.879,1.391 -4.165,1.666 -2.169,0.464 -7.83,0.549 -8.094,0.123 -0.051,-0.083 -0.309,-0.15 -0.575,-0.15 -0.478,0 -0.721,-0.079 -2.164,-0.707 -1.619,-0.703 -1.96,-0.885 -3.167,-1.688 -3.035,-2.02 -7,-7.249 -7,-9.232 0,-0.169 -0.067,-0.378 -0.15,-0.465 -0.546,-0.579 -0.567,-8.177 -0.025,-9.492 0.075,-0.183 0.235,-0.67 0.355,-1.083 0.288,-0.989 1.326,-3.167 1.509,-3.167 0.079,0 0.144,-0.084 0.144,-0.188 0,-0.347 1.353,-2.128 2.438,-3.209 2.735,-2.725 4.973,-3.856 9.396,-4.749 1.321,-0.267 3.983,-0.206 5.75,0.131 m 116.25,-0.069 c 1.393,0.278 2.375,0.537 3,0.792 0.229,0.094 0.585,0.235 0.791,0.315 0.961,0.369 2.938,1.477 3.209,1.797 0.045,0.055 0.383,0.322 0.75,0.596 0.852,0.635 2.196,1.978 2.835,2.834 0.274,0.367 0.622,0.804 0.773,0.972 1.431,1.589 2.969,6.569 2.969,9.612 -0.001,1.654 -0.64,5.16 -1.017,5.575 -0.079,0.087 -0.144,0.281 -0.144,0.431 0,0.845 -2.046,4.177 -3.591,5.848 -2.332,2.522 -6.5,5.146 -8.174,5.146 -0.223,0 -0.536,0.069 -0.695,0.153 -0.829,0.438 -6.254,0.439 -7.079,0 -0.159,-0.084 -0.417,-0.153 -0.572,-0.153 -0.392,0 -2.152,-0.639 -2.965,-1.075 -1.021,-0.549 -1.498,-0.832 -1.59,-0.942 -0.046,-0.055 -0.167,-0.13 -0.269,-0.167 -1.123,-0.404 -5.565,-5.172 -5.565,-5.974 0,-0.097 -0.064,-0.176 -0.142,-0.176 -0.291,0 -1.684,-3.394 -1.689,-4.115 -0.001,-0.201 -0.066,-0.405 -0.145,-0.453 -0.416,-0.257 -0.566,-5.378 -0.213,-7.265 0.111,-0.596 0.245,-1.328 0.297,-1.627 0.053,-0.298 0.163,-0.584 0.244,-0.634 0.082,-0.051 0.148,-0.228 0.148,-0.393 0,-0.35 1.257,-2.869 1.846,-3.698 0.733,-1.034 0.897,-1.223 2.155,-2.481 2.792,-2.793 5.594,-4.303 8.988,-4.845 0.597,-0.095 1.118,-0.207 1.159,-0.248 0.178,-0.178 3.547,-0.052 4.686,0.175 m 33.564,0.079 c 3.197,0.818 4.606,1.991 4.597,3.827 -0.006,1.147 -0.194,1.534 -0.958,1.97 -0.686,0.392 -2.622,0.216 -3.038,-0.275 -1.368,-1.614 -5.236,-1.392 -7.499,0.43 -0.911,0.734 -1.98,1.906 -2.208,2.42 -0.113,0.256 -0.263,0.467 -0.332,0.467 -0.07,0 -0.126,0.135 -0.126,0.3 0,0.165 -0.063,0.371 -0.14,0.458 -0.435,0.493 -0.527,2.73 -0.527,12.808 0,11.518 0.05,10.968 -1.042,11.513 -1.312,0.654 -3.072,0.152 -3.56,-1.015 -0.361,-0.863 -0.342,-30.926 0.02,-31.791 1.006,-2.409 4.569,-1.402 4.595,1.3 0.007,0.739 0.057,1.231 0.11,1.093 1.028,-2.666 6.274,-4.485 10.108,-3.505 M 357.4,32.253 c 3.926,0.738 6.358,1.988 9.017,4.638 1.733,1.726 2.7,3.077 3.527,4.922 0.313,0.699 0.641,1.401 0.729,1.56 0.088,0.159 0.16,0.473 0.16,0.698 0,0.225 0.075,0.456 0.167,0.512 0.367,0.227 0.192,2.008 -0.244,2.478 -0.72,0.777 -0.637,0.772 -14.665,0.772 h -13.387 l -0.114,0.607 c -0.13,0.693 0.011,2.743 0.274,3.977 0.828,3.894 4.51,7.996 8.136,9.064 0.412,0.121 0.922,0.288 1.133,0.37 0.553,0.215 4.984,0.184 5.689,-0.041 2.569,-0.819 6.511,-3.606 6.511,-4.603 0,-0.085 0.188,-0.373 0.417,-0.639 0.229,-0.267 0.416,-0.533 0.416,-0.591 10e-4,-0.416 1.573,-0.823 2.379,-0.616 2.132,0.546 2.379,1.94 0.768,4.336 C 367.296,61.21 364.643,64 364.222,64 364.1,64 364,64.075 364,64.167 c 0,0.091 -0.113,0.166 -0.25,0.166 -0.137,0 -0.25,0.065 -0.25,0.144 0,0.191 -2.563,1.356 -2.984,1.356 -0.181,0 -0.376,0.075 -0.433,0.167 -0.056,0.092 -0.346,0.167 -0.643,0.167 -0.297,0 -0.625,0.085 -0.729,0.188 -0.281,0.282 -7.123,0.3 -7.403,0.02 -0.114,-0.115 -0.451,-0.208 -0.748,-0.208 -0.297,0 -0.587,-0.075 -0.643,-0.167 -0.057,-0.092 -0.246,-0.167 -0.421,-0.167 -0.406,0 -2.996,-1.176 -2.996,-1.361 0,-0.076 -0.079,-0.139 -0.176,-0.139 -1.215,0 -5.697,-4.637 -6.933,-7.172 -2.826,-5.799 -2.116,-14.367 1.515,-18.268 0.098,-0.105 0.509,-0.613 0.914,-1.129 1.448,-1.845 4.73,-4.121 6.847,-4.747 0.412,-0.122 0.937,-0.287 1.166,-0.366 0.23,-0.079 0.94,-0.224 1.579,-0.323 0.639,-0.099 1.195,-0.213 1.236,-0.254 0.178,-0.178 3.522,-0.052 4.752,0.179 m -234.236,0.384 c 0.959,0.709 0.915,-0.046 0.964,16.568 0.044,15.261 0.043,15.289 -0.309,16.037 -0.556,1.184 -2.279,1.668 -3.597,1.011 -1.021,-0.51 -0.972,0.337 -0.972,-16.903 V 33.583 l 0.385,-0.539 c 0.641,-0.899 2.564,-1.121 3.529,-0.407 m 54.503,4.145 c -3.442,0.577 -7.551,3.288 -9.127,6.021 l -0.209,0.364 h 10.918 c 7.815,0 10.918,-0.052 10.918,-0.183 0,-0.588 -2.234,-3.249 -3.5,-4.169 -2.272,-1.649 -6.113,-2.517 -9,-2.033 m 116.725,0.053 c -2.099,0.226 -3.601,0.811 -5.494,2.142 -1.531,1.075 -3.397,3.288 -3.908,4.633 -0.098,0.258 -0.278,0.694 -0.399,0.971 -0.59,1.34 -1.028,4.33 -0.78,5.317 0.104,0.412 0.189,1.088 0.189,1.501 0,0.414 0.067,0.924 0.149,1.135 0.8,2.056 1.144,2.817 1.547,3.413 0.259,0.383 0.471,0.741 0.471,0.796 0,0.451 2.974,3.21 4.081,3.786 2.571,1.337 2.691,1.366 5.585,1.354 2.337,-0.01 3.603,-0.145 3.761,-0.401 0.051,-0.082 0.207,-0.149 0.347,-0.149 0.374,0 3.661,-1.674 3.892,-1.983 0.046,-0.061 0.401,-0.34 0.789,-0.621 1.006,-0.727 2.378,-2.794 2.378,-3.582 0,-0.162 0.067,-0.335 0.148,-0.386 0.082,-0.05 0.191,-0.336 0.243,-0.634 0.052,-0.299 0.175,-0.956 0.273,-1.46 0.301,-1.553 0.397,-4.585 0.181,-5.716 -0.255,-1.333 -0.533,-2.326 -0.707,-2.526 -0.076,-0.087 -0.138,-0.25 -0.138,-0.363 0,-0.263 -1.069,-2.061 -1.502,-2.526 -0.182,-0.195 -0.331,-0.404 -0.331,-0.464 0,-0.417 -3.395,-3.072 -3.928,-3.072 -0.131,0 -0.239,-0.075 -0.239,-0.167 0,-0.091 -0.135,-0.166 -0.3,-0.166 -0.165,0 -0.371,-0.067 -0.458,-0.148 -0.532,-0.497 -3.918,-0.893 -5.85,-0.684 m 58.342,-0.002 c -2.975,0.436 -7.64,3.523 -8.781,5.811 l -0.261,0.523 h 10.904 c 5.997,0 10.904,-0.061 10.904,-0.134 0,-0.37 -1.195,-2 -2.333,-3.183 -2.373,-2.466 -6.349,-3.616 -10.433,-3.017"
       style="fill:none;fill-rule:evenodd;stroke:none"
       inkscape:connector-curvature="0" />
    <g
       id="g843">
      <g
         transform="matrix(1.3333333,0,0,1.3333333,-241.79262,-1041.2475)"
         id="g1662">
        <g
           transform="matrix(0.05479013,0,0,-0.05257027,-185.4935,854.1954)"
           id="g1284"
           style="fill:#000000;stroke:none">
          <g
             transform="matrix(1.0911205,0,0,1.2383212,-323.38454,-344.57183)"
             id="g1627">
            <path
               id="path14-1"
               d="m 3460,2363 c -40,-15 -40,-6 -40,-830 0,-780 0,-793 20,-813 26,-26 74,-26 100,0 20,20 20,33 20,813 0,619 -3,797 -12,810 -14,18 -64,30 -88,20 z"
               inkscape:connector-curvature="0" />
            <path
               id="path16-2"
               d="m 1275,2264 c -290,-65 -541,-328 -595,-623 -16,-87 -13,-243 5,-329 31,-148 104,-278 222,-394 161,-160 308,-221 533,-222 151,-1 203,10 338,75 89,43 114,61 196,142 57,57 109,119 134,162 149,254 149,569 1,823 -46,78 -209,238 -289,285 -108,62 -205,88 -350,93 -89,3 -145,-1 -195,-12 z m 319,-134 c 118,-30 189,-72 286,-170 136,-136 199,-286 200,-472 1,-416 -371,-736 -760,-654 -126,27 -212,75 -315,180 -143,144 -195,271 -195,476 0,211 77,376 243,518 147,126 349,171 541,122 z"
               inkscape:connector-curvature="0" />
            <path
               id="path18-0"
               d="m 6878.5456,2240.9581 c -104,-28 -250,-147 -297,-242 -25,-51 -28,-68 -28,-157 0,-116 19,-166 87,-233 63,-63 119,-87 333,-141 281,-72 350,-109 395,-212 77,-180 -42,-379.99997 -264,-443.99997 -150,-43 -296,16 -423,170 -40,48.99997 -50,54.99997 -83,54.99997 -41,0 -70,-24 -70,-56.99997 0,-58 144,-198 264,-257 157,-76 300,-74 466,6 87,42 186,142 231,233 28,56.99997 34,80.99997 37,154.99997 7,140 -28,231 -120,317 -65,59 -83,66 -310,128 -236,65 -267,76 -324,117 -107,77 -111,262 -7,360 114,109 359,117 491,17 59,-44 101,-50 132,-19 28,28 25,54 -11,95 -87,98 -335,153 -499,109 z"
               inkscape:connector-curvature="0" />
            <path
               id="path20-1"
               d="m 3789,2195 c -52,-28 -61,-103 -19,-145 29,-29 94,-27 125,5 38,37 35,95 -6,129 -34,29 -61,32 -100,11 z"
               inkscape:connector-curvature="0" />
            <path
               id="path22-9"
               d="m 7754.5456,2100.9581 c -13,-13 -16,-46 -16,-200 v -184 h -48 c -57,0 -82,-20 -82,-66 0,-46 14,-58 72,-64 l 53,-5 5,-325 c 5,-265.99997 9,-331.99997 22,-365.99997 43,-110 82,-161 152,-196 71,-36 244,-20 297,28 24,21 25,67 2,89 -13,14 -26,16 -67,10 -28,-4 -79,-8 -113,-9 -55,-1 -65,2 -91,27 -56,54 -62,96 -62,437.99997 v 309 h 98 c 53,0 102,4 109,8 32,20 32,94 0,114 -7,4 -56,8 -109,8 h -98 v 178 c 0,206 -5,222 -70,222 -22,0 -45,-7 -54,-16 z"
               inkscape:connector-curvature="0" />
            <path
               id="path24-9"
               d="m 2685,1736 c -56,-18 -95,-40 -132,-75 l -33,-30 v 32 c 0,51 -24,77 -70,77 -73,0 -70,26 -70,-520 V 731 l 22,-15 c 31,-22 74,-20 98,4 19,19 20,33 20,388 v 368 l 35,42 c 20,22 61,53 92,68 46,23 68,28 133,27 104,-1 172,-24 225,-78 73,-76 78,-102 83,-478 4,-360 4,-357 65,-357 73,1 77,20 77,328 0,288 -9,391 -40,475 -26,70 -99,153 -169,190 -92,51 -249,71 -336,43 z"
               inkscape:connector-curvature="0" />
            <path
               id="path26-9"
               d="m 3812,1742 c -53,-8 -53,-10 -50,-531 3,-464 4,-483 22,-497 26,-19 81,-18 100,2 14,14 16,73 16,502 0,268 -4,492 -8,499 -10,16 -52,30 -80,25 z"
               inkscape:connector-curvature="0" />
            <path
               id="path28-1"
               d="m 4435,1743 c -57,-13 -90,-28 -134,-63 l -49,-39 -7,37 c -10,52 -21,62 -70,62 -47,0 -62,-12 -65,-50 -1,-14 -2,-235 -1,-492 1,-515 -1,-498 64,-498 75,1 77,11 77,426 v 354 l 37,41 c 69,77 163,107 277,89 116,-18 187,-69 228,-165 9,-21 14,-129 18,-373 5,-325 6,-344 24,-358 28,-20 80,-18 99,4 15,17 17,55 17,343 0,256 -3,337 -15,382 -42,160 -144,259 -302,292 -65,14 -156,18 -198,8 z"
               inkscape:connector-curvature="0" />
            <path
               id="path30-3"
               d="m 5477,1735 c -126,-32 -227,-102 -299,-207 -73,-108 -102,-235 -86,-380 23,-217 230,-423 449,-447 174,-19 321,29 420,137 97,105 113,168 49,191 -41,14 -72,1 -99,-43 -62,-99 -171,-156 -301,-156 -107,0 -173,25 -250,97 -83,76 -124,161 -129,265 l -3,77 421,3 c 383,3 422,5 438,20 59,60 -65,287 -205,377 -109,70 -281,98 -405,66 z m 292,-151 c 31,-14 69,-37 85,-52 33,-31 86,-101 86,-114 0,-4 -153,-8 -340,-8 -383,0 -360,-6 -281,75 56,58 125,101 191,120 77,21 187,13 259,-21 z"
               inkscape:connector-curvature="0" />
            <path
               id="path32-1"
               d="m 8661.5456,1711.9581 c -88,-19 -176,-69 -249,-142 -186,-186 -201,-485 -35,-693.99997 121,-152 286,-222 472,-198 211,26 403,221 441,446.99997 27,160 -28,329 -146,446 -131,131 -301,180 -483,141 z m 189,-126 c 121,-26 218,-104 272,-219 27,-58 30,-75 31,-160 0,-192 -55,-289.99997 -202,-360.99997 -63,-31 -75,-34 -168,-34 -89,0 -106,3 -156,28 -69,33 -152,119 -184,188.99997 -71,157 -42,338 72,453 56,56 108,84 183,101 71,16 88,16 152,3 z"
               inkscape:connector-curvature="0" />
            <path
               id="path34-06"
               d="m 9715.5456,1710.9581 c -32,-10 -64,-31 -93,-59 l -44,-44 v 39 c 0,49 -21,70 -70,70 -73,0 -70,25 -70,-516 0,-470.99997 1,-484.99997 20,-503.99997 26,-26 74,-26 100,0 19,19 20,33 20,359.99997 0,380 1,383 68,453 44,46 92,72 147,80 42,7 115,-8 115,-22 0,-5 13,-14 29,-21 24,-9 35,-9 58,2 23.0004,11 29.0004,20 31.0004,54 3,36 -1,45 -28.0004,67 -63,53 -186,71 -283,41 z"
               inkscape:connector-curvature="0" />
            <path
               id="path36-14"
               d="m 10488.546,1719.9581 c -102,-16 -225,-86 -294,-167 -95,-111 -130,-220 -124,-382 4,-109 6,-116 46,-196.99997 79,-160 241,-278 403,-296 174,-19 321,29 420,137 97,105 113,168 49,190.99997 -41,14 -72,1 -99,-42.99997 -62,-99 -171,-156 -301,-156 -107,0 -173,25 -250,97 -82,76 -122,156.99997 -128,262.99997 l -5,79 423,3 422,3 19,24 c 25,31 20,61 -28,161 -99,205 -323,320 -553,283 z m 257,-158 c 32,-14 75,-43 96,-63 40,-39 82,-100 75,-108 -3,-2 -158,-3 -344,-2 l -339,3 50,54 c 104,111 199,154 327,147 55,-3 93,-11 135,-31 z"
               inkscape:connector-curvature="0" />
          </g>
        </g>
        <g
           inkscape:transform-center-y="312.50251"
           inkscape:transform-center-x="-215.69319"
           style="fill:#000000;stroke:#000000;stroke-width:234.974823;stroke-miterlimit:4;stroke-dasharray:none;stroke-opacity:1"
           transform="matrix(0.0158162,-3.303781e-4,-3.89266e-4,-0.01412468,-15.757622,920.21478)"
           id="g1451-2-2-5">
          <path
             inkscape:connector-curvature="0"
             d="m 13360,21794 c -525,-63 -968,-280 -1374,-674 -585,-568 -986,-1405 -1092,-2280 -21,-180 -29,-552 -15,-765 34,-521 133,-872 326,-1160 283,-423 594,-649 836,-606 66,11 91,25 83,46 -4,9 -31,14 -88,17 -71,3 -92,8 -157,40 -273,136 -581,648 -683,1133 -99,475 -111,938 -35,1320 24,118 116,434 194,664 176,518 397,953 635,1246 86,107 345,365 450,449 270,215 544,355 810,412 127,28 361,25 500,-5 336,-72 582,-202 806,-425 273,-274 429,-615 505,-1107 20,-123 23,-186 23,-434 1,-307 -8,-425 -50,-675 -74,-437 -255,-978 -470,-1410 -202,-403 -394,-645 -644,-812 -107,-71 -335,-180 -475,-228 -153,-52 -277,-84 -600,-155 -143,-31 -266,-62 -272,-67 -7,-6 -13,-21 -13,-33 0,-31 15,-41 80,-53 213,-42 473,-12 777,89 305,102 546,241 723,418 570,571 1026,1540 1137,2416 22,175 25,617 5,775 -72,569 -253,952 -626,1325 -280,279 -571,448 -896,520 -73,16 -325,28 -400,19 z"
             id="path2-5-9-6-8"
             style="stroke:#000000;stroke-width:234.974823;stroke-miterlimit:4;stroke-dasharray:none;stroke-opacity:1" />
          <path
             inkscape:connector-curvature="0"
             d="m 20005,20394 c -16,-2 -79,-9 -140,-15 -268,-27 -584,-90 -942,-190 -818,-228 -1350,-471 -1813,-827 -510,-393 -888,-828 -1119,-1290 -86,-172 -131,-283 -211,-529 -88,-269 -143,-476 -174,-663 -28,-165 -32,-215 -46,-500 -11,-209 -29,-353 -56,-448 -13,-48 -31,-69 -217,-256 -204,-205 -285,-276 -433,-379 l -82,-57 -258,-50 c -414,-81 -693,-139 -1629,-340 -896,-192 -1303,-275 -1311,-267 -2,2 22,22 53,44 331,233 586,629 741,1153 70,235 209,870 196,891 -32,52 -80,-98 -199,-621 -131,-576 -339,-978 -661,-1279 -65,-61 -224,-187 -270,-214 -19,-11 -420,-74 -644,-102 -231,-28 -489,-51 -693,-61 l -137,-7 19,44 c 33,73 68,209 81,309 33,253 -46,551 -216,817 -106,167 -293,382 -479,554 -92,85 -111,108 -115,137 -6,40 -27,54 -32,21 -3,-19 -16,-10 -111,70 -60,50 -112,91 -116,91 -28,0 -8,-28 96,-132 l 118,-118 -24,-68 c -99,-285 -393,-480 -826,-547 -448,-69 -1130,29 -1613,231 -510,214 -1046,667 -1286,1089 -103,181 -163,359 -203,600 -14,85 -18,166 -18,360 0,219 3,263 22,361 53,260 145,439 302,586 157,148 408,243 742,279 127,14 393,6 539,-16 529,-79 1126,-349 1669,-755 221,-165 331,-259 476,-404 159,-160 269,-308 351,-471 143,-289 161,-555 57,-856 -41,-120 -40,-150 7,-169 27,-11 34,-10 69,13 53,36 154,164 195,250 53,109 69,191 63,322 -12,286 -188,594 -538,944 -352,351 -827,680 -1386,960 -760,380 -1402,504 -1889,365 -561,-160 -914,-710 -914,-1424 0,-481 156,-914 475,-1315 83,-104 286,-306 405,-402 201,-163 496,-345 698,-433 268,-116 682,-219 1072,-266 200,-25 582,-25 735,-1 311,49 501,132 656,286 71,70 94,101 127,171 40,85 72,192 72,243 0,15 4,27 9,27 16,0 310,-310 398,-420 203,-252 306,-476 334,-724 20,-179 -12,-374 -86,-531 l -35,-73 -518,-5 c -456,-4 -549,-7 -787,-30 -148,-14 -342,-32 -430,-39 -200,-16 -751,-16 -1265,0 -1755,56 -2107,96 -3933,452 -312,60 -576,110 -587,110 -50,0 -10,-19 103,-48 67,-18 253,-66 412,-108 1339,-349 2023,-453 3395,-514 1026,-46 1552,-52 1905,-21 l 100,8 51,-39 c 200,-151 461,-249 708,-266 222,-15 390,14 561,98 113,55 200,122 268,208 l 47,58 192,12 c 251,15 476,37 718,69 107,14 226,27 263,29 38,2 73,6 78,9 5,3 138,28 296,55 379,64 655,120 1443,290 972,210 1271,271 1290,265 23,-7 199,27 305,60 46,14 178,43 292,64 2210,415 3816,447 5308,105 195,-45 502,-131 689,-194 140,-46 166,-51 166,-30 0,16 -339,142 -600,221 -776,238 -1571,348 -2504,349 -216,0 -335,4 -325,10 40,24 425,172 516,199 175,52 443,100 743,133 149,17 793,16 995,0 888,-74 1585,-231 2338,-526 605,-237 1109,-500 1718,-897 263,-171 474,-297 907,-539 199,-112 360,-205 358,-207 -2,-2 -26,5 -55,16 -162,65 -608,183 -904,240 -508,99 -801,130 -1703,181 -589,33 -837,51 -1104,80 -280,31 -359,38 -835,70 -830,56 -1184,105 -1565,216 -227,66 -379,128 -810,331 -472,223 -698,308 -942,358 -205,41 -538,54 -538,20 0,-8 31,-14 98,-19 210,-14 435,-68 663,-157 74,-29 309,-140 523,-246 540,-269 679,-328 951,-402 384,-106 746,-158 1520,-221 204,-17 483,-41 620,-55 343,-34 684,-60 1185,-90 1184,-70 1649,-126 2180,-261 323,-81 565,-164 876,-300 706,-307 696,-303 719,-284 8,7 15,18 15,25 0,12 -129,112 -205,159 -16,10 -90,62 -163,114 -178,126 -409,274 -737,472 -148,89 -387,242 -530,338 -632,427 -813,546 -1010,664 -882,528 -1591,805 -2555,998 -524,105 -953,150 -1425,150 -385,0 -671,-27 -1010,-95 -432,-86 -797,-224 -1170,-441 l -91,-52 -149,-11 c -529,-41 -1106,-112 -1689,-210 -132,-23 -241,-39 -242,-38 -2,2 36,31 84,65 129,91 302,252 435,405 119,135 119,135 170,142 124,16 287,70 439,145 133,67 557,314 648,378 126,90 349,308 476,466 127,158 226,300 664,951 189,281 389,572 444,649 362,498 685,818 1101,1091 253,167 469,280 1040,547 l 320,150 130,-10 c 141,-10 168,-5 163,31 -3,19 -15,25 -83,39 -222,48 -360,61 -680,63 -170,2 -323,1 -340,-1 z m 310,-183 c -657,-223 -1202,-563 -1685,-1051 -298,-300 -478,-542 -770,-1035 -156,-262 -630,-996 -729,-1129 -162,-215 -236,-285 -536,-500 -416,-299 -800,-538 -899,-562 -25,-6 -8,17 115,152 338,374 408,469 702,947 49,79 120,186 158,238 78,106 84,117 74,127 -11,11 -222,-213 -347,-370 -63,-79 -204,-262 -313,-408 -109,-146 -227,-301 -263,-345 -100,-122 -215,-255 -218,-252 -2,2 6,36 16,77 29,112 46,211 80,464 46,344 98,572 200,876 221,663 551,1165 1030,1567 848,712 2017,1159 3270,1252 58,5 146,9 195,9 l 90,1 z M 9710,14209 c -312,-279 -791,-336 -1208,-143 -70,32 -217,123 -210,130 4,3 419,41 518,47 30,2 255,4 500,5 l 445,1 z"
             id="path4-6-4-5-8"
             style="stroke:#000000;stroke-width:234.974823;stroke-miterlimit:4;stroke-dasharray:none;stroke-opacity:1" />
          <path
             inkscape:connector-curvature="0"
             d="m 12403,17109 c -130,-22 -258,-93 -355,-198 -155,-167 -122,-354 86,-476 56,-33 75,-24 26,13 -96,72 -140,140 -140,217 0,135 175,271 375,291 82,9 153,-9 209,-52 51,-39 122,-141 166,-240 17,-38 37,-72 43,-76 24,-15 56,-7 76,18 18,22 21,41 21,114 0,124 -20,178 -93,257 -69,74 -151,118 -247,133 -74,11 -94,11 -167,-1 z"
             id="path6-0-2-7-9"
             style="stroke:#000000;stroke-width:234.974823;stroke-miterlimit:4;stroke-dasharray:none;stroke-opacity:1" />
          <path
             inkscape:connector-curvature="0"
             d="m 8819,16827 c -158,-54 -271,-195 -314,-391 -52,-234 57,-416 247,-416 39,0 149,27 161,39 5,5 -29,7 -76,4 -109,-7 -149,1 -192,38 -51,45 -68,101 -63,202 4,70 10,96 41,160 40,85 108,161 172,192 67,33 176,27 304,-18 98,-34 106,-35 123,-20 31,28 22,57 -34,109 -69,65 -111,90 -183,109 -78,20 -107,19 -186,-8 z"
             id="path8-0-7-2-0"
             style="stroke:#000000;stroke-width:234.974823;stroke-miterlimit:4;stroke-dasharray:none;stroke-opacity:1" />
        </g>
      </g>
    </g>
  </g>
</svg>
