<?xml version="1.0" encoding="UTF-8" standalone="no"?>
<svg
   xmlns:dc="http://purl.org/dc/elements/1.1/"
   xmlns:cc="http://creativecommons.org/ns#"
   xmlns:rdf="http://www.w3.org/1999/02/22-rdf-syntax-ns#"
   xmlns:svg="http://www.w3.org/2000/svg"
   xmlns="http://www.w3.org/2000/svg"
   xmlns:sodipodi="http://sodipodi.sourceforge.net/DTD/sodipodi-0.dtd"
   xmlns:inkscape="http://www.inkscape.org/namespaces/inkscape"
   id="svg"
   version="1.1"
   width="925.57697"
   height="380.50504"
   viewBox="0 0 925.57695 380.50504"
   sodipodi:docname="Ürünlerimiz.svg"
   inkscape:version="0.92.4 (5da689c313, 2019-01-14)">
  <metadata
     id="metadata13">
    <rdf:RDF>
      <cc:Work
         rdf:about="">
        <dc:format>image/svg+xml</dc:format>
        <dc:type
           rdf:resource="http://purl.org/dc/dcmitype/StillImage" />
        <dc:title></dc:title>
      </cc:Work>
    </rdf:RDF>
  </metadata>
  <defs
     id="defs11" />
  <sodipodi:namedview
     pagecolor="#ffffff"
     bordercolor="#666666"
     borderopacity="1"
     objecttolerance="10"
     gridtolerance="10"
     guidetolerance="10"
     inkscape:pageopacity="0"
     inkscape:pageshadow="2"
     inkscape:window-width="1366"
     inkscape:window-height="705"
     id="namedview9"
     showgrid="false"
     fit-margin-top="0"
     fit-margin-left="0"
     fit-margin-right="0"
     fit-margin-bottom="0"
     inkscape:zoom="0.50204583"
     inkscape:cx="538.90439"
     inkscape:cy="114.82608"
     inkscape:window-x="-8"
     inkscape:window-y="-8"
     inkscape:window-maximized="1"
     inkscape:current-layer="g843" />
  <g
     id="svgg"
     transform="translate(410.20358,203.66063)">
    <g
       id="g843">
      <g
         id="g865"
         transform="matrix(1.2468483,0,0,1.2322651,-127.21956,-41.066539)">
        <path
           inkscape:connector-curvature="0"
           style="fill:none;fill-rule:evenodd;stroke:none;stroke-width:1.07403398"
           d="M -22.325897,51.838745 V 119.33149 H 189.60808 401.54206 V 51.838745 -15.654 H 189.60808 -22.325897 V 51.838745 M 25.779937,6.2114722 c 2.122519,0.9111521 2.991449,4.2879668 1.484598,5.7662758 -1.432674,1.404284 -4.576714,1.184388 -5.478493,-0.384274 -1.67004,-2.9043649 1.093579,-6.6273517 3.993895,-5.3820018 m 10.191906,0.1469601 c 2.807065,1.5218525 2.200934,6.2626737 -0.826543,6.4749487 -1.944494,0.136075 -2.349288,0.03157 -3.144041,-0.808824 C 29.385995,9.2606203 32.67415,4.5698745 35.971843,6.3584323 M 174.78966,12.862773 c 1.23769,0.599815 1.12537,-2.550572 1.17942,33.260861 0.0276,17.662416 0.009,32.282215 -0.0392,32.487959 -0.50757,2.159768 -4.41776,2.40579 -5.39901,0.339641 -0.45884,-0.965582 -0.56163,-63.796973 -0.10703,-64.914958 0.51076,-1.256235 2.88124,-1.893062 4.36584,-1.173503 M 10.700835,16.509559 c 1.822632,0.66513 1.660502,-1.366184 1.795081,22.447869 0.114444,20.167268 0.174845,22.94209 0.514999,23.304592 0.08902,0.0947 0.16213,0.477892 0.16213,0.85128 0,0.373387 0.07947,0.729357 0.176965,0.790318 0.09642,0.06205 0.174845,0.291742 0.173785,0.51055 -0.0042,0.544296 1.196368,3.49547 1.789783,4.403357 1.1561,1.766786 4.515253,4.106171 7.396496,5.150132 0.340154,0.123011 0.776738,0.291742 0.971717,0.374476 0.885885,0.37883 4.057476,0.78923 6.093102,0.78923 2.15219,0 4.560819,-0.235136 4.695397,-0.458298 0.05193,-0.086 0.328498,-0.155668 0.615668,-0.155668 0.287171,0 0.659115,-0.07185 0.828663,-0.161112 0.168487,-0.08818 0.783095,-0.389717 1.365914,-0.669485 0.582819,-0.27868 1.392406,-0.736977 1.798259,-1.017834 0.405854,-0.280857 0.789455,-0.509462 0.851975,-0.509462 0.183323,0 2.08649,-2.023693 2.645996,-2.812923 0.281873,-0.398425 0.557387,-0.76637 0.61143,-0.816444 0.616728,-0.573689 2.481747,-5.077197 2.481747,-5.994881 0,-0.25473 0.07205,-0.54103 0.16001,-0.635738 0.35181,-0.37883 0.410092,-2.953351 0.520297,-22.94209 0.111266,-20.350151 0.120803,-20.786677 0.467315,-21.363631 1.050133,-1.750457 4.284245,-1.689496 5.149996,0.09797 0.309423,0.641181 0.324259,1.599143 0.32108,20.62992 -0.0042,21.322265 -0.01801,21.698918 -0.93145,25.763723 -0.48321,2.147793 -2.620564,7.008359 -3.392004,7.710501 -0.0551,0.05008 -0.394197,0.508373 -0.753425,1.020012 -5.909779,8.38434 -20.075446,10.655145 -29.887989,4.791984 C 16.740953,77.259558 16.177208,76.890525 16.072301,76.789286 15.966334,76.686958 15.651612,76.440936 15.3708,76.241724 12.607181,74.272463 9.2946528,69.49463 8.1396125,65.808655 7.9668864,65.260004 7.7634298,64.648215 7.6871335,64.447914 7.3459199,63.557446 7.0004674,61.432512 6.7291919,58.552096 6.404933,55.118675 6.3445317,19.638174 6.6603134,18.351458 7.0682863,16.685911 8.8983362,15.85096 10.700835,16.509559 m 247.802745,2.787886 c 0.73965,0.365767 1.57255,1.138668 1.57255,1.459803 0,0.130631 0.0636,0.238402 0.14093,0.238402 0.46309,0 0.69727,1.911568 0.35924,2.920693 -1.44751,4.319536 -7.30007,3.395321 -7.25768,-1.146288 0.009,-1.035251 0.23312,-1.768963 0.69302,-2.270805 0.11232,-0.12301 0.23207,-0.293919 0.26492,-0.381007 0.33486,-0.882848 3.04126,-1.408638 4.22702,-0.820798 m 73.71806,-0.116479 c 0.0605,0.100149 0.24796,0.181795 0.41645,0.181795 0.16849,0 0.59235,0.305894 0.94098,0.68037 3.55625,3.812251 -1.68276,9.193165 -5.33543,5.479975 -0.78734,-0.800115 -1.39877,-3.381168 -0.87847,-3.711012 0.0975,-0.06205 0.17696,-0.252554 0.17696,-0.423463 0,-1.382512 4.03205,-3.285372 4.67951,-2.207665 m -221.2559,8.45401 c 1.65414,0.567157 2.52307,1.825569 2.52307,3.654405 v 1.16806 l -0.97913,0.981911 -0.98019,0.981911 h -1.39453 c -1.73574,0 -2.44996,-0.370122 -2.98933,-1.549068 -0.38996,-0.853457 -0.51288,-2.69209 -0.1918,-2.895657 0.0974,-0.06205 0.17697,-0.25473 0.17697,-0.427816 0,-0.658599 1.67427,-1.90286 2.95224,-2.194603 0.0201,-0.0043 0.41751,0.121922 0.8827,0.280857 m -9.1778,0.276502 c 2.28889,1.138668 2.58242,4.815934 0.49063,6.144018 -0.92086,0.584574 -3.296636,0.527967 -4.094567,-0.09689 -3.11437,-2.440624 0.07947,-7.799765 3.603937,-6.047132 M 79.490366,37.957012 c 0.582818,0.153491 1.21862,0.351615 1.4136,0.439791 0.193919,0.08817 0.665472,0.302628 1.048013,0.475715 0.796872,0.361413 2.395913,1.826659 2.395913,2.195691 0,0.136074 0.07947,0.247111 0.175906,0.247111 0.607191,0 0.05193,3.036085 -0.644279,3.528129 -0.973837,0.689079 -3.5944,0.741332 -3.5944,0.07185 0,-0.08382 -0.112325,-0.152403 -0.250083,-0.152403 -0.137757,0 -0.276573,-0.06423 -0.308363,-0.143695 -0.61143,-1.489194 -4.647713,-1.699293 -7.318081,-0.379918 -1.639309,0.809912 -3.541417,2.564724 -4.256694,3.925465 -0.170606,0.324401 -0.370885,0.590017 -0.446121,0.590017 -0.07524,0 -0.136697,0.157846 -0.136697,0.351616 0,0.193769 -0.07947,0.402779 -0.175906,0.464828 -0.09749,0.06096 -0.176965,0.305895 -0.176965,0.544297 0,0.237314 -0.07947,0.482246 -0.176965,0.544297 -0.114444,0.07293 -0.175904,4.903021 -0.175904,13.899151 0,15.20655 0.0604,14.375954 -1.121132,15.301258 -1.12325,0.880671 -3.852959,0.543208 -4.323452,-0.534499 -0.54467,-1.247527 -0.560566,-1.832101 -0.560566,-20.229317 0,-18.617112 0.01165,-18.994854 0.598714,-20.30552 0.316841,-0.706496 1.561953,-1.170236 2.790111,-1.038516 1.851243,0.199212 2.461612,0.925302 2.582415,3.072008 l 0.08053,1.418435 0.371944,-0.50946 c 0.698322,-0.952519 2.158547,-2.350272 2.725471,-2.608268 0.310484,-0.141518 0.564804,-0.31787 0.564804,-0.394071 0,-0.07511 0.153652,-0.137163 0.342273,-0.137163 0.188621,0 0.38466,-0.06858 0.434465,-0.152403 0.09537,-0.156757 1.904227,-0.682548 2.843095,-0.826241 0.980195,-0.149138 4.229142,0.06096 5.298349,0.341818 m 70.203119,0.0022 c 1.91802,0.446323 2.92152,0.767457 3.75124,1.200718 0.16849,0.08817 0.3942,0.160023 0.50229,0.160023 0.89436,0 5.81334,4.29994 5.81334,5.081551 0,0.09906 0.0688,0.179617 0.1526,0.179617 0.0837,0 0.45035,0.633561 0.81488,1.406462 0.36453,0.7729 0.73329,1.547978 0.81912,1.721065 0.0858,0.173086 0.15683,0.465917 0.15683,0.649889 0,0.185062 0.0562,0.394071 0.12612,0.46483 0.21087,0.217718 0.56057,1.737393 0.83926,3.650051 0.3232,2.218552 0.39842,24.920063 0.0869,26.072882 -0.52665,1.947493 -4.1306,2.55275 -5.20298,0.874141 -0.46943,-0.733711 -0.51924,-1.859317 -0.61567,-13.883911 -0.11656,-14.354183 -0.0646,-13.757635 -1.474,-16.963539 -0.22465,-0.511639 -1.29916,-1.969264 -1.70501,-2.313261 -0.88164,-0.746774 -1.87561,-1.493548 -1.99112,-1.494637 -0.0742,-0.0011 -0.47155,-0.155669 -0.8827,-0.343995 -3.37717,-1.53927 -9.24563,-1.354209 -11.63836,0.366856 -0.2575,0.186149 -0.54466,0.337463 -0.63898,0.337463 -0.0933,0 -0.81065,0.656422 -1.59374,1.459803 -2.37684,2.434093 -2.15961,0.645536 -2.15325,17.696163 0.004,9.835434 -0.0541,14.699266 -0.17485,14.740633 -0.0985,0.03375 -0.18014,0.16982 -0.18014,0.300452 0,0.846925 -2.83038,1.338968 -4.10517,0.715205 -1.2769,-0.625941 -1.19318,0.853457 -1.19318,-20.965206 0,-21.44963 -0.0541,-20.340354 1.0247,-20.912954 2.31538,-1.23011 4.46439,-0.163289 4.70176,2.333943 0.15259,1.611117 0.12079,1.598054 1.21014,0.534499 0.91025,-0.889381 1.94979,-1.708002 2.16914,-1.708002 0.0615,0 0.3232,-0.150226 0.5807,-0.33311 1.85442,-1.317197 7.31809,-1.836456 10.80015,-1.027631 m 54.57831,-0.267794 c 1.85442,0.230782 3.38565,0.548651 3.60711,0.75004 0.0922,0.08382 0.31155,0.152403 0.48745,0.152403 0.17697,0 0.45883,0.07293 0.62732,0.161112 0.16849,0.08817 0.54467,0.262351 0.83608,0.387539 3.3687,1.450005 6.37816,3.974451 8.78784,7.368684 0.36347,0.511638 0.66124,1.015657 0.66124,1.117984 0,0.103416 0.0678,0.215542 0.15154,0.248199 0.17908,0.07185 1.43797,2.724748 1.43797,3.030643 0,0.115391 0.0773,0.351615 0.17272,0.524701 1.12961,2.059617 0.94734,5.081551 -0.3179,5.272055 -0.21194,0.03157 -0.38466,0.133896 -0.38466,0.226427 0,0.103416 -6.40676,0.168732 -16.41429,0.168732 -12.9375,0 -16.44501,0.0479 -16.55734,0.227515 -0.56693,0.898089 0.10491,6.121157 1.02576,7.980474 0.0858,0.173086 0.15578,0.40169 0.15578,0.508372 0,0.36359 1.9731,3.271221 2.97237,4.379408 1.56725,1.74066 4.94442,3.959212 6.02528,3.959212 0.18757,0 0.38572,0.07294 0.43976,0.1622 0.36453,0.607435 7.10933,0.612878 8.53247,0.0065 0.21935,-0.09253 0.61673,-0.260174 0.88376,-0.372299 0.74071,-0.310249 2.19776,-1.095125 2.33976,-1.259502 0.0487,-0.0566 0.44823,-0.353793 0.88694,-0.660776 1.04059,-0.727179 2.64811,-2.532066 3.16311,-3.553166 1.51745,-3.004516 5.83984,-2.559282 5.83984,0.60308 0,0.794673 -0.0996,1.091858 -0.61778,1.832102 -0.34016,0.486601 -0.6178,0.924215 -0.6178,0.972112 0,0.530145 -3.47678,4.378321 -4.79712,5.311245 -5.58976,3.945059 -14.61391,4.603658 -20.06696,1.465245 -0.31791,-0.183972 -0.65489,-0.334198 -0.74708,-0.334198 -0.22571,0 -1.95509,-1.145199 -3.16523,-2.09663 -1.94025,-1.525118 -5.13304,-5.075019 -5.13304,-5.706402 0,-0.09906 -0.0667,-0.179618 -0.14835,-0.179618 -0.16637,0 -1.79509,-3.266866 -1.79509,-3.599976 0,-0.118656 -0.0721,-0.357059 -0.16107,-0.530144 -0.22676,-0.440881 -0.66759,-2.102073 -0.91025,-3.427978 -0.49699,-2.721483 0.053,-9.474023 0.89647,-10.990433 0.0964,-0.174174 0.17485,-0.431082 0.17485,-0.572599 0,-0.255819 0.44082,-1.249705 1.09571,-2.468928 0.1865,-0.349439 0.38466,-0.778344 0.43763,-0.952518 0.0541,-0.175265 0.16743,-0.31787 0.25326,-0.31787 0.0858,0 0.15684,-0.09688 0.15684,-0.215542 0,-0.802292 5.19556,-6.306216 5.96065,-6.313837 0.12079,-0.0011 0.22146,-0.06314 0.22146,-0.13825 10e-4,-0.07512 0.18015,-0.228606 0.39738,-0.34073 0.21829,-0.113214 0.94311,-0.500753 1.61176,-0.862165 0.66864,-0.361414 1.36379,-0.656422 1.54499,-0.656422 0.18227,0 0.33062,-0.08165 0.33062,-0.181795 0,-0.100151 0.18227,-0.181795 0.40586,-0.181795 0.22359,0 0.48215,-0.06858 0.57434,-0.153491 0.16425,-0.151315 2.91939,-0.693434 4.14119,-0.815356 1.36379,-0.136075 3.17795,-0.109948 4.59685,0.0664 m 41.23387,0.266705 c 1.03212,0.27106 1.57467,0.476804 2.29631,0.871962 0.19392,0.106683 0.55208,0.297186 0.79475,0.423463 1.99112,1.03634 2.81342,3.876479 1.51003,5.216537 -1.05755,1.085326 -2.97768,1.276919 -3.91866,0.390804 -2.02185,-1.900683 -5.25384,-2.060706 -8.18807,-0.402779 -1.97522,1.114719 -3.9939,3.436686 -4.60321,5.293826 -0.13034,0.399514 -0.30094,0.803381 -0.3783,0.898089 -0.0773,0.0947 -0.14093,6.310572 -0.14093,13.812063 0,11.667536 -0.0381,13.733686 -0.2628,14.286691 -0.90814,2.233792 -4.95396,2.160856 -5.48698,-0.09906 -0.25326,-1.072264 -0.30094,-38.047403 -0.0508,-38.875821 0.45672,-1.512056 1.27691,-2.086833 2.98191,-2.086833 1.80674,0 2.81873,1.242085 2.81873,3.460636 v 1.094036 l 0.88164,-1.088592 c 0.83925,-1.035252 2.23379,-2.195692 2.63857,-2.195692 0.10386,0 0.18863,-0.08165 0.18863,-0.181795 0,-0.100151 0.14305,-0.181795 0.3179,-0.181795 0.17485,0 0.39419,-0.0675 0.48638,-0.149138 0.96007,-0.85781 5.62897,-1.137579 8.11496,-0.4866 m 38.85492,-0.268882 c 1.84276,0.181795 3.31571,0.467006 3.83813,0.742419 0.16954,0.08927 0.42386,0.162201 0.56585,0.162201 0.99927,0 4.25458,2.415587 5.23371,3.88301 l 0.41963,0.629207 0.26916,-0.415843 c 0.36771,-0.567156 1.38393,-1.737394 1.50791,-1.737394 0.0562,0 0.27127,-0.1622 0.47791,-0.360324 0.44612,-0.426729 2.38638,-1.635066 2.62586,-1.635066 0.0922,0 0.30413,-0.08055 0.47368,-0.177441 2.07589,-1.201806 8.14568,-1.618737 10.92413,-0.75004 0.27975,0.08709 0.86575,0.259085 1.30339,0.382096 3.6707,1.029809 7.07118,4.410978 7.98462,7.939107 0.80957,3.128615 0.8329,3.636987 0.83501,17.824616 0.003,14.697089 0.004,14.678583 -0.97913,15.558166 -1.13596,1.017834 -3.73957,0.787053 -4.50889,-0.399514 -0.19604,-0.302629 -0.26068,-3.052414 -0.34546,-14.795062 -0.12079,-16.810048 -0.12609,-16.854681 -1.98157,-18.7423 -1.77071,-1.801622 -3.4895,-2.370956 -7.17927,-2.375309 l -2.56758,-0.0033 -1.34684,0.669485 c -2.37472,1.181123 -3.99072,3.274487 -4.58307,5.936096 -0.16531,0.741332 -0.23737,4.54814 -0.27975,14.809214 -0.0625,15.106401 -0.0159,14.464131 -1.10842,15.146678 -0.73541,0.459387 -2.75832,0.477893 -3.51387,0.03157 -1.24087,-0.731534 -1.16564,0.211187 -1.28537,-16.107905 -0.11021,-15.12273 -0.10915,-15.105312 -0.79052,-16.709897 -0.31578,-0.745686 -1.40512,-2.054175 -1.88304,-2.263185 -0.26703,-0.116479 -0.48638,-0.283033 -0.48638,-0.371209 0,-0.08709 -0.11974,-0.158935 -0.26704,-0.158935 -0.14729,0 -0.40479,-0.07729 -0.57434,-0.171998 -3.29451,-1.845164 -9.45331,-0.844748 -11.64895,1.891975 -2.01763,2.514648 -2.03139,2.638747 -2.10875,19.099358 -0.0424,8.884004 -0.12822,13.833835 -0.23948,13.833835 -0.0954,0 -0.17273,0.114303 -0.17273,0.254731 0,1.435854 -4.19099,1.336791 -5.00376,-0.118656 -0.33062,-0.593284 -0.46838,-40.051502 -0.13882,-40.051502 0.0858,0 0.19604,-0.155668 0.24478,-0.347262 0.11763,-0.462651 1.01305,-0.917682 2.05152,-1.045048 1.79932,-0.218807 3.09318,0.955784 3.23518,2.934846 l 0.052,0.726091 0.84561,-0.85781 c 0.98974,-1.004772 2.28465,-1.955114 2.66402,-1.955114 0.14729,0 0.31048,-0.07185 0.36346,-0.160023 0.10385,-0.171997 1.96145,-0.701053 2.83886,-0.808823 1.05014,-0.128455 2.50505,-0.106683 4.23868,0.06423 M 91.783597,37.871013 c 0.35075,0.100151 0.794752,0.323312 0.987612,0.497486 0.865751,0.779433 0.841378,0.428906 0.953703,13.832747 0.06782,8.212343 0.172726,12.894381 0.298826,13.426703 0.107027,0.4485 0.245844,1.061377 0.308364,1.36074 0.06252,0.299363 0.305186,0.974291 0.539372,1.50117 0.234188,0.526878 0.425988,1.001505 0.425988,1.055935 0,0.346172 1.282201,1.954024 2.260276,2.833606 0.617787,0.554093 2.886542,1.775495 3.300872,1.775495 0.14941,0 0.41009,0.07512 0.57858,0.166555 1.17623,0.641181 6.39617,0.65751 7.9009,0.02503 0.19392,-0.08165 0.71104,-0.297186 1.14762,-0.47898 1.55029,-0.643359 3.63361,-2.4145 4.72507,-4.01473 l 0.39738,-0.582398 V 54.467697 c 0,-16.18193 -0.0477,-15.426448 1.02575,-16.211322 1.62554,-1.189832 4.11046,-0.485513 4.72931,1.340057 0.34333,1.01348 0.36453,37.932012 0.0222,38.912833 -0.50547,1.448918 -1.06815,1.814685 -2.79648,1.814685 -2.08012,0 -2.98084,-0.969937 -2.98084,-3.205906 v -1.227932 l -1.01622,1.012391 c -5.50182,5.485418 -15.830418,4.797428 -21.188109,-1.410817 -0.561625,-0.650978 -1.417838,-1.60785 -1.903166,-2.127109 -1.664742,-1.77985 -3.091057,-4.600393 -3.091057,-6.112449 0,-0.25473 -0.07312,-0.54103 -0.16213,-0.635737 -0.317901,-0.339642 -0.396317,-2.701887 -0.475791,-14.407524 -0.0816,-11.945128 -0.07418,-12.130188 0.523476,-13.416905 0.407973,-0.879582 2.08437,-1.321551 3.488433,-0.920949 m 166.676534,0.117568 c 0.81383,0.381007 1.25359,0.922037 1.2589,1.54689 0.002,0.268882 0.0837,0.538853 0.18014,0.600903 0.33061,0.210098 0.23312,37.119921 -0.10068,38.299956 -0.67713,2.392726 -4.55129,2.737811 -5.46684,0.486601 -0.39208,-0.964493 -0.39101,-38.691849 0.001,-39.656343 0.57434,-1.411904 2.53896,-2.020428 4.12741,-1.278007 m 73.69263,-0.117568 c 0.7227,0.205744 1.22498,0.607434 1.58738,1.267122 0.26598,0.48769 0.47897,37.392069 0.22465,39.029312 -0.37936,2.435182 -4.4167,3.119907 -5.47743,0.927481 -0.46732,-0.965581 -0.60507,-38.187831 -0.14624,-39.606266 0.50017,-1.54689 1.93072,-2.154326 3.81164,-1.617649 m 36.44734,0.2003 c 1.94556,0.554094 2.17339,3.097047 0.46202,5.149044 -0.16636,0.200301 -0.41751,0.538853 -0.55738,0.753306 -0.80747,1.237731 -2.38109,3.429067 -2.49977,3.480231 -0.0763,0.03375 -0.13881,0.141517 -0.13881,0.23949 0,0.09906 -0.0986,0.288477 -0.22042,0.421286 -0.12186,0.132808 -0.73753,0.990619 -1.36909,1.906125 -0.63051,0.916596 -1.30658,1.894152 -1.50049,2.17392 -0.19498,0.279769 -0.90602,1.313931 -1.58208,2.299108 -0.67502,0.984088 -1.27162,1.831013 -1.3246,1.881088 -0.053,0.04899 -0.17591,0.220984 -0.27233,0.381007 -0.20875,0.342907 -1.22604,1.749369 -1.59586,2.206577 -0.142,0.175264 -0.25856,0.38754 -0.25856,0.470273 0,0.08273 -0.16743,0.306983 -0.37194,0.496398 -0.20347,0.190504 -0.49275,0.590017 -0.64217,0.890469 -0.14941,0.299363 -0.32426,0.584574 -0.38783,0.634649 -0.0646,0.05007 -0.586,0.784876 -1.15929,1.632889 -0.57328,0.848014 -1.09252,1.582814 -1.15398,1.632889 -0.0604,0.05008 -0.68666,0.939456 -1.39134,1.976884 -2.00489,2.955529 -2.04093,3.007782 -2.1469,3.103578 -0.0551,0.05008 -0.34439,0.458298 -0.64322,0.906798 -0.29882,0.449589 -0.71103,1.01348 -0.91555,1.25297 -0.20451,0.239491 -0.37194,0.492043 -0.37194,0.561714 0,0.06967 -0.15683,0.312426 -0.34969,0.539942 -0.6019,0.713028 -0.38149,0.730445 9.54657,0.730445 10.62742,0 10.74398,0.0097 11.76445,1.049404 1.08722,1.10601 0.70467,3.706657 -0.65064,4.429484 -0.77568,0.413664 -26.47479,0.434348 -27.59062,0.02286 -2.16597,-0.800116 -1.87456,-3.506357 0.70255,-6.522848 0.16955,-0.198123 0.38678,-0.488778 0.48427,-0.645535 0.0976,-0.157846 0.73329,-1.079883 1.41255,-2.049819 1.34365,-1.914835 1.44009,-2.054175 2.98932,-4.295588 0.5754,-0.832773 1.1116,-1.540358 1.19213,-1.574104 0.0806,-0.03266 0.14623,-0.168733 0.14623,-0.302629 0,-0.132808 0.0636,-0.268883 0.14095,-0.30154 0.0784,-0.03375 0.53195,-0.632473 1.00986,-1.331349 0.47685,-0.697789 0.91025,-1.310666 0.96218,-1.360741 0.052,-0.05007 0.17379,-0.220985 0.27127,-0.381008 0.5097,-0.838216 1.15187,-1.750457 1.48143,-2.105337 0.20556,-0.220985 0.37299,-0.465918 0.37405,-0.544297 0.002,-0.117568 0.60402,-0.978645 1.37228,-1.958379 0.0784,-0.100149 0.41751,-0.57913 0.75343,-1.064643 0.33591,-0.4866 0.76932,-1.110364 0.96324,-1.387956 0.19497,-0.276502 0.82653,-1.185477 1.40512,-2.019339 0.57752,-0.833862 1.09781,-1.556687 1.1561,-1.605674 0.0583,-0.05007 0.57433,-0.784876 1.14762,-1.632889 0.57328,-0.849103 1.08616,-1.583902 1.1402,-1.632889 0.053,-0.05007 0.17591,-0.222073 0.2734,-0.381007 0.20345,-0.335287 1.22073,-1.743926 1.57997,-2.189161 0.39313,-0.485512 0.11867,-0.498575 -10.50769,-0.50184 -12.08977,-0.0054 -11.64789,0.09797 -11.64789,-2.719305 0,-1.837544 0.24584,-2.226173 1.76647,-2.791152 0.54467,-0.202478 26.02973,-0.130631 26.75242,0.0762 M 200.11675,43.32268 c -4.11258,0.575866 -8.56743,3.466079 -11.04706,7.168383 l -0.53832,0.803381 h 13.34443 13.34336 l -0.61884,-0.905709 c -0.34121,-0.497487 -0.61991,-0.945987 -0.61991,-0.994974 0,-0.358147 -3.13239,-3.579293 -3.84555,-3.954857 -0.26491,-0.13934 -0.75977,-0.412577 -1.09992,-0.607434 -2.21577,-1.268211 -6.02741,-1.913747 -8.91819,-1.50879"
           id="path1" />
        <g
           transform="matrix(0.08049988,0,0,-0.08367522,-279.42352,441.02998)"
           id="g995"
           style="fill:#000000;stroke:#000000;stroke-width:6.54322672;stroke-miterlimit:4;stroke-dasharray:none;stroke-opacity:1">
          <path
             style="stroke:#000000;stroke-width:6.54322672;stroke-miterlimit:4;stroke-dasharray:none;stroke-opacity:1"
             inkscape:connector-curvature="0"
             d="m 1056,4974 c -31,-32 -35,-81 -8,-112 27,-32 91,-33 122,-2 30,30 26,76 -9,111 -37,36 -70,37 -105,3 z"
             id="path2-2" />
          <path
             style="stroke:#000000;stroke-width:6.54322672;stroke-miterlimit:4;stroke-dasharray:none;stroke-opacity:1"
             inkscape:connector-curvature="0"
             d="m 1305,4975 c -32,-31 -34,-93 -6,-119 31,-28 91,-24 118,9 67,77 -41,182 -112,110 z"
             id="path4-3" />
          <path
             style="stroke:#000000;stroke-width:6.54322672;stroke-miterlimit:4;stroke-dasharray:none;stroke-opacity:1"
             inkscape:connector-curvature="0"
             d="m 4840,4827 -25,-13 -3,-806 c -2,-894 -7,-838 63,-838 40,0 62,20 70,63 3,18 5,377 3,799 -3,834 0,789 -58,802 -14,4 -36,0 -50,-7 z"
             id="path6-9" />
          <path
             style="stroke:#000000;stroke-width:6.54322672;stroke-miterlimit:4;stroke-dasharray:none;stroke-opacity:1"
             inkscape:connector-curvature="0"
             d="m 674,4726 c -18,-14 -19,-31 -19,-538 0,-581 0,-578 69,-724 43,-90 135,-190 215,-233 177,-94 441,-94 599,2 74,44 161,140 200,220 64,133 65,139 69,712 4,584 6,568 -62,573 -75,4 -69,42 -76,-550 -6,-570 -7,-575 -60,-685 -35,-73 -123,-155 -194,-182 -81,-31 -208,-38 -298,-17 -146,34 -243,110 -283,221 -37,101 -44,224 -44,715 1,239 1,443 0,452 -1,43 -74,64 -116,34 z"
             id="path8-6" />
          <path
             style="stroke:#000000;stroke-width:6.54322672;stroke-miterlimit:4;stroke-dasharray:none;stroke-opacity:1"
             inkscape:connector-curvature="0"
             d="m 6961,4666 c -53,-30 -64,-89 -25,-135 21,-26 33,-31 68,-31 56,0 86,30 86,87 0,34 -6,46 -31,67 -34,29 -62,32 -98,12 z"
             id="path10-1" />
          <path
             style="stroke:#000000;stroke-width:6.54322672;stroke-miterlimit:4;stroke-dasharray:none;stroke-opacity:1"
             inkscape:connector-curvature="0"
             d="m 8833,4661 c -52,-33 -54,-109 -4,-148 28,-22 89,-16 116,12 74,73 -23,191 -112,136 z"
             id="path12-1" />
          <path
             style="stroke:#000000;stroke-width:6.54322672;stroke-miterlimit:4;stroke-dasharray:none;stroke-opacity:1"
             inkscape:connector-curvature="0"
             d="m 2979,4441 c -39,-40 -40,-91 -2,-121 54,-42 133,-5 133,62 0,35 -48,88 -80,88 -12,0 -35,-13 -51,-29 z"
             id="path14-7" />
          <path
             style="stroke:#000000;stroke-width:6.54322672;stroke-miterlimit:4;stroke-dasharray:none;stroke-opacity:1"
             inkscape:connector-curvature="0"
             d="m 3245,4458 c -32,-18 -44,-40 -45,-80 0,-42 17,-64 59,-73 83,-18 133,75 72,136 -31,31 -54,35 -86,17 z"
             id="path16-9" />
          <path
             style="stroke:#000000;stroke-width:6.54322672;stroke-miterlimit:4;stroke-dasharray:none;stroke-opacity:1"
             inkscape:connector-curvature="0"
             d="m 2083,4212 c -48,-7 -48,-6 -51,-491 -2,-251 0,-470 3,-488 8,-43 30,-63 70,-63 36,0 65,21 65,48 0,9 1,166 3,347 2,322 3,331 25,377 61,124 214,181 309,115 63,-44 123,-21 123,46 0,36 -39,71 -106,97 -111,42 -243,15 -311,-64 l -31,-34 -6,43 c -9,57 -36,76 -93,67 z"
             id="path18-4" />
          <path
             style="stroke:#000000;stroke-width:6.54322672;stroke-miterlimit:4;stroke-dasharray:none;stroke-opacity:1"
             inkscape:connector-curvature="0"
             d="m 2763,4212 c -44,-7 -45,-15 -44,-358 1,-401 3,-411 108,-531 96,-109 191,-154 329,-155 93,-1 161,24 227,82 l 37,32 v -36 c 0,-47 29,-76 74,-76 69,0 66,-22 66,520 0,546 3,520 -70,520 -71,0 -70,4 -70,-413 v -368 l -48,-48 c -65,-64 -126,-85 -236,-79 -103,5 -167,34 -213,96 -59,78 -64,113 -63,452 0,223 -4,312 -13,329 -13,26 -47,39 -84,33 z"
             id="path20-6" />
          <path
             style="stroke:#000000;stroke-width:6.54322672;stroke-miterlimit:4;stroke-dasharray:none;stroke-opacity:1"
             inkscape:connector-curvature="0"
             d="m 4077,4210 c -50,-13 -90,-34 -132,-71 l -35,-31 -6,41 c -8,52 -22,63 -76,59 -34,-2 -45,-8 -55,-28 -17,-33 -19,-924 -2,-967 13,-34 25,-43 66,-43 64,0 63,-8 63,401 v 370 l 46,49 c 74,79 158,106 278,89 124,-17 194,-72 226,-177 18,-58 20,-94 20,-378 0,-301 1,-315 20,-334 25,-25 71,-26 99,-2 22,17 22,18 19,367 -3,339 -4,352 -26,408 -45,111 -139,200 -247,233 -62,19 -207,27 -258,14 z"
             id="path22-5" />
          <path
             style="stroke:#000000;stroke-width:6.54322672;stroke-miterlimit:4;stroke-dasharray:none;stroke-opacity:1"
             inkscape:connector-curvature="0"
             d="m 5484,4205 c -179,-39 -331,-188 -379,-370 -8,-33 -15,-98 -15,-145 0,-152 44,-256 156,-368 122,-123 258,-169 437,-150 147,15 252,80 339,209 47,70 32,120 -37,122 -32,1 -42,-4 -59,-28 -12,-17 -44,-53 -72,-81 -72,-73 -140,-97 -259,-92 -107,4 -158,25 -240,100 -77,70 -117,154 -123,259 l -5,79 h 405 c 263,0 416,4 436,11 55,19 51,73 -13,200 -15,29 -58,84 -96,122 -126,126 -291,172 -475,132 z m 271,-141 c 36,-13 69,-36 118,-85 37,-37 67,-74 67,-83 0,-14 -35,-16 -341,-16 h -340 l 20,28 c 26,37 97,102 142,130 86,53 225,64 334,26 z"
             id="path24-0" />
          <path
             style="stroke:#000000;stroke-width:6.54322672;stroke-miterlimit:4;stroke-dasharray:none;stroke-opacity:1"
             inkscape:connector-curvature="0"
             d="m 6300,4212 c -51,-7 -50,-2 -50,-523 0,-539 -2,-519 63,-519 75,1 77,13 77,404 0,329 0,333 23,377 61,116 231,173 309,102 25,-22 88,-21 105,3 17,24 17,65 -2,90 -8,12 -38,31 -67,44 -117,50 -248,33 -325,-45 -42,-42 -43,-42 -43,-16 0,58 -36,91 -90,83 z"
             id="path26-4" />
          <path
             style="stroke:#000000;stroke-width:6.54322672;stroke-miterlimit:4;stroke-dasharray:none;stroke-opacity:1"
             inkscape:connector-curvature="0"
             d="m 6980,4210 c -49,-12 -50,-23 -50,-512 0,-450 3,-501 33,-520 21,-13 75,-9 91,8 14,14 16,74 16,508 0,383 -3,496 -12,503 -19,15 -50,20 -78,13 z"
             id="path28-7" />
          <path
             style="stroke:#000000;stroke-width:6.54322672;stroke-miterlimit:4;stroke-dasharray:none;stroke-opacity:1"
             inkscape:connector-curvature="0"
             d="m 7538,4205 c -26,-8 -63,-30 -82,-48 l -35,-34 -6,29 c -4,15 -13,35 -22,43 -17,18 -84,20 -101,3 -9,-9 -12,-135 -12,-504 0,-544 -2,-524 63,-524 76,1 77,7 77,407 0,315 2,352 19,388 41,92 135,134 259,116 82,-12 129,-42 156,-100 20,-44 21,-66 26,-419 5,-408 3,-392 65,-392 73,0 75,9 75,397 0,202 4,353 10,375 14,49 53,94 104,120 75,39 230,23 289,-30 49,-44 51,-64 54,-447 2,-198 5,-370 8,-382 6,-24 57,-40 93,-29 37,12 42,56 42,380 0,412 -12,486 -91,564 -132,133 -430,133 -544,1 l -30,-35 -41,42 c -26,26 -62,49 -100,63 -77,29 -211,37 -276,16 z"
             id="path30-2" />
          <path
             style="stroke:#000000;stroke-width:6.54322672;stroke-miterlimit:4;stroke-dasharray:none;stroke-opacity:1"
             inkscape:connector-curvature="0"
             d="m 8853,4210 c -12,-5 -27,-18 -33,-29 -7,-14 -10,-168 -8,-502 3,-463 4,-481 22,-495 26,-18 66,-18 94,2 l 22,15 v 489 c 0,431 -2,490 -16,504 -8,9 -19,16 -24,16 -5,0 -14,2 -22,4 -7,3 -23,1 -35,-4 z"
             id="path32-2" />
          <path
             style="stroke:#000000;stroke-width:6.54322672;stroke-miterlimit:4;stroke-dasharray:none;stroke-opacity:1"
             inkscape:connector-curvature="0"
             d="m 9135,4196 c -13,-9 -19,-26 -19,-51 0,-64 5,-65 301,-65 145,0 263,-3 263,-6 0,-4 -96,-140 -214,-303 -363,-503 -356,-493 -356,-522 0,-57 11,-59 382,-59 325,0 339,1 358,20 25,25 26,72 2,93 -16,15 -51,17 -285,17 -147,0 -267,3 -267,6 0,3 62,92 138,197 386,535 432,602 432,628 0,59 1,59 -374,59 -275,0 -346,-3 -361,-14 z"
             id="path34-0" />
        </g>
        <g
           inkscape:transform-center-y="323.38418"
           inkscape:transform-center-x="-212.22951"
           style="fill:#000000;stroke:#000000;stroke-width:234.974823;stroke-miterlimit:4;stroke-dasharray:none;stroke-opacity:1"
           transform="matrix(0.02074962,-4.5584313e-4,-5.1068653e-4,-0.0194887,-139.66634,301.34404)"
           id="g1451-2-2">
          <path
             inkscape:connector-curvature="0"
             d="m 13360,21794 c -525,-63 -968,-280 -1374,-674 -585,-568 -986,-1405 -1092,-2280 -21,-180 -29,-552 -15,-765 34,-521 133,-872 326,-1160 283,-423 594,-649 836,-606 66,11 91,25 83,46 -4,9 -31,14 -88,17 -71,3 -92,8 -157,40 -273,136 -581,648 -683,1133 -99,475 -111,938 -35,1320 24,118 116,434 194,664 176,518 397,953 635,1246 86,107 345,365 450,449 270,215 544,355 810,412 127,28 361,25 500,-5 336,-72 582,-202 806,-425 273,-274 429,-615 505,-1107 20,-123 23,-186 23,-434 1,-307 -8,-425 -50,-675 -74,-437 -255,-978 -470,-1410 -202,-403 -394,-645 -644,-812 -107,-71 -335,-180 -475,-228 -153,-52 -277,-84 -600,-155 -143,-31 -266,-62 -272,-67 -7,-6 -13,-21 -13,-33 0,-31 15,-41 80,-53 213,-42 473,-12 777,89 305,102 546,241 723,418 570,571 1026,1540 1137,2416 22,175 25,617 5,775 -72,569 -253,952 -626,1325 -280,279 -571,448 -896,520 -73,16 -325,28 -400,19 z"
             id="path2-5-9-6"
             style="stroke:#000000;stroke-width:234.974823;stroke-miterlimit:4;stroke-dasharray:none;stroke-opacity:1" />
          <path
             inkscape:connector-curvature="0"
             d="m 20005,20394 c -16,-2 -79,-9 -140,-15 -268,-27 -584,-90 -942,-190 -818,-228 -1350,-471 -1813,-827 -510,-393 -888,-828 -1119,-1290 -86,-172 -131,-283 -211,-529 -88,-269 -143,-476 -174,-663 -28,-165 -32,-215 -46,-500 -11,-209 -29,-353 -56,-448 -13,-48 -31,-69 -217,-256 -204,-205 -285,-276 -433,-379 l -82,-57 -258,-50 c -414,-81 -693,-139 -1629,-340 -896,-192 -1303,-275 -1311,-267 -2,2 22,22 53,44 331,233 586,629 741,1153 70,235 209,870 196,891 -32,52 -80,-98 -199,-621 -131,-576 -339,-978 -661,-1279 -65,-61 -224,-187 -270,-214 -19,-11 -420,-74 -644,-102 -231,-28 -489,-51 -693,-61 l -137,-7 19,44 c 33,73 68,209 81,309 33,253 -46,551 -216,817 -106,167 -293,382 -479,554 -92,85 -111,108 -115,137 -6,40 -27,54 -32,21 -3,-19 -16,-10 -111,70 -60,50 -112,91 -116,91 -28,0 -8,-28 96,-132 l 118,-118 -24,-68 c -99,-285 -393,-480 -826,-547 -448,-69 -1130,29 -1613,231 -510,214 -1046,667 -1286,1089 -103,181 -163,359 -203,600 -14,85 -18,166 -18,360 0,219 3,263 22,361 53,260 145,439 302,586 157,148 408,243 742,279 127,14 393,6 539,-16 529,-79 1126,-349 1669,-755 221,-165 331,-259 476,-404 159,-160 269,-308 351,-471 143,-289 161,-555 57,-856 -41,-120 -40,-150 7,-169 27,-11 34,-10 69,13 53,36 154,164 195,250 53,109 69,191 63,322 -12,286 -188,594 -538,944 -352,351 -827,680 -1386,960 -760,380 -1402,504 -1889,365 -561,-160 -914,-710 -914,-1424 0,-481 156,-914 475,-1315 83,-104 286,-306 405,-402 201,-163 496,-345 698,-433 268,-116 682,-219 1072,-266 200,-25 582,-25 735,-1 311,49 501,132 656,286 71,70 94,101 127,171 40,85 72,192 72,243 0,15 4,27 9,27 16,0 310,-310 398,-420 203,-252 306,-476 334,-724 20,-179 -12,-374 -86,-531 l -35,-73 -518,-5 c -456,-4 -549,-7 -787,-30 -148,-14 -342,-32 -430,-39 -200,-16 -751,-16 -1265,0 -1755,56 -2107,96 -3933,452 -312,60 -576,110 -587,110 -50,0 -10,-19 103,-48 67,-18 253,-66 412,-108 1339,-349 2023,-453 3395,-514 1026,-46 1552,-52 1905,-21 l 100,8 51,-39 c 200,-151 461,-249 708,-266 222,-15 390,14 561,98 113,55 200,122 268,208 l 47,58 192,12 c 251,15 476,37 718,69 107,14 226,27 263,29 38,2 73,6 78,9 5,3 138,28 296,55 379,64 655,120 1443,290 972,210 1271,271 1290,265 23,-7 199,27 305,60 46,14 178,43 292,64 2210,415 3816,447 5308,105 195,-45 502,-131 689,-194 140,-46 166,-51 166,-30 0,16 -339,142 -600,221 -776,238 -1571,348 -2504,349 -216,0 -335,4 -325,10 40,24 425,172 516,199 175,52 443,100 743,133 149,17 793,16 995,0 888,-74 1585,-231 2338,-526 605,-237 1109,-500 1718,-897 263,-171 474,-297 907,-539 199,-112 360,-205 358,-207 -2,-2 -26,5 -55,16 -162,65 -608,183 -904,240 -508,99 -801,130 -1703,181 -589,33 -837,51 -1104,80 -280,31 -359,38 -835,70 -830,56 -1184,105 -1565,216 -227,66 -379,128 -810,331 -472,223 -698,308 -942,358 -205,41 -538,54 -538,20 0,-8 31,-14 98,-19 210,-14 435,-68 663,-157 74,-29 309,-140 523,-246 540,-269 679,-328 951,-402 384,-106 746,-158 1520,-221 204,-17 483,-41 620,-55 343,-34 684,-60 1185,-90 1184,-70 1649,-126 2180,-261 323,-81 565,-164 876,-300 706,-307 696,-303 719,-284 8,7 15,18 15,25 0,12 -129,112 -205,159 -16,10 -90,62 -163,114 -178,126 -409,274 -737,472 -148,89 -387,242 -530,338 -632,427 -813,546 -1010,664 -882,528 -1591,805 -2555,998 -524,105 -953,150 -1425,150 -385,0 -671,-27 -1010,-95 -432,-86 -797,-224 -1170,-441 l -91,-52 -149,-11 c -529,-41 -1106,-112 -1689,-210 -132,-23 -241,-39 -242,-38 -2,2 36,31 84,65 129,91 302,252 435,405 119,135 119,135 170,142 124,16 287,70 439,145 133,67 557,314 648,378 126,90 349,308 476,466 127,158 226,300 664,951 189,281 389,572 444,649 362,498 685,818 1101,1091 253,167 469,280 1040,547 l 320,150 130,-10 c 141,-10 168,-5 163,31 -3,19 -15,25 -83,39 -222,48 -360,61 -680,63 -170,2 -323,1 -340,-1 z m 310,-183 c -657,-223 -1202,-563 -1685,-1051 -298,-300 -478,-542 -770,-1035 -156,-262 -630,-996 -729,-1129 -162,-215 -236,-285 -536,-500 -416,-299 -800,-538 -899,-562 -25,-6 -8,17 115,152 338,374 408,469 702,947 49,79 120,186 158,238 78,106 84,117 74,127 -11,11 -222,-213 -347,-370 -63,-79 -204,-262 -313,-408 -109,-146 -227,-301 -263,-345 -100,-122 -215,-255 -218,-252 -2,2 6,36 16,77 29,112 46,211 80,464 46,344 98,572 200,876 221,663 551,1165 1030,1567 848,712 2017,1159 3270,1252 58,5 146,9 195,9 l 90,1 z M 9710,14209 c -312,-279 -791,-336 -1208,-143 -70,32 -217,123 -210,130 4,3 419,41 518,47 30,2 255,4 500,5 l 445,1 z"
             id="path4-6-4-5"
             style="stroke:#000000;stroke-width:234.974823;stroke-miterlimit:4;stroke-dasharray:none;stroke-opacity:1" />
          <path
             inkscape:connector-curvature="0"
             d="m 12403,17109 c -130,-22 -258,-93 -355,-198 -155,-167 -122,-354 86,-476 56,-33 75,-24 26,13 -96,72 -140,140 -140,217 0,135 175,271 375,291 82,9 153,-9 209,-52 51,-39 122,-141 166,-240 17,-38 37,-72 43,-76 24,-15 56,-7 76,18 18,22 21,41 21,114 0,124 -20,178 -93,257 -69,74 -151,118 -247,133 -74,11 -94,11 -167,-1 z"
             id="path6-0-2-7"
             style="stroke:#000000;stroke-width:234.974823;stroke-miterlimit:4;stroke-dasharray:none;stroke-opacity:1" />
          <path
             inkscape:connector-curvature="0"
             d="m 8819,16827 c -158,-54 -271,-195 -314,-391 -52,-234 57,-416 247,-416 39,0 149,27 161,39 5,5 -29,7 -76,4 -109,-7 -149,1 -192,38 -51,45 -68,101 -63,202 4,70 10,96 41,160 40,85 108,161 172,192 67,33 176,27 304,-18 98,-34 106,-35 123,-20 31,28 22,57 -34,109 -69,65 -111,90 -183,109 -78,20 -107,19 -186,-8 z"
             id="path8-0-7-2"
             style="stroke:#000000;stroke-width:234.974823;stroke-miterlimit:4;stroke-dasharray:none;stroke-opacity:1" />
        </g>
      </g>
    </g>
  </g>
</svg>
